<?xml version="1.0" encoding="utf-8"?>
<!-- Generator: Adobe Illustrator 17.1.0, SVG Export Plug-In . SVG Version: 6.00 Build 0)  -->
<!DOCTYPE svg PUBLIC "-//W3C//DTD SVG 1.1//EN" "http://www.w3.org/Graphics/SVG/1.1/DTD/svg11.dtd">
<svg version="1.1" id="Layer_1" xmlns="http://www.w3.org/2000/svg" xmlns:xlink="http://www.w3.org/1999/xlink" x="0px" y="0px"
	 viewBox="0 0 50.3 49" enable-background="new 0 0 50.3 49" xml:space="preserve">
<g id="_x37_dpTqK.tif">
	<g>
		<path fill="#9E9E9E" d="M27.2,6.4c0,1.4,0.1,2.8,0,4.1c-0.1,1.2-0.8,1.9-2,1.9c-1.3,0-2-0.8-2-2c-0.1-2.9-0.1-5.8,0.1-8.6
			c0-0.6,1.1-1.5,1.8-1.7c1.2-0.3,2,0.5,2.1,1.7C27.3,3.4,27.2,5,27.2,6.4C27.2,6.4,27.2,6.4,27.2,6.4z"/>
		<path fill="#9E9E9E" d="M6.9,26.5c-1.4,0-2.8,0.1-4.1,0c-1.2-0.1-1.9-0.8-1.9-2c0-1.3,0.8-2,2-2c2.9-0.1,5.8-0.1,8.6,0.1
			c0.6,0,1.5,1.1,1.7,1.8c0.3,1.2-0.5,2-1.7,2.1C9.9,26.6,8.4,26.5,6.9,26.5C6.9,26.5,6.9,26.5,6.9,26.5z"/>
		<path fill="#898989" d="M43.3,26.6c-1.3,0-2.6,0-3.8,0c-1.3-0.1-2.3-0.7-2.2-2.1c0-1.3,0.9-1.9,2-1.9c2.8-0.1,5.6-0.1,8.4,0
			c1.2,0,1.9,0.8,1.9,2.1c0,1.3-0.9,1.9-2,1.9C46.1,26.6,44.7,26.6,43.3,26.6C43.3,26.6,43.3,26.6,43.3,26.6z"/>
		<path fill="#4C4C4C" d="M27.2,42.7c0,1.4,0.1,2.8,0,4.2c-0.1,1.2-0.8,1.9-2,1.9c-1.6,0-2-1.1-2-1.9c0-2.8-0.2-5.6-0.1-8.4
			c0-1.2,0.8-1.9,2-1.9c1.4,0,1.8,1.2,2,1.9C27.5,39.9,27.2,41.3,27.2,42.7z"/>
		<path fill="#9E9E9E" d="M20.6,12.1c0.2,1.2-1.1,1.7-1.8,2.1c-0.4,0.2-1.5,0-1.8-0.4c-1.7-2.6-3.3-5.3-4.8-8
			c-0.2-0.4-0.3-1.4,0.8-2.1c0.4-0.3,1.6-0.4,1.8-0.2C16.8,6.3,18.7,9.2,20.6,12.1z"/>
		<path fill="#9E9E9E" d="M32.3,14.4c-1.3,0-2.5-1.6-1.9-2.8c1.4-2.7,3-5.2,4.7-7.7c0.3-0.4,1.6-0.6,2.1-0.4
			c1.1,0.6,1.3,1.5,1.1,1.9c-1.6,2.9-3.4,5.8-5.1,8.6C33,14.3,32.5,14.3,32.3,14.4z"/>
		<path fill="#9E9E9E" d="M15.1,17.2c0,1.4-1.5,2.7-2.7,2.1c-2.7-1.4-5.2-3-7.7-4.7c-0.4-0.3-0.7-1.6-0.4-2c0.7-1.2,1.8-1.3,2.2-1.1
			c2.8,1.4,5.4,3.1,8.1,4.8C14.8,16.5,15.1,17,15.1,17.2z"/>
		<path fill="#9E9E9E" d="M37.7,19.9c-1.2-0.2-1.9-1.1-2.1-1.7c-0.2-0.6,0.1-1.8,0.5-2.1c2.5-1.7,5.3-2.9,7.8-4.6
			c1-0.6,1.6-0.1,2.1,0.7c0.3,0.4,0.5,1.5,0.3,1.8C45.7,14.8,40.6,18,37.7,19.9z"/>
		<path fill="#242424" d="M15,31.9c-0.3,0.4-0.7,1.2-1.3,1.6c-2.2,1.4-4.4,2.6-6.6,3.9c-1.2,0.7-2.2,0.5-3-0.7
			c-0.7-1.1-0.2-2.1,0.8-2.7c2.4-1.5,4.8-2.9,7.2-4.2C13.6,29,15.1,30.1,15,31.9z"/>
		<path fill="#767676" d="M46.5,35.5c-0.1,1.5-1.6,2.6-2.8,2c-2.6-1.4-5.2-2.9-7.7-4.6c-0.5-0.3-0.6-1.6-0.5-2.1
			c0.3-1.2,1.7-1.4,2.2-1.2c2.8,1.5,5.6,3.2,8.3,4.9C46.4,34.8,46.4,35.3,46.5,35.5z"/>
		<path fill="#383838" d="M20.4,36.5c-0.3,0.8-0.3,1.1-0.5,1.4c-1.3,2.3-2.6,4.7-4,6.9c-0.6,0.9-1.5,1.5-2.7,0.8
			c-1.2-0.7-1.5-1.8-0.8-3c1.3-2.3,2.6-4.7,4.1-6.9c0.4-0.6,1.6-1.1,2.3-0.9C19.4,35,20.4,35.8,20.4,36.5z"/>
		<path fill="#616161" d="M38.7,43.5c0.4,1.2-0.9,1.7-1.5,2c-0.6,0.3-1.8,0.1-2.1-0.3c-1.7-2.6-3.3-5.3-4.7-8
			c-0.2-0.5-0.1-1.4,1-2.2c0.5-0.4,1.5-0.3,1.8,0.1C35,37.8,36.8,40.6,38.7,43.5z"/>
	</g>
</g>
</svg>
