<?xml version="1.0" encoding="UTF-8" standalone="no"?>
<svg
   xmlns:dc="http://purl.org/dc/elements/1.1/"
   xmlns:cc="http://creativecommons.org/ns#"
   xmlns:rdf="http://www.w3.org/1999/02/22-rdf-syntax-ns#"
   xmlns:svg="http://www.w3.org/2000/svg"
   xmlns="http://www.w3.org/2000/svg">
<path fill-rule="evenodd" clip-rule="evenodd" d="M10.7 3.2L11.8 1H13V.5c0-.3-.2-.5-.5-.5h-9c-.3 0-.5.2-.5.5V1h1.2l1.1 2.2C2.2 3.6 0 4.7 0 6v11c0 .6.4 1 1 1h14c.6 0 1-.4 1-1V6c0-1.3-2.2-2.4-5.3-2.8zM10.5 1l-1 2.1C9 3 8.5 3 8 3s-1 0-1.5.1L5.5 1h5zM9 6c0 .6-.4 1-1 1s-1-.4-1-1 .4-1 1-1 1 .4 1 1zM5 16H2v-2h3v2zm9 0h-3v-2h3v2zm0-4H2V8h12v4zM3 21h.8l-1.5 3h1.9l1.5-3h4.6l1.5 3h2l-1.5-3h.7c1.1 0 2-.9 2-2H1c0 1.1.9 2 2 2z"></path>
</svg>
