<?xml version="1.0" standalone="no"?>
<!DOCTYPE svg PUBLIC "-//W3C//DTD SVG 1.1//EN" "http://www.w3.org/Graphics/SVG/1.1/DTD/svg11.dtd" >
<svg xmlns="http://www.w3.org/2000/svg" xmlns:xlink="http://www.w3.org/1999/xlink" version="1.1">
<metadata>
Created by FontForge 20161003 at Fri Apr 13 08:59:02 2018
 By www-data
Copyright (C) 1992
</metadata>
<defs>
<font id="AVANTGAR" horiz-adv-x="1987" >
  <font-face 
    font-family="AVANTGAR"
    font-weight="400"
    font-stretch="normal"
    units-per-em="2048"
    panose-1="2 11 114 0 0 0 0 0 0 0"
    ascent="1638"
    descent="-410"
    x-height="1121"
    cap-height="1514"
    bbox="-92 -439 2357 1907"
    underline-thickness="10"
    underline-position="-82"
    unicode-range="U+0020-2122"
  />
<missing-glyph horiz-adv-x="1538" 
d="M96 0v1538h1346v-1538h-1346zM1346 96v1346h-1154v-1346h1154z" />
    <glyph glyph-name=".notdef" horiz-adv-x="1538" 
d="M96 0v1538h1346v-1538h-1346zM1346 96v1346h-1154v-1346h1154z" />
    <glyph glyph-name=".null" horiz-adv-x="0" 
 />
    <glyph glyph-name="nonmarkingreturn" horiz-adv-x="568" 
 />
    <glyph glyph-name="space" unicode=" " horiz-adv-x="568" 
 />
    <glyph glyph-name="exclam" unicode="!" horiz-adv-x="604" 
d="M228 258h151v-258h-151v258zM228 1514h151v-1118h-151v1118z" />
    <glyph glyph-name="quotedbl" unicode="&#x22;" horiz-adv-x="633" 
d="M152 1514h106v-463h-106v463zM379 1514h107v-463h-107v463z" />
    <glyph glyph-name="numbersign" unicode="#" horiz-adv-x="1135" 
d="M316 512h-306l33 119h307l74 252h-305l33 119h309l150 512h86l-148 -512h182l152 512h84l-150 -512h308l-33 -119h-309l-74 -252h307l-35 -119h-309l-150 -512h-88l152 512h-184l-152 -512h-86zM623 631l72 252h-185l-74 -252h187z" />
    <glyph glyph-name="dollar" unicode="$" horiz-adv-x="1135" 
d="M502 60q-91 15 -171 68.5t-128.5 137t-48.5 175.5v24h143q0 -78 36.5 -141t99.5 -98t137 -35q108 0 187 76.5t79 183.5q0 126 -70 189.5t-207 101.5q-184 51 -258 127q-100 103 -100 258q0 137 83 235t218 123v170h133v-170q97 -14 171.5 -65.5t115.5 -130.5
q22 -41 33.5 -85t11.5 -92h-143q0 103 -70.5 172.5t-177.5 69.5q-87 0 -150 -51q-45 -39 -62.5 -81t-17.5 -106q0 -76 31.5 -121.5t81.5 -70.5t133 -49q48 -14 84.5 -27t72.5 -29q66 -29 116 -77q55 -54 85.5 -130t30.5 -159q0 -96 -45 -183.5t-126 -147.5q-42 -30 -85 -46
t-90 -16v-171h-133v171z" />
    <glyph glyph-name="percent" unicode="%" horiz-adv-x="1587" 
d="M1051 1514h147l-680 -1514h-147zM740 1180q0 -95 -48.5 -178t-131.5 -132t-175 -49q-95 0 -177 49t-131.5 132.5t-49.5 181.5q0 51 11 94.5t36 85.5q47 82 129 128t184 46q99 0 180 -48t127 -131t46 -179zM1540 326q0 -95 -48.5 -176t-130.5 -129t-177 -48t-177.5 48.5
t-131.5 129.5t-49 177q0 101 47.5 184.5t130 131.5t182.5 48q78 0 140.5 -28.5t111.5 -80.5t75.5 -118.5t26.5 -138.5zM172 1182q0 -87 62.5 -151t148.5 -64q90 0 150.5 65.5t60.5 157.5q0 84 -60.5 143.5t-146.5 59.5q-93 0 -154 -59t-61 -152zM971 326q0 -87 63 -147
t150 -60q90 0 150 63q29 31 45 69.5t16 82.5q0 85 -61 149t-148 64q-63 0 -111 -28.5t-76 -79t-28 -113.5z" />
    <glyph glyph-name="ampersand" unicode="&#x26;" horiz-adv-x="1551" 
d="M1403 983l-280 -534l383 -373l-109 -103l-346 339q-25 -50 -55 -97t-61 -83q-64 -73 -151 -116t-198 -43q-126 0 -234 63.5t-171.5 172t-63.5 234.5q0 150 94 262t246 188q-82 82 -121 152t-39 164q0 65 28.5 124.5t80.5 106.5t117 72.5t129 25.5q50 0 94.5 -11t89.5 -36
q85 -46 136.5 -130t51.5 -181q0 -119 -85 -205.5t-212 -134.5l287 -283l219 426h170zM508 742q-112 -56 -175.5 -129.5t-63.5 -182.5q0 -80 42 -152.5t112 -115.5t151 -43q132 0 212 79.5t152 221.5l-364 356zM660 1393q-88 0 -149.5 -54.5t-61.5 -140.5q0 -46 24 -88
t58 -78q18 -17 27 -26q40 -39 57 -55q258 90 258 249q0 79 -66.5 136t-146.5 57z" />
    <glyph glyph-name="quotesingle" unicode="'" horiz-adv-x="406" 
d="M152 1514h102v-463h-102v463z" />
    <glyph glyph-name="parenleft" unicode="(" horiz-adv-x="756" 
d="M686 1383q-124 -71 -220 -194.5t-146.5 -271t-50.5 -294.5q0 -52 7 -106.5t22 -109.5q30 -112 86 -215t133 -185.5t169 -133.5v-133q-106 28 -212.5 122.5t-182.5 205.5q-174 254 -174 555q0 297 162 549q79 121 185 216q54 50 108 80t114 46v-131z" />
    <glyph glyph-name="parenright" unicode=")" horiz-adv-x="756" 
d="M70 -127q94 53 170 134.5t133 184t86 213t29 218.5q0 146 -50 294.5t-145.5 270.5t-222.5 193v133q120 -33 224 -127q52 -48 97.5 -101t85.5 -114q83 -127 122.5 -260.5t39.5 -288.5q0 -304 -174 -555q-75 -111 -180.5 -205.5t-214.5 -122.5v133z" />
    <glyph glyph-name="asterisk" unicode="*" horiz-adv-x="871" 
d="M738 1192h-205l108 -180l-94 -57l-111 184l-106 -184l-98 57l110 180h-211v105h211l-110 184l98 57l106 -184l111 184l94 -57l-108 -184h205v-105z" />
    <glyph glyph-name="plus" unicode="+" horiz-adv-x="1241" 
d="M543 1135h156v-436h438v-156h-438v-442h-156v442h-438v156h438v436z" />
    <glyph glyph-name="comma" unicode="," horiz-adv-x="568" 
d="M367 258h151l-180 -395h-151z" />
    <glyph glyph-name="hyphen" unicode="-" horiz-adv-x="680" 
d="M619 684v-137h-555v137h555z" />
    <glyph glyph-name="period" unicode="." horiz-adv-x="568" 
d="M207 258h152v-258h-152v258z" />
    <glyph glyph-name="slash" unicode="/" horiz-adv-x="895" 
d="M674 1514h139l-596 -1776h-135z" />
    <glyph glyph-name="zero" unicode="0" horiz-adv-x="1135" 
d="M62 969q0 125 24 215.5t94 173.5q47 58 109.5 98t134 61t146.5 21q227 0 372 -161q133 -146 133 -408v-393q0 -136 -21 -233t-89 -183q-75 -93 -173.5 -140t-221.5 -47q-240 0 -390 177q-74 89 -96 185.5t-22 240.5v393zM924 934q0 213 -66 309q-43 67 -123.5 108.5
t-164.5 41.5q-90 0 -176.5 -47.5t-129.5 -124.5q-51 -95 -51 -287v-334q0 -110 12 -191.5t54 -144.5q104 -145 291 -145q205 0 303 168q51 87 51 313v334z" />
    <glyph glyph-name="one" unicode="1" horiz-adv-x="1135" 
d="M574 1377h-256v137h407v-1514h-151v1377z" />
    <glyph glyph-name="two" unicode="2" horiz-adv-x="1135" 
d="M68 135l577 557q116 111 178 196t62 189q0 87 -44.5 159t-122 114.5t-165.5 42.5q-85 0 -160 -43t-118 -115.5t-43 -210.5h-152q0 149 62 267t173 182.5t250 64.5q195 0 328 -133q144 -143 144 -325q0 -102 -38 -186t-96 -150.5t-157 -159.5l-469 -447h751v-137h-960v135
z" />
    <glyph glyph-name="three" unicode="3" horiz-adv-x="1135" 
d="M170 1137q0 111 49 203.5t137 145t201 52.5q105 0 191 -51.5t136 -141t50 -194.5q0 -46 -9 -84.5t-29 -72.5q-39 -66 -118 -127q73 -32 132.5 -96.5t90.5 -144t31 -165.5q0 -133 -64.5 -244.5t-177.5 -177.5t-245 -66q-130 0 -239.5 68t-173.5 182.5t-64 249.5h151
q0 -61 13 -107.5t39 -86.5q46 -71 118 -115.5t152 -44.5q93 0 171 45t123.5 124.5t45.5 170.5q0 104 -62.5 192t-162.5 123q-29 10 -58 13.5t-42 4.5t-41 1l-64 2v135l51 -4q77 0 141 25.5t102 79t38 133.5q0 65 -32 118t-86.5 82t-119.5 29q-100 0 -161.5 -75.5
t-61.5 -180.5h-152z" />
    <glyph glyph-name="four" unicode="4" horiz-adv-x="1135" 
d="M791 277h-766v137l733 1100h184v-1100h138v-137h-138v-277h-151v277zM791 1305l-588 -891h588v891z" />
    <glyph glyph-name="five" unicode="5" horiz-adv-x="1135" 
d="M273 1514h684v-137h-561l-76 -418q124 71 256 71q139 0 255 -72t183.5 -194t67.5 -260q0 -141 -66.5 -263t-184.5 -195t-257 -73q-140 0 -254.5 66t-184.5 181.5t-82 254.5h152q0 -44 14 -87.5t40 -88.5q48 -83 128.5 -131.5t177.5 -48.5q103 0 186.5 51.5t131 140
t47.5 189.5t-47 189q-24 46 -55 80.5t-75 61.5q-83 54 -185 54q-88 0 -169.5 -43t-142.5 -117l-121 43z" />
    <glyph glyph-name="six" unicode="6" horiz-adv-x="1135" 
d="M781 1514l-359 -533q77 47 180 47q102 0 190 -44t154 -119.5t102 -169.5t36 -193q0 -98 -39.5 -195.5t-108.5 -173.5q-151 -160 -373 -160q-138 0 -256 72.5t-187 194t-69 260.5q0 94 25 171t55 126q8 14 44 70q33 51 71 110l358 537h177zM203 510q0 -102 47 -192.5
t130 -144.5t185 -54q99 0 184 52t134 139t49 188t-47 189.5t-132.5 142t-187.5 53.5q-99 0 -183 -51q-41 -24 -73 -57.5t-58 -78.5q-48 -86 -48 -186z" />
    <glyph glyph-name="seven" unicode="7" horiz-adv-x="1135" 
d="M844 1377h-713v137h873v-137l-619 -1377h-164z" />
    <glyph glyph-name="eight" unicode="8" horiz-adv-x="1135" 
d="M166 1149q0 112 54 200t147.5 138.5t206.5 50.5q110 0 200 -52.5t142.5 -145t52.5 -201.5q0 -93 -48 -175t-132 -118q117 -52 188.5 -161.5t71.5 -237.5q0 -97 -39 -186q-19 -43 -45.5 -81t-61.5 -70q-69 -66 -157.5 -101.5t-184.5 -35.5q-127 0 -237 63.5t-174 173
t-64 235.5q0 77 32.5 161t90 147.5t133.5 92.5q-85 43 -130.5 124.5t-45.5 178.5zM238 436q0 -86 42.5 -158.5t118.5 -115.5t162 -43q92 0 169.5 43t122 118t44.5 167q0 91 -45.5 163.5t-122.5 113t-166 40.5t-164 -44t-118 -118.5t-43 -165.5zM318 1157q0 -107 73 -177
t181 -70q64 0 120.5 33t90.5 89t34 119q0 100 -72 171t-171 71q-101 0 -178.5 -67t-77.5 -169z" />
    <glyph glyph-name="nine" unicode="9" horiz-adv-x="1135" 
d="M355 0l358 531q-77 -47 -182 -47q-132 0 -241.5 74.5t-174 198t-64.5 253.5q0 100 39.5 198t108.5 171q150 159 373 159q107 0 198.5 -40.5t162.5 -113.5t111 -170t40 -200q0 -95 -25.5 -171.5t-54.5 -126t-115 -179.5l-358 -537h-176zM570 635q103 0 185.5 49.5
t129.5 134.5t47 183q0 39 -6 75t-20 73q-25 70 -76 125q-23 27 -52 48.5t-64 37.5q-67 32 -144 32q-99 0 -184 -52t-134 -140t-49 -185t49.5 -185.5t135.5 -142t182 -53.5z" />
    <glyph glyph-name="colon" unicode=":" horiz-adv-x="568" 
d="M207 258h152v-258h-152v258zM207 1045h152v-258h-152v258z" />
    <glyph glyph-name="semicolon" unicode=";" horiz-adv-x="568" 
d="M264 258h152l-180 -395h-152zM264 1045h152v-258h-152v258z" />
    <glyph glyph-name="less" unicode="&#x3c;" horiz-adv-x="1241" 
d="M1143 226v-150l-1042 475v131l1042 475v-149l-848 -391z" />
    <glyph glyph-name="equal" unicode="=" horiz-adv-x="1241" 
d="M1137 740h-1032v153h1032v-153zM1137 340h-1032v154h1032v-154z" />
    <glyph glyph-name="greater" unicode="&#x3e;" horiz-adv-x="1241" 
d="M946 617l-847 391v149l1042 -475v-131l-1042 -475v150z" />
    <glyph glyph-name="question" unicode="?" horiz-adv-x="1211" 
d="M541 258h151v-258h-151v258zM133 1041v43q0 83 38 169.5t102 147.5q140 137 346 137q126 0 231.5 -59.5t165 -166t59.5 -235.5q0 -105 -47 -177t-142 -164q-46 -45 -81.5 -86t-60.5 -78t-38.5 -81.5t-13.5 -94.5h-151q0 221 213 413q69 64 97 95t50.5 80.5t22.5 109.5
q0 83 -44 151t-119 108q-38 20 -75.5 30t-81.5 10q-86 0 -161 -46t-119.5 -127.5t-44.5 -178.5h-146z" />
    <glyph glyph-name="at" unicode="@" horiz-adv-x="1776" 
d="M1598 361q-65 -118 -170 -204.5t-235.5 -134t-264.5 -47.5q-214 0 -394.5 105t-284 287t-103.5 397q0 211 105 389.5t286.5 282.5t392.5 104q133 0 259.5 -45.5t225.5 -132.5q218 -189 218 -475q0 -207 -121 -377q-44 -62 -99.5 -113.5t-121.5 -81.5t-140 -30
q-56 0 -108 27t-70 81q-45 -48 -112 -76q-35 -14 -66.5 -21t-67.5 -7q-84 0 -149.5 41t-101 113t-35.5 155q0 105 36 214t106 204.5t165 152t205 56.5q75 0 138.5 -36t92.5 -101l31 96h139l-209 -625q-27 -74 -27 -106q0 -25 18.5 -42.5t43.5 -17.5q63 0 132.5 52t115.5 114
q50 73 77 159.5t27 176.5q0 124 -50 225.5t-135 172t-196 109t-227 38.5q-187 0 -341 -93.5t-243.5 -253.5t-89.5 -343q0 -180 92 -337t249 -247t337 -90q107 0 209 34q52 18 98 41.5t92 56.5q87 64 148 151zM994 602q44 86 75 180.5t31 170.5q0 38 -18 73t-51.5 55.5
t-73.5 20.5q-77 0 -144.5 -48t-114.5 -124q-22 -35 -41 -76.5t-33 -86.5q-26 -89 -26 -158q0 -79 43 -134t117 -55q73 0 134.5 53.5t101.5 128.5z" />
    <glyph glyph-name="A" unicode="A" horiz-adv-x="1516" 
d="M676 1514h168l649 -1514h-164l-219 508h-704l-219 -508h-164zM1051 645l-291 695l-295 -695h586z" />
    <glyph glyph-name="B" unicode="B" horiz-adv-x="1176" 
d="M156 1514h354q109 0 192 -15t152 -61q82 -53 130 -140.5t48 -185.5q0 -185 -167 -303q119 -48 184 -149t65 -232q0 -104 -50 -197.5t-136 -148.5q-60 -36 -128 -55q-32 -9 -66.5 -15.5t-60.5 -6.5l-161 -5h-356v1514zM494 137q103 0 181.5 8t137.5 38q64 33 106 102
t42 141q0 95 -50 168t-141 104t-303 31h-160v-592h187zM471 867q105 0 168 7.5t117.5 36.5t89.5 89t35 123q0 62 -33.5 118.5t-87.5 89.5q-47 29 -116.5 37.5t-159.5 8.5h-177v-510h164z" />
    <glyph glyph-name="C" unicode="C" horiz-adv-x="1665" 
d="M1403 1125q-55 84 -141 144q-39 29 -87 52.5t-98.5 39.5t-99.5 24t-102 8q-168 0 -314 -87.5t-232.5 -234t-86.5 -309.5q0 -173 88 -320t237 -235t318 -88q153 0 293.5 75.5t230.5 201.5h168q-64 -124 -172.5 -220t-244 -149.5t-275.5 -53.5q-163 0 -309 60.5t-254.5 167
t-170 253.5t-61.5 308q0 211 105.5 389t286 282.5t391.5 104.5q245 0 436 -127q79 -49 156.5 -129.5t105.5 -156.5h-168z" />
    <glyph glyph-name="D" unicode="D" horiz-adv-x="1524" 
d="M156 1514h407q95 0 171.5 -10t156.5 -31q145 -38 266 -135q84 -69 147.5 -164t95.5 -200q16 -52 25 -106.5t9 -107.5q0 -108 -29 -210t-85 -192q-28 -45 -60 -83.5t-74 -77.5q-126 -114 -272.5 -155.5t-339.5 -41.5h-418v1514zM502 137q121 0 209.5 9t173.5 38.5
t164 92.5q112 88 172.5 215t60.5 268q0 293 -235 479q-111 87 -237.5 112.5t-307.5 25.5h-195v-1240h195z" />
    <glyph glyph-name="E" unicode="E" horiz-adv-x="1098" 
d="M156 1514h827v-137h-676v-545h654v-137h-654v-558h676v-137h-827v1514z" />
    <glyph glyph-name="F" unicode="F" horiz-adv-x="994" 
d="M156 1514h768v-137h-617v-547h594v-138h-594v-692h-151v1514z" />
    <glyph glyph-name="G" unicode="G" horiz-adv-x="1786" 
d="M1702 699q0 -74 -19.5 -142t-58.5 -143q-69 -136 -179.5 -233t-253 -152.5t-290.5 -55.5q-161 0 -307.5 60.5t-261 169.5t-178.5 255.5t-64 305.5q0 149 63 292.5t171 250.5q234 231 577 231q123 0 235 -32t210 -97q80 -52 161 -137q76 -80 103 -162h-172
q-78 131 -226 207q-76 38 -151.5 57t-159.5 19q-126 0 -242.5 -43.5t-208.5 -127t-150 -208t-58 -252.5q0 -137 52 -253t145 -204t214 -137t255 -49q132 0 260.5 56t221.5 157t130 229h-846v138h1028z" />
    <glyph glyph-name="H" unicode="H" horiz-adv-x="1399" 
d="M156 1514h151v-666h785v666h151v-1514h-151v711h-785v-711h-151v1514z" />
    <glyph glyph-name="I" unicode="I" horiz-adv-x="463" 
d="M156 1514h151v-1514h-151v1514z" />
    <glyph glyph-name="J" unicode="J" horiz-adv-x="987" 
d="M832 426l-5 -83q0 -20 -2.5 -37.5t-8 -47t-22.5 -66.5q-8 -17 -19 -33.5t-25 -35.5q-58 -73 -143.5 -111.5t-180.5 -38.5q-107 0 -200 51.5t-146 138.5q-27 45 -42 94t-15 102h149q0 -52 22 -95t62 -78q78 -67 185 -67q73 0 133.5 41t87.5 111q18 59 18 200v1043h152
v-1088z" />
    <glyph glyph-name="K" unicode="K" horiz-adv-x="1211" 
d="M156 1514h151v-871l699 871h192l-598 -738l598 -776h-188l-506 656l-197 -242v-414h-151v1514z" />
    <glyph glyph-name="L" unicode="L" horiz-adv-x="946" 
d="M156 1514h151v-1377h627v-137h-778v1514z" />
    <glyph glyph-name="M" unicode="M" horiz-adv-x="1882" 
d="M156 1514h233l553 -1288l551 1288h234v-1514h-152v1346l-569 -1346h-129l-570 1346v-1346h-151v1514z" />
    <glyph glyph-name="N" unicode="N" horiz-adv-x="1516" 
d="M156 1514h205l848 -1256v1256h151v-1514h-151l-902 1331v-1331h-151v1514z" />
    <glyph glyph-name="O" unicode="O" horiz-adv-x="1780" 
d="M1690 760q0 -214 -109 -396t-294.5 -286.5t-397.5 -104.5q-208 0 -393 104t-295.5 283t-110.5 390q0 213 108 394.5t292.5 286.5t398.5 105q212 0 396 -103.5t294.5 -282.5t110.5 -390zM567 1305q-149 -85 -237 -234t-88 -321t90 -316.5t241 -229.5t318 -85
q129 0 249.5 50.5t209.5 138.5t138.5 205t49.5 247q0 172 -88.5 316t-238.5 230q-74 41 -155 63t-165 22h-11q-167 0 -313 -86z" />
    <glyph glyph-name="P" unicode="P" horiz-adv-x="1213" 
d="M156 1514h397q42 0 74.5 -2t78.5 -4q32 0 60 -5t70 -17q65 -18 123 -54q96 -60 147 -158.5t51 -214.5q0 -224 -172 -350q-79 -58 -172 -78t-221 -20h-285v-611h-151v1514zM568 748q105 0 174.5 11.5t130.5 49.5t97 107.5t36 144.5q0 96 -50 171t-136.5 111t-215.5 36
l-51 -1l-51 -1h-195v-629h261z" />
    <glyph glyph-name="Q" unicode="Q" horiz-adv-x="1784" 
d="M1694 -27h-18q-184 0 -320 130q-92 -63 -213 -96.5t-242 -33.5q-158 0 -305 58.5t-261 163.5t-179.5 248.5t-65.5 302.5q0 225 109 407t296 283.5t410 101.5q225 0 411.5 -102.5t294.5 -285.5t108 -408q0 -154 -67.5 -299.5t-186.5 -255.5q103 -74 196 -74l33 2v-142z
M1159 271q-148 115 -256 155q-171 60 -342 60q-129 0 -233 -43q61 -120 211 -220q158 -104 375 -104q197 0 325 90zM590 627q156 0 286.5 -39.5t244.5 -111.5t239 -185q63 59 109 131t72 155t26 167q0 181 -88.5 330t-241 234t-334.5 85q-176 0 -330 -86t-242.5 -234.5
t-88.5 -328.5q0 -94 24 -172q159 55 324 55z" />
    <glyph glyph-name="R" unicode="R" horiz-adv-x="1243" 
d="M156 1514h360q72 0 131.5 -3t112.5 -10q102 -14 186 -61q114 -66 175 -176.5t61 -243.5q0 -121 -60 -224t-163 -166q-53 -32 -108 -48.5t-116 -16.5l426 -565h-188l-514 686h45q115 0 190 7.5t140 33.5q93 44 144.5 124t51.5 183q0 80 -37.5 153t-103.5 119.5t-144 58.5
t-198 12h-240v-1377h-151v1514z" />
    <glyph glyph-name="S" unicode="S" horiz-adv-x="1020" 
d="M207 424q0 -40 10.5 -77t31.5 -75q41 -69 109.5 -111t151.5 -42q85 0 157.5 39t113.5 106q21 35 32 72.5t11 81.5q0 61 -28 119t-77 96q-23 19 -46.5 33t-53.5 26q-46 19 -133 41q-100 26 -158 49t-109 66q-127 109 -127 283q0 120 57.5 213t156 143.5t216.5 50.5
q113 0 209 -54t151.5 -148t55.5 -207h-157q0 38 -10.5 70t-31.5 66q-36 60 -97.5 94t-137.5 34q-71 0 -131.5 -36.5t-94.5 -96t-34 -131.5q0 -85 41 -136t102 -78q26 -11 67.5 -25t96 -29.5t97.5 -29t71 -24.5q55 -20 115 -74q67 -58 104 -141.5t37 -175.5
q0 -122 -62.5 -222.5t-169.5 -160.5t-229 -60q-128 0 -234 57t-170.5 161.5t-64.5 232.5h162z" />
    <glyph glyph-name="T" unicode="T" horiz-adv-x="873" 
d="M363 1377h-348v137h843v-137h-344v-1377h-151v1377z" />
    <glyph glyph-name="U" unicode="U" horiz-adv-x="1342" 
d="M307 1514v-920q0 -207 70 -317q47 -74 126 -116t169 -42q80 0 156.5 36.5t124 101.5t64.5 149t17 188v920h152v-920q0 -140 -22.5 -240.5t-91 -189.5t-175.5 -140t-225 -51q-115 0 -220.5 47.5t-174.5 133.5q-50 63 -76.5 134t-35.5 144.5t-9 161.5v920h151z" />
    <glyph glyph-name="V" unicode="V" horiz-adv-x="1438" 
d="M21 1514h166l530 -1325l535 1325h165l-628 -1514h-144z" />
    <glyph glyph-name="W" unicode="W" horiz-adv-x="1966" 
d="M21 1514h157l371 -1319l363 1319h143l362 -1317l371 1317h158l-432 -1514h-199l-332 1241l-334 -1241h-198z" />
    <glyph glyph-name="X" unicode="X" horiz-adv-x="1247" 
d="M531 774l-484 740h176l402 -606l399 606h176l-489 -740l520 -774h-178l-428 647l-430 -647h-178z" />
    <glyph glyph-name="Y" unicode="Y" horiz-adv-x="1213" 
d="M531 506l-527 1008h166l436 -850l437 850h166l-527 -1008v-506h-151v506z" />
    <glyph glyph-name="Z" unicode="Z" horiz-adv-x="983" 
d="M35 135l743 1242h-720v137h890v-137l-741 -1240h764v-137h-936v135z" />
    <glyph glyph-name="bracketleft" unicode="[" horiz-adv-x="719" 
d="M641 -260q-154 36 -270 166q-82 91 -111.5 186t-29.5 236v592q0 132 21 217t93 176q56 69 136.5 126t160.5 75v-156q-97 -42 -155 -102.5t-83.5 -144t-25.5 -191.5v-567q0 -120 21 -202t80 -146q55 -61 163 -110v-155z" />
    <glyph glyph-name="backslash" unicode="\" horiz-adv-x="1239" 
d="M172 1514h146l633 -1514h-144z" />
    <glyph glyph-name="bracketright" unicode="]" horiz-adv-x="719" 
d="M78 1514q155 -39 270 -168q85 -94 113.5 -189t28.5 -233v-592q0 -128 -23 -216t-94 -178q-28 -37 -60 -67t-75 -60q-82 -56 -160 -71v155q144 60 204 166.5t60 270.5v565q0 113 -12 177t-61 133q-64 97 -191 151v156z" />
    <glyph glyph-name="asciicircum" unicode="^" horiz-adv-x="1241" 
d="M37 369l522 1145h119l526 -1145h-131l-456 991l-449 -991h-131z" />
    <glyph glyph-name="underscore" unicode="_" horiz-adv-x="1024" 
d="M0 -256v119h1024v-119h-1024z" />
    <glyph glyph-name="grave" unicode="`" horiz-adv-x="774" 
d="M623 1374l-68 -118l-403 217l65 123z" />
    <glyph glyph-name="a" unicode="a" horiz-adv-x="1399" 
d="M1270 0h-145v211q-41 -75 -110 -129.5t-152 -81.5t-173 -27q-129 0 -257.5 58.5t-235.5 179.5q-37 40 -74 140.5t-37 216.5q0 103 40 203.5t77 136.5q221 237 483 237q139 0 258.5 -61.5t180.5 -175.5v213h145v-1121zM238 555q0 -120 62 -219.5t167.5 -158t222.5 -58.5
q114 0 214.5 59t160.5 160t60 215q0 121 -57.5 224.5t-158.5 163t-223 59.5q-120 0 -224 -59.5t-164 -161.5t-60 -224z" />
    <glyph glyph-name="b" unicode="b" horiz-adv-x="1397" 
d="M129 1514h152v-602q52 111 171 172t253 61q161 0 300.5 -75.5t222.5 -210t83 -294.5q0 -110 -40 -212t-93 -160q-109 -123 -217.5 -171.5t-241.5 -48.5q-130 0 -256.5 57.5t-189.5 162.5v-193h-144v1514zM389 865q-118 -118 -118 -314q0 -121 60 -220t163.5 -155.5
t224.5 -56.5q119 0 220.5 59t160.5 162t59 221q0 49 -8 90.5t-27 84.5q-34 79 -95.5 138.5t-144.5 92.5t-175 33q-188 0 -320 -135z" />
    <glyph glyph-name="c" unicode="c" horiz-adv-x="1325" 
d="M1243 328q-38 -84 -91.5 -147.5t-128.5 -112.5q-145 -95 -324 -95q-165 0 -306.5 76t-224 210.5t-82.5 301.5q0 160 84 296t223.5 212t298.5 76q120 0 232 -45t195.5 -127t125.5 -192h-170q-38 66 -96.5 114.5t-133.5 76.5t-150 28q-121 0 -226.5 -56.5t-168 -157
t-62.5 -223.5q0 -120 58 -222.5t161 -162t225 -59.5q128 0 223.5 52t169.5 157h168z" />
    <glyph glyph-name="d" unicode="d" horiz-adv-x="1403" 
d="M1274 0h-143v205q-166 -232 -453 -232q-125 0 -238.5 54.5t-230.5 177.5q-27 23 -55.5 77t-48.5 130q-9 37 -14 74.5t-5 76.5q0 163 81 296t220.5 209.5t300.5 76.5q87 0 169 -24.5t152 -74.5t114 -120v588h151v-1514zM678 1000q-116 0 -218 -58t-162 -159t-60 -218
q0 -121 59.5 -222.5t161.5 -162.5t223 -61q119 0 222 60t163 163.5t60 222.5q0 121 -60 220t-164.5 157t-224.5 58z" />
    <glyph glyph-name="e" unicode="e" horiz-adv-x="1331" 
d="M238 506q0 -50 16.5 -98t48.5 -94q62 -89 158 -142q49 -27 97 -40t102 -13q83 0 163 30q42 16 76 36t67 50q62 54 95 130h158q-39 -111 -122.5 -200.5t-194.5 -140.5t-228 -51q-160 0 -295.5 78.5t-214 212.5t-78.5 295q0 158 78 294t212 214t294 78q130 0 248 -57
t203 -160q72 -90 99 -189q15 -51 23.5 -110.5t8.5 -122.5h-1014zM1100 643q-20 100 -82 180.5t-153 128.5t-193 48q-105 0 -197 -45.5t-155.5 -127.5t-81.5 -184h862z" />
    <glyph glyph-name="f" unicode="f" horiz-adv-x="643" 
d="M207 983h-174v138h174q0 124 50 214t140.5 134.5t208.5 44.5h29v-137h-29q-118 0 -182.5 -58.5t-64.5 -175.5v-22h278v-138h-278v-983h-152v983z" />
    <glyph glyph-name="g" unicode="g" horiz-adv-x="1379" 
d="M1250 160q0 -150 -23 -237t-109 -179q-54 -58 -124 -98.5t-153.5 -62.5t-164.5 -22q-123 0 -238 52.5t-197 145t-114 214.5h148q141 -266 413 -266q112 0 212 50t155 144q31 56 40 113.5t9 145.5v61q-51 -119 -175 -183.5t-263 -64.5q-107 0 -214 43.5t-190 120.5
q-87 84 -131.5 191t-44.5 229q0 105 34.5 205t72.5 141q71 90 146.5 142.5t153.5 76t165 23.5q141 0 262 -62q61 -32 107 -76.5t77 -103.5v218h146v-961zM238 572q0 -123 53.5 -226.5t153 -165t223.5 -61.5q187 0 307 127q39 42 67 93t44 107t16 113q0 125 -59 224.5
t-163.5 158t-225.5 58.5q-112 0 -208 -58.5t-152 -157t-56 -212.5z" />
    <glyph glyph-name="h" unicode="h" horiz-adv-x="1250" 
d="M129 1514h152v-555q28 55 85 101q53 41 119.5 63t135.5 22q40 0 71 -4t70 -16q72 -20 134 -59t108 -93q66 -75 92 -169q11 -43 18 -99.5t7 -114.5v-590h-152v590q0 173 -66 268q-47 68 -125 105t-163 37q-79 0 -154 -37.5t-123 -100.5q-37 -51 -47 -113.5t-10 -158.5
v-590h-152v1514z" />
    <glyph glyph-name="i" unicode="i" horiz-adv-x="410" 
d="M129 1121h152v-1121h-152v1121zM129 1514h152v-258h-152v258z" />
    <glyph glyph-name="j" unicode="j" horiz-adv-x="416" 
d="M287 103q0 -42 -1.5 -75l-3.5 -77q0 -25 -7 -53.5t-20 -62.5q-23 -59 -70 -112q-111 -116 -277 -116v147q97 0 151 52q49 46 62.5 116.5t13.5 180.5v1018h152v-1018zM135 1514h152v-258h-152v258z" />
    <glyph glyph-name="k" unicode="k" horiz-adv-x="1028" 
d="M129 1514h152v-1063l514 670h194l-434 -562l463 -559h-194l-365 443l-178 -230v-213h-152v1514z" />
    <glyph glyph-name="l" unicode="l" horiz-adv-x="410" 
d="M129 1514h152v-1514h-152v1514z" />
    <glyph glyph-name="m" unicode="m" horiz-adv-x="1921" 
d="M129 1121h144v-146q39 83 119 126.5t180 43.5q222 0 362 -170l14 -21l15 -22l10 20l12 23q57 80 155.5 125t199.5 45q178 0 348 -170q60 -60 82 -141t22 -195v-639h-151v625q0 162 -56 242q-95 133 -254 133q-71 0 -137.5 -34t-109.5 -93q-30 -45 -38.5 -105.5
t-8.5 -142.5v-625h-152v641q0 77 -10 123q-9 49 -43 101q-43 61 -111 98t-141 37t-137.5 -30t-108.5 -89q-16 -23 -27.5 -49.5t-16.5 -54.5q-9 -54 -9 -136v-641h-152v1121z" />
    <glyph glyph-name="n" unicode="n" horiz-adv-x="1250" 
d="M129 1121h144v-162q132 186 348 186q113 0 218.5 -48t178.5 -138q60 -75 81 -163q10 -42 16 -94.5t6 -111.5v-590h-152v590q0 82 -13 147.5t-53 118.5q-48 69 -124.5 106.5t-163.5 37.5q-80 0 -154 -36t-121 -102q-39 -51 -46.5 -98.5t-10 -84.5t-2.5 -89v-590h-152v1121
z" />
    <glyph glyph-name="o" unicode="o" horiz-adv-x="1342" 
d="M1256 568q0 -157 -78 -294.5t-213 -219t-291 -81.5q-154 0 -290 78t-217 212t-81 290q0 159 78 296t214 216.5t296 79.5q114 0 219.5 -45t188 -126.5t128.5 -187.5t46 -218zM238 553q0 -119 59 -218.5t160 -157.5t217 -58q122 0 221.5 61t154 164t54.5 224
q0 184 -131 309q-62 59 -139 91t-160 32q-120 0 -221.5 -61t-158 -163.5t-56.5 -222.5z" />
    <glyph glyph-name="p" unicode="p" horiz-adv-x="1397" 
d="M273 1121v-193q40 69 115 119t160 73q44 13 85.5 19t85.5 6q255 0 459 -217q16 -14 32.5 -36.5t31.5 -51t27.5 -61.5t22.5 -71q19 -76 19 -153q0 -160 -82.5 -294t-223 -211t-300.5 -77q-130 0 -251 62t-173 174v-602h-152v1514h144zM1159 557q0 122 -58.5 222.5
t-160.5 160.5t-221 60q-120 0 -223 -55t-164 -155t-61 -220q0 -196 118 -314q131 -137 320 -137q122 0 226.5 57.5t164 157.5t59.5 223z" />
    <glyph glyph-name="q" unicode="q" horiz-adv-x="1397" 
d="M1268 -393h-152v602q-53 -111 -173 -173.5t-251 -62.5q-162 0 -301 76t-222 210t-83 296q0 115 39.5 218.5t91.5 154.5q186 217 461 217q85 0 170 -25q45 -12 84 -29.5t77 -44.5q75 -50 116 -118v193h143v-1514zM1010 256q117 120 117 314q0 121 -60 219t-163.5 154.5
t-225.5 56.5q-119 0 -220 -58.5t-160.5 -161t-59.5 -223.5q0 -122 60 -222.5t164 -158t226 -57.5q190 0 322 137z" />
    <glyph glyph-name="r" unicode="r" horiz-adv-x="617" 
d="M129 1121h144v-162q41 92 121.5 139t203.5 47v-149q-59 0 -108 -20t-94 -58q-73 -61 -94 -122t-21 -169v-627h-152v1121z" />
    <glyph glyph-name="s" unicode="s" horiz-adv-x="795" 
d="M189 330q0 -59 26.5 -106t73.5 -76t102 -29q84 0 140.5 52.5t56.5 133.5q0 92 -58 140t-159 75q-78 25 -125 45q-24 11 -41.5 23t-36.5 31q-90 80 -90 213q0 86 43.5 158.5t118 113.5t162.5 41q81 0 153 -41t114 -112t42 -150h-152q0 72 -49 115t-125 43
q-64 0 -109.5 -45.5t-45.5 -110.5q0 -58 26.5 -92.5t66.5 -55.5q40 -19 103 -38q99 -31 165 -68t107.5 -101t41.5 -159q0 -102 -47 -184t-129.5 -127.5t-186.5 -45.5q-91 0 -169.5 47.5t-124.5 130t-46 179.5h152z" />
    <glyph glyph-name="t" unicode="t" horiz-adv-x="695" 
d="M258 983h-233v138h233v393h152v-393h260v-138h-260v-983h-152v983z" />
    <glyph glyph-name="u" unicode="u" horiz-adv-x="1245" 
d="M1116 0h-143v174q-19 -37 -40 -63.5t-52 -50.5q-55 -43 -127 -65t-152 -22q-73 0 -139.5 20t-128.5 64t-125 117q-45 50 -62.5 139.5t-17.5 215.5v592h152v-592q0 -79 9 -138.5t40 -109.5q45 -78 122 -120t171 -42q81 0 153 35.5t121 101.5q68 95 68 273v592h151v-1121z
" />
    <glyph glyph-name="v" unicode="v" horiz-adv-x="1135" 
d="M17 1121h163l388 -928l387 928h163l-473 -1121h-157z" />
    <glyph glyph-name="w" unicode="w" horiz-adv-x="1702" 
d="M15 1121h159l353 -938l260 800h125l258 -800l358 938h160l-426 -1121h-174l-240 744l-235 -744h-174z" />
    <glyph glyph-name="x" unicode="x" horiz-adv-x="983" 
d="M400 570l-383 551h178l297 -433l297 433h178l-385 -551l385 -570h-178l-297 449l-297 -449h-178z" />
    <glyph glyph-name="y" unicode="y" horiz-adv-x="1098" 
d="M1080 1121l-648 -1514h-159l176 428l-430 1086h161l359 -893l379 893h162z" />
    <glyph glyph-name="z" unicode="z" horiz-adv-x="871" 
d="M21 133l606 850h-586v138h770v-138l-602 -846h641v-137h-829v133z" />
    <glyph glyph-name="braceleft" unicode="{" horiz-adv-x="719" 
d="M244 1204q0 115 25.5 181.5t94.5 97.5t191 31q-88 -27 -127 -84q-37 -59 -37 -152v-364q0 -124 -36 -192t-148 -95q106 -21 145 -83t39 -177v-392q0 -66 15 -111q13 -44 48.5 -74t100.5 -50q-85 0 -135 9q-25 5 -49.5 15.5t-48.5 28.5q-48 36 -63 90t-15 132v389
q0 60 -6.5 89.5t-36.5 67.5q-24 27 -56 44t-69 22q65 18 109 51q40 33 49.5 74.5t9.5 105.5v346z" />
    <glyph glyph-name="bar" unicode="|" horiz-adv-x="1377" 
d="M623 1514h131v-1514h-131v1514z" />
    <glyph glyph-name="braceright" unicode="}" horiz-adv-x="719" 
d="M236 1278q0 96 -36 151.5t-122 84.5q123 0 189 -31.5t91 -97t25 -181.5v-346q0 -69 10.5 -108t52 -73t105.5 -50q-72 -9 -123 -66q-15 -17 -24 -34t-13 -33q-8 -34 -8 -90v-389q0 -42 -3 -73t-11 -60q-14 -54 -62.5 -89t-97 -44t-131.5 -9q90 28 124 82t34 153v392
q0 117 38 177.5t146 82.5q-76 18 -116 56.5t-54 92t-14 138.5v364z" />
    <glyph glyph-name="asciitilde" unicode="~" horiz-adv-x="1241" 
d="M1137 705q-126 -228 -291 -228q-26 0 -62 10q-40 9 -64 19l-82 34l-68 28q-122 51 -172 51q-70 0 -112.5 -45.5t-96.5 -139.5l-84 99q61 111 128 176t165 65q48 0 106.5 -18.5t145.5 -57.5l128 -54q37 -13 70 -13q113 0 203 170z" />
    <glyph glyph-name="nonbreakingspace" unicode="&#xa0;" horiz-adv-x="250" 
 />
    <glyph glyph-name="sterling" unicode="&#xa3;" horiz-adv-x="0" 
 />
    <glyph glyph-name="currency" unicode="&#xa4;" horiz-adv-x="1135" 
d="M152 312q-99 144 -99 303q0 169 99 309l-88 88l106 109l90 -89q134 101 316 101q151 0 299 -101l90 89l106 -109l-88 -88q99 -141 99 -320q0 -82 -24 -150t-75 -142l88 -86l-106 -109l-90 88q-138 -102 -318 -102q-151 0 -297 102l-90 -88l-106 109zM576 985
q-105 0 -191 -48t-135 -132t-49 -190q0 -73 28.5 -139.5t78 -116t117 -79.5t138.5 -30q101 0 187 50t135 134.5t49 186.5q0 96 -47.5 179t-130.5 134t-180 51z" />
    <glyph glyph-name="yen" unicode="&#xa5;" 
 />
    <glyph glyph-name="brokenbar" unicode="&#xa6;" 
 />
    <glyph glyph-name="section" unicode="&#xa7;" horiz-adv-x="1260" 
d="M844 1241q0 69 -70.5 110.5t-146.5 41.5q-57 0 -104 -22t-74 -65t-27 -102q0 -63 37 -104t106 -76l259 -129q81 -40 133.5 -76t89.5 -91q17 -26 27 -60t10 -70q0 -82 -46 -166.5t-120 -130.5q50 -39 78 -99t28 -122q0 -109 -52.5 -192.5t-141.5 -128t-197 -44.5
q-116 0 -210.5 55.5t-149.5 150.5q-27 48 -42.5 103t-15.5 109h144q0 -56 20.5 -104.5t59.5 -89.5q77 -79 194 -79q110 0 178 57.5t68 158.5q0 77 -56 122.5t-155 94.5l-332 172q-158 81 -158 227q0 188 181 314q-36 33 -59 90.5t-23 112.5q0 94 46 168.5t126 117.5t174 43
q86 0 169.5 -36.5t138.5 -104.5q27 -34 41.5 -73.5t14.5 -82.5h-143zM819 373q47 25 83 84t36 113q0 73 -37.5 111t-117.5 79l-336 170q-55 -32 -89 -90.5t-34 -122.5q0 -58 34.5 -94.5t98.5 -69.5z" />
    <glyph glyph-name="dieresis" unicode="&#xa8;" horiz-adv-x="1098" 
d="M475 1907v-258h-151v258h151zM776 1907v-258h-151v258h151zM156 1514h827v-137h-676v-545h654v-137h-654v-558h676v-137h-827v1514z" />
    <glyph glyph-name="copyright" unicode="&#xa9;" horiz-adv-x="1530" 
d="M-19 758q0 208 105 389t286 286t394 105q211 0 390.5 -104t284.5 -285t105 -391q0 -211 -104 -392t-284.5 -287t-391.5 -106t-391.5 105.5t-287 287t-106.5 392.5zM1452 758q0 186 -91 343t-250.5 250t-344.5 93q-188 0 -345.5 -92t-250 -250.5t-92.5 -343.5
q0 -186 93 -346t251.5 -252t343.5 -92q186 0 344 92.5t250 252t92 345.5zM1164 615q-10 -90 -61 -159t-130.5 -106.5t-171.5 -37.5q-131 0 -229 59t-151.5 163t-53.5 230q0 198 115.5 323.5t312.5 125.5q144 0 244.5 -78.5t124.5 -216.5h-113q-17 92 -88 147.5t-166 55.5
q-100 0 -170.5 -46.5t-107.5 -128t-37 -180.5q0 -48 9 -92t29 -86q37 -82 109.5 -132t171.5 -50q94 0 166 58t84 151h113z" />
    <glyph glyph-name="ordfeminine" unicode="&#xaa;" 
 />
    <glyph glyph-name="guillemotleft" unicode="&#xab;" horiz-adv-x="871" 
d="M82 617l232 407l118 -63l-192 -344l192 -344l-118 -66zM436 617l232 407l121 -63l-193 -344l193 -344l-121 -66z" />
    <glyph glyph-name="logicalnot" unicode="&#xac;" horiz-adv-x="1241" 
d="M981 738h-876v155h1032v-553h-156v398z" />
    <glyph glyph-name="minus" unicode="&#xad;" horiz-adv-x="994" 
d="M842 1393v-137h-690v137h690z" />
    <glyph glyph-name="registered" unicode="&#xae;" horiz-adv-x="1530" 
d="M-19 758q0 208 105 389t286 286t394 105q211 0 390.5 -104t284.5 -285t105 -391q0 -211 -104 -392t-284.5 -287t-391.5 -106t-391.5 105.5t-287 287t-106.5 392.5zM1452 758q0 186 -91 343t-250.5 250t-344.5 93q-188 0 -345.5 -92t-250 -250.5t-92.5 -343.5
q0 -186 93 -346t251.5 -252t343.5 -92q186 0 344 92.5t250 252t92 345.5zM1155 320h-127l-250 403h-196v-403h-107v874h381q142 0 213 -43q47 -25 73 -77.5t26 -110.5q0 -122 -76 -180q-38 -29 -88.5 -44.5t-112.5 -15.5zM746 807h73q111 0 175.5 30t64.5 128
q0 91 -62.5 121t-164.5 30h-250v-309h164z" />
    <glyph glyph-name="macron" unicode="&#xaf;" horiz-adv-x="0" 
 />
    <glyph glyph-name="degree" unicode="&#xb0;" horiz-adv-x="819" 
d="M410 899q-84 0 -154 41.5t-111.5 112t-41.5 154.5q0 83 40.5 153t112 112t154.5 42q81 0 151.5 -41t113 -113t42.5 -153q0 -82 -41 -153t-112.5 -113t-153.5 -42zM408 1432q-92 0 -157.5 -67t-65.5 -158q0 -95 65.5 -160.5t159.5 -65.5q61 0 111.5 29.5t82 81.5t31.5 115
q0 58 -29.5 110t-84 83.5t-113.5 31.5z" />
    <glyph glyph-name="plusminus" unicode="&#xb1;" horiz-adv-x="1241" 
d="M543 1135h156v-332h438v-156h-438v-335h-156v335h-438v156h438v332zM105 156h1032v-156h-1032v156z" />
    <glyph glyph-name="twosuperior" unicode="&#xb2;" horiz-adv-x="0" 
 />
    <glyph glyph-name="threesuperior" unicode="&#xb3;" horiz-adv-x="0" 
 />
    <glyph glyph-name="acute" unicode="&#xb4;" 
 />
    <glyph glyph-name="mu" unicode="&#xb5;" horiz-adv-x="1245" 
d="M965 1121h151v-1121h-143v174h-4q-18 -36 -39.5 -63.5t-50.5 -50.5q-52 -43 -124.5 -65t-152.5 -22q-182 0 -321 128v-494h-152v1514h152v-592q0 -79 9 -138.5t40 -109.5q45 -78 122 -120t171 -42q81 0 153 35.5t121 101.5q68 95 68 273v592z" />
    <glyph glyph-name="paragraph" unicode="&#xb6;" horiz-adv-x="1155" 
d="M469 727q-101 0 -192.5 53.5t-146 143.5t-54.5 192q0 84 34.5 164t98 138t136.5 76q34 9 85.5 14.5t102.5 5.5h473v-1774h-152v1637h-233v-1637h-152v987z" />
    <glyph glyph-name="periodcentered" unicode="&#xb7;" horiz-adv-x="568" 
d="M207 746h152v-258h-152v258z" />
    <glyph glyph-name="periodcentered" unicode="&#x2219;" horiz-adv-x="568" 
d="M207 746h152v-258h-152v258z" />
    <glyph glyph-name="cedilla" unicode="&#xb8;" horiz-adv-x="1331" 
d="M592 1514v-258h-151v258h151zM893 1514v-258h-151v258h151zM238 506q0 -50 16.5 -98t48.5 -94q62 -89 158 -142q49 -27 97 -40t102 -13q83 0 163 30q42 16 76 36t67 50q62 54 95 130h158q-39 -111 -122.5 -200.5t-194.5 -140.5t-228 -51q-160 0 -295.5 78.5t-214 212.5
t-78.5 295q0 158 78 294t212 214t294 78q130 0 248 -57t203 -160q72 -90 99 -189q15 -51 23.5 -110.5t8.5 -122.5h-1014zM1100 643q-20 100 -82 180.5t-153 128.5t-193 48q-105 0 -197 -45.5t-155.5 -127.5t-81.5 -184h862z" />
    <glyph glyph-name="onesuperior" unicode="&#xb9;" horiz-adv-x="756" 
d="M690 1223q0 -82 -42 -152.5t-115 -113.5t-154 -43q-84 0 -156 41.5t-114.5 112.5t-42.5 155q0 86 41.5 158.5t113.5 114.5t158 42q83 0 155.5 -43t114 -116t41.5 -156zM690 756v-90h-624v90h624zM596 1227q0 94 -61.5 157.5t-155.5 63.5q-93 0 -156 -64.5t-63 -156.5
t63 -157.5t156 -65.5q94 0 155.5 65t61.5 158z" />
    <glyph glyph-name="ordmasculine" unicode="&#xba;" 
 />
    <glyph glyph-name="guillemotright" unicode="&#xbb;" horiz-adv-x="871" 
d="M436 273l193 344l-193 344l121 63l232 -407l-232 -410zM82 273l193 344l-193 344l119 63l231 -407l-231 -410z" />
    <glyph glyph-name="onequarter" unicode="&#xbc;" horiz-adv-x="0" 
 />
    <glyph glyph-name="onehalf" unicode="&#xbd;" horiz-adv-x="0" 
 />
    <glyph glyph-name="threequarters" unicode="&#xbe;" horiz-adv-x="0" 
 />
    <glyph glyph-name="questiondown" unicode="&#xbf;" horiz-adv-x="0" 
 />
    <glyph glyph-name="Agrave" unicode="&#xc0;" horiz-adv-x="1516" 
d="M676 1514h168l649 -1514h-164l-219 508h-704l-219 -508h-164zM1051 645l-291 695l-295 -695h586z" />
    <glyph glyph-name="Aacute" unicode="&#xc1;" horiz-adv-x="1213" 
d="M1004 1514v-137h-697v-474h285q129 0 221 -19.5t172 -78.5q172 -124 172 -350q0 -115 -50.5 -213t-147.5 -160q-57 -36 -123 -54q-42 -11 -71 -16.5t-59 -5.5q-34 0 -52 -1q-92 -5 -101 -5h-397v1514h848zM568 766h-261v-629h195l51 -1l51 -1q129 0 215 35.5t136.5 110
t50.5 172.5q0 76 -34 143t-99 109q-61 38 -134.5 49.5t-170.5 11.5z" />
    <glyph glyph-name="Acircumflex" unicode="&#xc2;" horiz-adv-x="1176" 
d="M156 1514h354q109 0 192 -15t152 -61q82 -53 130 -140.5t48 -185.5q0 -185 -167 -303q119 -48 184 -149t65 -232q0 -104 -50 -197.5t-136 -148.5q-60 -36 -128 -55q-32 -9 -66.5 -15.5t-60.5 -6.5l-161 -5h-356v1514zM494 137q103 0 181.5 8t137.5 38q64 33 106 102
t42 141q0 95 -50 168t-141 104t-303 31h-160v-592h187zM471 867q105 0 168 7.5t117.5 36.5t89.5 89t35 123q0 62 -33.5 118.5t-87.5 89.5q-47 29 -116.5 37.5t-159.5 8.5h-177v-510h164z" />
    <glyph glyph-name="Atilde" unicode="&#xc3;" horiz-adv-x="938" 
d="M156 1514h768v-137h-617v-1377h-151v1514z" />
    <glyph glyph-name="Adieresis" unicode="&#xc4;" horiz-adv-x="1346" 
d="M80 137l391 1377h719v-1377h103v-137h-1293v137h80zM1039 137v1240h-455l-344 -1240h799z" />
    <glyph glyph-name="Aring" unicode="&#xc5;" horiz-adv-x="1098" 
d="M156 1514h827v-137h-676v-545h654v-137h-654v-558h676v-137h-827v1514z" />
    <glyph glyph-name="AE" unicode="&#xc6;" horiz-adv-x="1671" 
d="M760 723l-559 -723h-188l598 776l-598 738h192l111 -137l171 -213l184 -230l89 -113v693h152v-690l555 690h192l-598 -738l598 -776h-188l-559 723v-723h-152v723z" />
    <glyph glyph-name="Ccedilla" unicode="&#xc7;" horiz-adv-x="1102" 
d="M353 725v140h182q80 0 145.5 29.5t105.5 90.5t40 144q0 69 -34.5 130.5t-94.5 97.5t-132 36q-76 0 -136.5 -33.5t-97.5 -94.5q-20 -34 -31 -66.5t-11 -69.5h-158q0 112 55.5 206.5t151.5 148.5t209 54q118 0 216.5 -51t156 -144t57.5 -212q0 -174 -127 -283
q-26 -24 -74 -49q57 -25 99 -66q67 -58 104 -141.5t37 -175.5q0 -122 -62.5 -222.5t-169.5 -160.5t-229 -60q-128 0 -234 57t-170.5 161.5t-64.5 232.5h162q0 -40 10.5 -77t31.5 -75q41 -69 109.5 -111t151.5 -42q85 0 157.5 39t113.5 106q21 35 32 72.5t11 81.5
q0 82 -42 153.5t-113 112.5t-155 41h-202z" />
    <glyph glyph-name="Egrave" unicode="&#xc8;" horiz-adv-x="1475" 
d="M1319 1514v-1514h-151v1331l-859 -1331h-153v1514h151v-1256l805 1256h207z" />
    <glyph glyph-name="Eacute" unicode="&#xc9;" horiz-adv-x="1475" 
d="M1319 1514v-1514h-151v1331l-859 -1331h-153v1514h151v-1256l805 1256h207zM555 1839q22 -45 73 -69.5t110 -24.5q56 0 108 24t74 70h129q-27 -104 -113 -157.5t-198 -53.5t-198.5 53.5t-113.5 157.5h129z" />
    <glyph glyph-name="Ecircumflex" unicode="&#xca;" horiz-adv-x="1211" 
d="M156 1514h151v-871l699 871h192l-598 -738l598 -776h-188l-506 656l-197 -242v-414h-151v1514z" />
    <glyph glyph-name="Edieresis" unicode="&#xcb;" horiz-adv-x="1346" 
d="M1190 1514v-1514h-151v1377h-476l-383 -1377h-159l430 1514h739z" />
    <glyph glyph-name="Igrave" unicode="&#xcc;" horiz-adv-x="1882" 
d="M156 1514h233l553 -1288l551 1288h234v-1514h-152v1346l-569 -1346h-129l-570 1346v-1346h-151v1514z" />
    <glyph glyph-name="Iacute" unicode="&#xcd;" horiz-adv-x="1399" 
d="M156 1514h151v-666h785v666h151v-1514h-151v711h-785v-711h-151v1514z" />
    <glyph glyph-name="Icircumflex" unicode="&#xce;" horiz-adv-x="1780" 
d="M1690 760q0 -214 -109 -396t-294.5 -286.5t-397.5 -104.5q-208 0 -393 104t-295.5 283t-110.5 390q0 213 108 394.5t292.5 286.5t398.5 105q212 0 396 -103.5t294.5 -282.5t110.5 -390zM242 750q0 -172 90 -316.5t241 -229.5t318 -85q129 0 249.5 50.5t209.5 138.5
t138.5 205t49.5 247q0 172 -88.5 316.5t-240 229.5t-318.5 85q-129 0 -248.5 -49t-209.5 -138t-140.5 -207t-50.5 -247z" />
    <glyph glyph-name="Idieresis" unicode="&#xcf;" horiz-adv-x="1399" 
d="M156 1514h1087v-1514h-151v1377h-785v-1377h-151v1514z" />
    <glyph glyph-name="Eth" unicode="&#xd0;" horiz-adv-x="1213" 
d="M156 1514h397q42 0 74.5 -2t78.5 -4q32 0 60 -5t70 -17q65 -18 123 -54q96 -60 147 -158.5t51 -214.5q0 -224 -172 -350q-79 -58 -172 -78t-221 -20h-285v-611h-151v1514zM568 748q105 0 174.5 11.5t130.5 49.5t97 107.5t36 144.5q0 96 -50 171t-136.5 111t-215.5 36
l-51 -1l-51 -1h-195v-629h261z" />
    <glyph glyph-name="Ntilde" unicode="&#xd1;" horiz-adv-x="1665" 
d="M1403 1125q-55 84 -141 144q-39 29 -87 52.5t-98.5 39.5t-99.5 24t-102 8q-168 0 -314 -87.5t-232.5 -234t-86.5 -309.5q0 -173 88 -320t237 -235t318 -88q153 0 293.5 75.5t230.5 201.5h168q-64 -124 -172.5 -220t-244 -149.5t-275.5 -53.5q-163 0 -309 60.5t-254.5 167
t-170 253.5t-61.5 308q0 211 105.5 389t286 282.5t391.5 104.5q245 0 436 -127q79 -49 156.5 -129.5t105.5 -156.5h-168z" />
    <glyph glyph-name="Ograve" unicode="&#xd2;" horiz-adv-x="873" 
d="M361 1377h-346v137h843v-137h-346v-1377h-151v1377z" />
    <glyph glyph-name="Oacute" unicode="&#xd3;" horiz-adv-x="1393" 
d="M664 215l-660 1299h166l568 -1121l471 1121h168l-656 -1514h-153z" />
    <glyph glyph-name="Ocircumflex" unicode="&#xd4;" horiz-adv-x="1934" 
d="M1045 -27h-156q-208 0 -393 104t-295.5 283t-110.5 390q0 213 108 394.5t292.5 286.5t398.5 105h156q213 0 397.5 -104t292.5 -286t108 -396q0 -158 -64 -301q-31 -71 -75 -133.5t-101 -115.5q-112 -107 -257.5 -167t-300.5 -60zM1043 1391v-1272q168 0 318.5 84.5
t240.5 229.5t90 317q0 130 -51 248t-140.5 205.5t-208 137.5t-249.5 50zM891 1391q-129 0 -248.5 -49t-209.5 -138t-140.5 -207t-50.5 -247q0 -172 90 -316.5t241 -229.5t318 -85v1272z" />
    <glyph glyph-name="Otilde" unicode="&#xd5;" horiz-adv-x="1247" 
d="M531 774l-484 740h176l402 -606l399 606h176l-489 -740l520 -774h-178l-428 647l-430 -647h-178z" />
    <glyph glyph-name="Odieresis" unicode="&#xd6;" horiz-adv-x="1399" 
d="M156 0v1514h151v-1377h785v1377h151v-1377h103v-137h-1190z" />
    <glyph glyph-name="multiply" unicode="&#xd7;" horiz-adv-x="1284" 
d="M101 1514h151v-563q0 -78 36.5 -135.5t100 -88t140.5 -30.5q247 0 450 155v662h152v-1514h-152v707q-236 -154 -481 -154q-78 0 -149.5 25.5t-128 76.5t-88 120t-31.5 155v584z" />
    <glyph glyph-name="Oslash" unicode="&#xd8;" horiz-adv-x="1889" 
d="M156 0v1514h151v-1377h562v1377h151v-1377h561v1377h152v-1514h-1577z" />
    <glyph glyph-name="Ugrave" unicode="&#xd9;" horiz-adv-x="1889" 
d="M156 0v1514h151v-1377h562v1377h151v-1377h561v1377h152v-1377h102v-137h-1679z" />
    <glyph glyph-name="Uacute" unicode="&#xda;" horiz-adv-x="1342" 
d="M285 1377h-270v137h421v-611h285q129 0 221 -19.5t172 -78.5q172 -124 172 -350q0 -115 -50.5 -213t-147.5 -160q-57 -36 -123 -54q-42 -11 -71 -16.5t-59 -5.5q-34 0 -52 -1q-92 -5 -101 -5h-397v1377zM697 766h-261v-629h195l51 -1l51 -1q129 0 215 35.5t136.5 110
t50.5 172.5q0 76 -34 143t-99 109q-61 38 -134.5 49.5t-170.5 11.5z" />
    <glyph glyph-name="Ucircumflex" unicode="&#xdb;" horiz-adv-x="1676" 
d="M156 0v1514h151v-611h285q129 0 221 -19.5t172 -78.5q172 -124 172 -350q0 -115 -50.5 -213t-147.5 -160q-57 -36 -123 -54q-42 -11 -71 -16.5t-59 -5.5q-34 0 -52 -1q-92 -5 -101 -5h-397zM1368 1514h152v-1514h-152v1514zM568 766h-261v-629h195l51 -1l51 -1
q129 0 215 35.5t136.5 110t50.5 172.5q0 76 -34 143t-99 109q-61 38 -134.5 49.5t-170.5 11.5z" />
    <glyph glyph-name="Udieresis" unicode="&#xdc;" horiz-adv-x="1213" 
d="M156 0v1514h151v-611h285q129 0 221 -19.5t172 -78.5q172 -124 172 -350q0 -115 -50.5 -213t-147.5 -160q-57 -36 -123 -54q-42 -11 -71 -16.5t-59 -5.5q-34 0 -52 -1q-92 -5 -101 -5h-397zM568 766h-261v-629h195l51 -1l51 -1q129 0 215 35.5t136.5 110t50.5 172.5
q0 76 -34 143t-99 109q-61 38 -134.5 49.5t-170.5 11.5z" />
    <glyph glyph-name="Yacute" unicode="&#xdd;" horiz-adv-x="1665" 
d="M1417 848q-23 147 -112.5 271.5t-225.5 199t-288 74.5q-101 0 -201.5 -31t-185 -91t-142.5 -146h-168q28 75 105 155q72 76 158 131q190 127 436 127q213 0 392 -103.5t284.5 -283t105.5 -389.5q0 -165 -60.5 -310t-170.5 -252t-254.5 -167t-308.5 -60
q-108 0 -211.5 30.5t-193.5 86.5t-164 133.5t-124 172.5h168q90 -126 232 -201.5t293 -75.5q161 0 304 79.5t232.5 214.5t104.5 298h-951v137h946z" />
    <glyph glyph-name="Thorn" unicode="&#xde;" horiz-adv-x="2157" 
d="M467 711h-160v-711h-151v1514h151v-666h166q18 145 86 271t176 220q56 48 114.5 83.5t127.5 61.5t141.5 39t147.5 13q212 0 396 -103.5t294.5 -282.5t110.5 -390q0 -214 -109 -396t-294.5 -286.5t-397.5 -104.5q-202 0 -383 98t-293 268q-59 90 -89 177q-34 98 -34 195z
M943 1305q-148 -85 -236 -234t-88 -321t89 -316t240.5 -229.5t319.5 -85.5q129 0 248.5 49.5t210 138.5t139.5 206t49 247q0 172 -88.5 316t-239.5 229.5t-319 85.5h-11q-166 0 -314 -86z" />
    <glyph glyph-name="germandbls" unicode="&#xdf;" horiz-adv-x="1243" 
d="M1088 1514v-1514h-152v1377h-239q-120 0 -198 -12t-144 -59t-104 -120.5t-38 -151.5q0 -103 51.5 -183.5t145.5 -123.5q62 -25 142 -34q10 0 109 -5q39 -2 79 -2h45l-514 -686h-189l426 565q-59 0 -115 16.5t-109 48.5q-101 61 -161.5 165t-60.5 225q0 134 60 244
t175 176q85 48 190 61t240 13h361z" />
    <glyph glyph-name="agrave" unicode="&#xe0;" horiz-adv-x="1399" 
d="M1270 0h-145v211q-41 -75 -110 -129.5t-152 -81.5t-173 -27q-129 0 -257.5 58.5t-235.5 179.5q-37 40 -74 140.5t-37 216.5q0 103 40 203.5t77 136.5q221 237 483 237q139 0 258.5 -61.5t180.5 -175.5v213h145v-1121zM238 555q0 -120 62 -219.5t167.5 -158t222.5 -58.5
q114 0 214.5 59t160.5 160t60 215q0 121 -57.5 224.5t-158.5 163t-223 59.5q-120 0 -224 -59.5t-164 -161.5t-60 -224z" />
    <glyph glyph-name="aacute" unicode="&#xe1;" horiz-adv-x="1342" 
d="M312 1352q70 70 159.5 110.5t182.5 64.5l192 51q100 27 148 63q69 53 69 92l107 -76q0 -54 -78 -125q-51 -45 -127 -74.5t-210 -67.5q-68 -19 -118.5 -35.5t-89.5 -32.5q-78 -32 -127 -81q-32 -32 -58.5 -68.5t-48.5 -78.5q-40 -80 -55 -148q66 89 172 144t250 55
q114 0 219.5 -45t188 -126.5t128.5 -187.5t46 -218q0 -157 -78 -294.5t-213 -219t-291 -81.5q-154 0 -290 78t-217 212t-81 290q0 46 2 87q6 123 6 135q0 56 14 131q6 30 17 82q23 110 67 202t114 162zM244 553q0 -119 58.5 -217t160 -157.5t217.5 -59.5q123 0 221 60
t153.5 164t55.5 225q0 184 -131 309q-62 59 -139 91t-160 32q-120 0 -221.5 -61t-158 -163.5t-56.5 -222.5z" />
    <glyph glyph-name="acircumflex" unicode="&#xe2;" horiz-adv-x="934" 
d="M129 1121h275q166 0 254 -58q65 -42 100 -107q17 -32 27 -68.5t10 -74.5q0 -126 -100 -211q76 -39 117.5 -113t41.5 -163q0 -83 -38 -153t-105 -111q-51 -30 -96 -41.5t-95 -16.5l-116 -4h-275v1121zM611 168q38 21 65 65.5t27 90.5q0 61 -31.5 109t-92 67.5t-206.5 19.5
h-94v-380h112q161 0 220 28zM570 688q33 17 55 55.5t22 77.5q0 37 -21 75t-54 59q-52 26 -187 26h-106v-321h96q142 0 195 28z" />
    <glyph glyph-name="atilde" unicode="&#xe3;" horiz-adv-x="885" 
d="M131 1121h699v-136h-549v-985h-150v1121z" />
    <glyph glyph-name="adieresis" unicode="&#xe4;" horiz-adv-x="1008" 
d="M320 1121h549v-981h73v-140h-963v140h62zM721 981h-289l-75 -269l-115 -415l-45 -157h524v841z" />
    <glyph glyph-name="aring" unicode="&#xe5;" horiz-adv-x="1331" 
d="M238 506q0 -50 16.5 -98t48.5 -94q62 -89 158 -142q49 -27 97 -40t102 -13q83 0 163 30q42 16 76 36t67 50q62 54 95 130h158q-39 -111 -122.5 -200.5t-194.5 -140.5t-228 -51q-160 0 -295.5 78.5t-214 212.5t-78.5 295q0 158 78 294t212 214t294 78q130 0 248 -57
t203 -160q72 -90 99 -189q15 -51 23.5 -110.5t8.5 -122.5h-1014zM1100 643q-20 100 -82 180.5t-153 128.5t-193 48q-105 0 -197 -45.5t-155.5 -127.5t-81.5 -184h862z" />
    <glyph glyph-name="ae" unicode="&#xe6;" horiz-adv-x="1409" 
d="M781 602l98 130l176 231l121 158h194l-434 -562l463 -559h-195l-423 510v-510h-152v510l-424 -510h-195l463 559l-434 562h195l120 -158l176 -231l99 -130v519h152v-519z" />
    <glyph glyph-name="ccedilla" unicode="&#xe7;" horiz-adv-x="795" 
d="M230 516v142h151q80 0 133.5 42.5t53.5 125.5q0 68 -48 118t-116 50q-74 0 -124 -47q-25 -25 -39.5 -55.5t-14.5 -67.5l-3 -19h-151v21q0 85 43 157.5t116 114t158 41.5q91 0 166 -39.5t118.5 -111t43.5 -160.5q0 -135 -96 -219l-27 -19q20 -10 43 -33q107 -93 107 -239
q0 -92 -48.5 -170t-128 -122.5t-171.5 -44.5q-96 0 -177.5 43.5t-129.5 122.5t-48 177v20h156v-20q0 -54 25.5 -98.5t71 -72.5t99.5 -28q86 0 144.5 55.5t58.5 137.5t-58 140t-142 58h-166z" />
    <glyph glyph-name="egrave" unicode="&#xe8;" horiz-adv-x="1250" 
d="M1118 1121v-1121h-151v951l-682 -951h-154v1121h152v-895l635 895h200z" />
    <glyph glyph-name="eacute" unicode="&#xe9;" horiz-adv-x="1250" 
d="M1118 1121v-1121h-151v951l-682 -951h-154v1121h152v-895l635 895h200zM443 1446q21 -46 73 -70t109 -24q55 0 107.5 24t74.5 70h129q-25 -102 -111.5 -156.5t-199.5 -54.5q-112 0 -198 53t-113 158h129z" />
    <glyph glyph-name="ecircumflex" unicode="&#xea;" horiz-adv-x="1028" 
d="M129 1121h152v-670l514 670h194l-434 -562l463 -559h-194l-365 443l-178 -230v-213h-152v1121z" />
    <glyph glyph-name="edieresis" unicode="&#xeb;" horiz-adv-x="1008" 
d="M869 1121v-1121h-148v981h-303l-272 -981h-161l320 1121h564z" />
    <glyph glyph-name="igrave" unicode="&#xec;" horiz-adv-x="1676" 
d="M131 1121h222l185 -355l215 -413l85 -162l485 930h221v-1121h-151v955l-492 -955h-127l-94 181l-169 329l-169 327l-61 120v-957h-150v1121z" />
    <glyph glyph-name="iacute" unicode="&#xed;" horiz-adv-x="1204" 
d="M129 1121h152v-476h641v476h151v-1121h-151v508h-641v-508h-152v1121z" />
    <glyph glyph-name="icircumflex" unicode="&#xee;" horiz-adv-x="1342" 
d="M1256 568q0 -157 -78 -294.5t-213 -219t-291 -81.5q-154 0 -290 78t-217 212t-81 290q0 159 78 296t214 216.5t296 79.5q114 0 219.5 -45t188 -126.5t128.5 -187.5t46 -218zM238 553q0 -119 59 -218.5t160 -157.5t217 -58q122 0 221.5 61t154 164t54.5 224
q0 184 -131 309q-62 59 -139 91t-160 32q-120 0 -221.5 -61t-158 -163.5t-56.5 -222.5z" />
    <glyph glyph-name="idieresis" unicode="&#xef;" horiz-adv-x="1204" 
d="M131 1121h942v-1121h-151v983h-641v-983h-150v1121z" />
    <glyph glyph-name="eth" unicode="&#xf0;" horiz-adv-x="1397" 
d="M273 1121v-193q40 69 115 119t160 73q44 13 85.5 19t85.5 6q255 0 459 -217q16 -14 32.5 -36.5t31.5 -51t27.5 -61.5t22.5 -71q19 -76 19 -153q0 -160 -82.5 -294t-223 -211t-300.5 -77q-130 0 -251 62t-173 174v-602h-152v1514h144zM1159 557q0 122 -58.5 222.5
t-160.5 160.5t-221 60q-120 0 -223 -55t-164 -155t-61 -220q0 -196 118 -314q131 -137 320 -137q122 0 226.5 57.5t164 157.5t59.5 223z" />
    <glyph glyph-name="ntilde" unicode="&#xf1;" horiz-adv-x="1325" 
d="M1243 328q-38 -84 -91.5 -147.5t-128.5 -112.5q-145 -95 -324 -95q-165 0 -306.5 76t-224 210.5t-82.5 301.5q0 160 84 296t223.5 212t298.5 76q120 0 232 -45t195.5 -127t125.5 -192h-170q-38 66 -96.5 114.5t-133.5 76.5t-150 28q-121 0 -226.5 -56.5t-168 -157
t-62.5 -223.5q0 -120 58 -222.5t161 -162t225 -59.5q128 0 223.5 52t169.5 157h168z" />
    <glyph glyph-name="ograve" unicode="&#xf2;" horiz-adv-x="776" 
d="M4 985v136h768v-136h-307v-985h-149v985h-312z" />
    <glyph glyph-name="oacute" unicode="&#xf3;" horiz-adv-x="1098" 
d="M1080 1121l-648 -1514h-159l176 428l-430 1086h161l359 -893l379 893h162z" />
    <glyph glyph-name="ocircumflex" unicode="&#xf4;" horiz-adv-x="2384" 
d="M1268 -393h-152v594q-63 -106 -180 -167t-244 -61q-162 0 -301 76t-222 210t-83 296q0 115 39.5 218.5t91.5 154.5q186 217 461 217q128 0 251.5 -60t186.5 -165v594h152v-594q42 71 108.5 121.5t148 77t167.5 26.5q121 0 231.5 -43.5t194.5 -121.5t132 -186t48 -229
q0 -113 -41 -215t-92 -157q-109 -123 -217.5 -171.5t-241.5 -48.5q-124 0 -249 61.5t-189 166.5v-594zM1008 256q113 116 113 314q0 119 -58 217.5t-161.5 155.5t-223.5 57q-119 0 -220 -58.5t-160.5 -161t-59.5 -223.5q0 -122 60 -222.5t164 -158t226 -57.5q188 0 320 137z
M1379 865q-63 -63 -89 -138t-26 -176q0 -123 57.5 -220.5t161 -154.5t223.5 -57q119 0 220.5 60t161 162t59.5 220q0 91 -34.5 173t-95.5 141t-145 92t-176 33q-185 0 -317 -135z" />
    <glyph glyph-name="otilde" unicode="&#xf5;" horiz-adv-x="983" 
d="M400 570l-383 551h178l297 -433l297 433h178l-385 -551l385 -570h-178l-297 449l-297 -449h-178z" />
    <glyph glyph-name="odieresis" unicode="&#xf6;" horiz-adv-x="1204" 
d="M131 0v1121h150v-984h641v984h151v-984h93v-137h-1035z" />
    <glyph glyph-name="divide" unicode="&#xf7;" horiz-adv-x="1008" 
d="M92 1121h152v-416q0 -68 50 -112t130 -44q157 0 295 105v467h150v-1121h-150v510q-140 -96 -332 -96q-72 0 -140.5 35.5t-111.5 99t-43 139.5v433z" />
    <glyph glyph-name="oslash" unicode="&#xf8;" horiz-adv-x="1682" 
d="M131 0v1121h150v-984h483v984h152v-984h483v984h152v-1121h-1420z" />
    <glyph glyph-name="ugrave" unicode="&#xf9;" horiz-adv-x="1682" 
d="M131 0v1121h150v-984h483v984h152v-984h483v984h152v-984h90v-137h-1510z" />
    <glyph glyph-name="uacute" unicode="&#xfa;" horiz-adv-x="957" 
d="M-10 981v140h342v-437h182q91 0 161 -14t132 -59q131 -95 131 -267q0 -84 -38.5 -159.5t-112.5 -120.5q-63 -41 -129 -51q-34 -5 -77.5 -9t-94.5 -4h-303v981h-193zM332 547v-407h119l44 -2l38 -1q79 0 133 23q123 50 123 184q0 50 -22.5 93.5t-61.5 66.5q-67 43 -209 43
h-164z" />
    <glyph glyph-name="ucircumflex" unicode="&#xfb;" horiz-adv-x="1194" 
d="M90 0v1121h150v-437h182q90 0 160.5 -14t132.5 -59q131 -95 131 -267q0 -84 -38.5 -159.5t-112.5 -120.5q-63 -41 -129 -51q-32 -5 -76 -9t-94 -4h-306zM955 1121h149v-1121h-149v1121zM240 547v-407h119l44 -2l38 -1q81 0 135 23q121 51 121 184q0 49 -22.5 92.5
t-61.5 67.5q-67 43 -207 43h-166z" />
    <glyph glyph-name="udieresis" unicode="&#xfc;" horiz-adv-x="959" 
d="M129 0v1121h150v-437h182q90 0 159.5 -14t133.5 -59q131 -95 131 -267q0 -88 -39.5 -162.5t-112.5 -117.5q-61 -40 -128 -51q-34 -5 -77 -9t-94 -4h-305zM279 547v-407h119l44 -2l37 -1q82 0 136 23q120 51 120 184q0 50 -21 92.5t-62 67.5q-67 43 -207 43h-166z" />
    <glyph glyph-name="yacute" unicode="&#xfd;" horiz-adv-x="1325" 
d="M1080 645q-14 77 -55 142.5t-100 112.5t-136 73.5t-158 26.5q-115 0 -218 -59t-163 -160h-170q42 110 128 193t197 127t228 44q79 0 154.5 -19t145.5 -58q139 -76 222.5 -210.5t83.5 -296.5q0 -167 -82 -301t-224.5 -210.5t-305.5 -76.5q-179 0 -324 95t-221 260h168
q74 -104 170 -157q49 -26 103 -39t120 -13q113 0 209 51t156.5 138.5t75.5 199.5h-803v137h799z" />
    <glyph glyph-name="thorn" unicode="&#xfe;" horiz-adv-x="1671" 
d="M418 508h-137v-508h-150v1121h150v-476h141q23 140 104.5 254.5t206.5 180t271 65.5q153 0 287.5 -79.5t214 -213t79.5 -284.5q0 -157 -78.5 -295t-212.5 -219t-290 -81q-147 0 -278 71t-212.5 193.5t-95.5 270.5zM568 553q0 -118 58 -216.5t159.5 -158t218.5 -59.5
q122 0 220 60t154 164.5t56 224.5q0 183 -131 309q-62 59 -139.5 91t-159.5 32q-121 0 -222 -61t-157.5 -163t-56.5 -223z" />
    <glyph glyph-name="ydieresis" unicode="&#xff;" horiz-adv-x="1008" 
d="M869 1121v-1121h-150v981h-151q-87 0 -137 -7t-93.5 -38t-68.5 -78.5t-25 -99.5q0 -65 33 -118q18 -28 40.5 -47.5t55.5 -35.5q67 -26 225 -26h74l-397 -531h-185l306 406q-84 11 -153 59t-109 122q-20 39 -30 77.5t-10 83.5q0 98 47.5 184t131.5 133q65 36 140 46
q34 4 81.5 7t95.5 3h279z" />
    <glyph glyph-name="endash" unicode="&#x2013;" horiz-adv-x="1024" 
d="M1024 684v-137h-1024v137h1024z" />
    <glyph glyph-name="emdash" unicode="&#x2014;" horiz-adv-x="2048" 
d="M2048 684v-137h-2048v137h2048z" />
    <glyph glyph-name="c274" unicode="&#x2015;" 
 />
    <glyph glyph-name="c275" unicode="&#x2016;" 
 />
    <glyph glyph-name="c276" unicode="&#x2017;" 
 />
    <glyph glyph-name="quoteleft" unicode="&#x2018;" horiz-adv-x="719" 
d="M381 1118l-180 396h152l180 -396h-152z" />
    <glyph glyph-name="quoteright" unicode="&#x2019;" horiz-adv-x="719" 
d="M367 1514h151l-180 -396h-151z" />
    <glyph glyph-name="quotesinglbase" unicode="&#x201a;" horiz-adv-x="725" 
d="M363 258h151l-180 -395h-151z" />
    <glyph glyph-name="c277" unicode="&#x201b;" 
 />
    <glyph glyph-name="quotedblleft" unicode="&#x201c;" horiz-adv-x="1028" 
d="M680 1118l-180 396h152l180 -396h-152zM377 1118l-180 396h151l181 -396h-152z" />
    <glyph glyph-name="quotedblright" unicode="&#x201d;" horiz-adv-x="991" 
d="M350 1514h152l-180 -396h-144zM654 1514h151l-180 -396h-152z" />
    <glyph glyph-name="quotedblbase" unicode="&#x201e;" horiz-adv-x="1028" 
d="M363 258h151l-180 -395h-151zM666 258h149l-178 -395h-151z" />
    <glyph glyph-name="c278" unicode="&#x201f;" 
 />
    <glyph glyph-name="dagger" unicode="&#x2020;" horiz-adv-x="1133" 
d="M641 1104h371v-137h-371v-1227h-151v1227h-369v137h369v410h151v-410z" />
    <glyph glyph-name="daggerdbl" unicode="&#x2021;" horiz-adv-x="1133" 
d="M641 1151h371v-141h-371v-193h371v-135h-371v-944h-149v944h-371v135h371v193h-371v141h371v363h149v-363z" />
    <glyph glyph-name="bullet" unicode="&#x2022;" horiz-adv-x="1241" 
d="M619 238q-102 0 -189 51.5t-137.5 137t-50.5 188.5q0 104 50.5 191t137.5 138.5t189 51.5t190 -51t139.5 -138.5t51.5 -191.5q0 -103 -51 -188.5t-139 -137t-191 -51.5z" />
    <glyph glyph-name="c279" unicode="&#x2023;" 
 />
    <glyph glyph-name="c280" unicode="&#x2024;" 
 />
    <glyph glyph-name="c281" unicode="&#x2025;" 
 />
    <glyph glyph-name="ellipsis" unicode="&#x2026;" horiz-adv-x="2048" 
d="M266 258h152v-258h-152v258zM948 258h152v-258h-152v258zM1630 258h152v-258h-152v258z" />
    <glyph glyph-name="c282" unicode="&#x2027;" 
 />
    <glyph glyph-name="c283" unicode="&#x2028;" 
 />
    <glyph glyph-name="c284" unicode="&#x2029;" 
 />
    <glyph glyph-name="c285" unicode="&#x202a;" 
 />
    <glyph glyph-name="c286" unicode="&#x202b;" 
 />
    <glyph glyph-name="c287" unicode="&#x202c;" 
 />
    <glyph glyph-name="c288" unicode="&#x202d;" 
 />
    <glyph glyph-name="c289" unicode="&#x202e;" 
 />
    <glyph glyph-name="c290" unicode="&#x202f;" 
 />
    <glyph glyph-name="perthousand" unicode="&#x2030;" horiz-adv-x="2405" 
d="M1051 1514h147l-680 -1514h-147zM740 1172q0 -96 -48 -176t-130.5 -127.5t-176.5 -47.5q-93 0 -176 47t-132.5 128.5t-49.5 179.5q0 101 48 184t130 130.5t182 47.5q50 0 94.5 -12t85.5 -38q80 -49 126.5 -135t46.5 -181zM1540 326q0 -95 -48.5 -176t-130.5 -129
t-177 -48t-177.5 48.5t-131.5 129.5t-49 177q0 101 47.5 184.5t130 131.5t182.5 48q78 0 140.5 -28.5t111.5 -80.5t75.5 -118.5t26.5 -138.5zM2357 326q0 -95 -48.5 -176t-130.5 -129t-177 -48q-94 0 -176.5 47.5t-132 128.5t-49.5 179q0 101 47.5 184.5t130 131.5t182.5 48
q78 0 140.5 -28.5t111.5 -80.5t75.5 -118.5t26.5 -138.5zM971 318q0 -86 63 -142.5t150 -56.5q89 0 150 59t61 148q0 55 -28 107t-75.5 83t-105.5 31q-62 0 -110.5 -30t-76.5 -83.5t-28 -115.5zM276 1365q-49 -30 -76.5 -80t-27.5 -111q0 -56 29 -104t77 -75.5t105 -27.5
q59 0 107 28t76 78t28 109q0 57 -27.5 104.5t-76 77t-103.5 29.5q-60 3 -111 -28zM1788 320q0 -87 62.5 -144t148.5 -57q91 0 152 59t61 148q0 56 -28 107t-75.5 82.5t-105.5 31.5q-92 0 -153.5 -66.5t-61.5 -160.5z" />
    <glyph glyph-name="c291" unicode="&#x2031;" 
 />
    <glyph glyph-name="c292" unicode="&#x2032;" 
 />
    <glyph glyph-name="c293" unicode="&#x2033;" 
 />
    <glyph glyph-name="c294" unicode="&#x2034;" 
 />
    <glyph glyph-name="c295" unicode="&#x2035;" 
 />
    <glyph glyph-name="c296" unicode="&#x2036;" 
 />
    <glyph glyph-name="c297" unicode="&#x2037;" 
 />
    <glyph glyph-name="c298" unicode="&#x2038;" 
 />
    <glyph glyph-name="guilsinglleft" unicode="&#x2039;" horiz-adv-x="514" 
d="M82 617l232 407l118 -63l-192 -344l192 -344l-118 -66z" />
    <glyph glyph-name="guilsinglright" unicode="&#x203a;" horiz-adv-x="514" 
d="M82 273l193 344l-193 344l119 63l231 -407l-231 -410z" />
    <glyph glyph-name="trademark" unicode="&#x2122;" horiz-adv-x="2048" 
d="M1921 652h-135v739l-299 -739h-80l-291 739v-739h-137v862h221l248 -609l256 609h217v-862zM828 1391h-273v-739h-151v739h-275v123h699v-123z" />
  </font>
</defs>
</svg>
