<?xml version="1.0" standalone="no"?>
<!DOCTYPE svg PUBLIC "-//W3C//DTD SVG 1.1//EN" "http://www.w3.org/Graphics/SVG/1.1/DTD/svg11.dtd" >
<svg xmlns="http://www.w3.org/2000/svg" xmlns:xlink="http://www.w3.org/1999/xlink" version="1.1">
<metadata></metadata>
<defs>
<font id="ticker_taperegular" horiz-adv-x="1188" >
<font-face units-per-em="2048" ascent="1638" descent="-410" />
<missing-glyph horiz-adv-x="717" />
<glyph horiz-adv-x="0" />
<glyph unicode="&#xd;" horiz-adv-x="717" />
<glyph unicode=" "  horiz-adv-x="717" />
<glyph unicode="&#x09;" horiz-adv-x="717" />
<glyph unicode="&#xa0;" horiz-adv-x="717" />
<glyph unicode="!" horiz-adv-x="328" d="M82 82q0 34 24 58t58 24t58 -24t24 -58t-24 -58t-58 -24t-58 24t-24 58zM82 459v1138h164v-1138h-164z" />
<glyph unicode="&#x22;" horiz-adv-x="655" d="M82 1413v328h164v-328h-164zM408 1413v328h164v-328h-164z" />
<glyph unicode="#" horiz-adv-x="1290" d="M82 463l29 164h165l62 346h-166l29 164h166l82 460h163l-82 -460h347l81 460h164l-82 -460h164l-28 -164h-164l-62 -346h164l-29 -164h-163l-82 -463h-164l82 463h-346l-82 -463h-164l82 463h-166zM440 627h346l62 346h-346z" />
<glyph unicode="$" horiz-adv-x="1085" d="M82 1178q0 172 106 299.5t275 154.5v109h164v-111q143 -24 245 -127l-114 -114q-52 54 -131 75v-592q169 -28 273 -154t104 -298q0 -171 -104.5 -296.5t-272.5 -156.5v-110h-164v108q-141 25 -246 129l115 115q62 -61 131 -76v590q-165 27 -273 157t-108 298zM246 1178 q0 -102 59 -182q61 -84 158 -105v573q-217 -64 -217 -286zM627 135q96 27 154.5 106t58.5 179q0 103 -57.5 181t-155.5 106v-572z" />
<glyph unicode="%" horiz-adv-x="1270" d="M82 0l924 1597h190l-924 -1597h-190zM82 1311q0 121 83 203.5t204 82.5q123 0 204.5 -81.5t81.5 -204.5t-81 -205t-205 -82q-121 0 -204 82.5t-83 204.5zM246 1311q0 -52 35.5 -87.5t87.5 -35.5q53 0 88 35t35 88t-35 88t-88 35q-52 0 -87.5 -35.5t-35.5 -87.5zM623 287 q0 121 82 203.5t204 82.5q123 0 205 -81t82 -205q0 -125 -81 -206t-206 -81q-121 0 -203.5 83t-82.5 204zM786 287q0 -52 35.5 -87.5t87.5 -35.5q54 0 88.5 34.5t34.5 88.5t-34.5 88.5t-88.5 34.5q-50 0 -86.5 -36.5t-36.5 -86.5z" />
<glyph unicode="&#x26;" horiz-adv-x="1761" d="M82 543q0 168 91.5 311t244.5 215q-152 123 -152 313q0 166 117 283t283 117q167 0 283 -116.5t116 -283.5q0 -193 -152 -313q90 -41 195 -147l264 -265l307 308v-232l-192 -192l192 -191v-229l-307 305l-315 -315q-152 -152 -391 -152q-242 0 -413 171t-171 413z M246 543q0 -175 122.5 -297.5t297.5 -122.5t282 108l309 312l-272 272q-146 146 -319 146q-175 0 -297.5 -121.5t-122.5 -296.5zM430 1382q0 -100 68 -167.5t168 -67.5q99 0 167 68t68 167q0 100 -67.5 168t-167.5 68t-168 -68t-68 -168z" />
<glyph unicode="'" horiz-adv-x="328" d="M82 1413v328h164v-328h-164z" />
<glyph unicode="(" horiz-adv-x="655" d="M82 891q0 522 369 891l116 -117q-321 -321 -321 -774t321 -774l-116 -117q-369 377 -369 891z" />
<glyph unicode=")" horiz-adv-x="655" d="M82 117q152 152 236.5 355t84.5 417q0 455 -321 776l117 117q368 -374 368 -891q0 -523 -368 -891z" />
<glyph unicode="*" horiz-adv-x="1106" d="M82 1044v164h272l-192 193l117 117l192 -193v272h164v-272l192 193l117 -117l-192 -193h272v-164h-272l192 -192l-117 -117l-192 193v-273h-164v273l-192 -193l-117 117l192 192h-272z" />
<glyph unicode="+" horiz-adv-x="1024" d="M82 473v164h348v350h164v-350h350v-164h-350v-348h-164v348h-348z" />
<glyph unicode="," horiz-adv-x="410" d="M20 -190l111 215q-49 35 -49 98q0 53 35 88t88 35q54 0 88.5 -34.5t34.5 -88.5q0 -32 -13 -57l-131 -256h-164z" />
<glyph unicode="-" horiz-adv-x="1024" d="M82 473v164h862v-164h-862z" />
<glyph unicode="." horiz-adv-x="410" d="M82 123q0 53 35 88t88 35q54 0 88.5 -34.5t34.5 -88.5q0 -53 -35 -88t-88 -35q-52 0 -87.5 35.5t-35.5 87.5z" />
<glyph unicode="/" horiz-adv-x="1270" d="M0 -143l1087 1884h191l-1088 -1884h-190z" />
<glyph unicode="0" d="M82 471v651q0 213 149.5 362.5t362.5 149.5t362.5 -149.5t149.5 -362.5v-651q0 -213 -149.5 -362.5t-362.5 -149.5t-362.5 149.5t-149.5 362.5zM246 471q0 -145 101.5 -246.5t246.5 -101.5q144 0 246 102t102 246v651q0 145 -101.5 246.5t-246.5 101.5t-246.5 -101.5 t-101.5 -246.5v-651z" />
<glyph unicode="1" horiz-adv-x="573" d="M82 1124l244 473h163v-1597h-163v1282l-80 -158h-164z" />
<glyph unicode="2" horiz-adv-x="1085" d="M82 0l549 979q27 47 53 94q25 52 25 105q0 126 -85 211.5t-212 85.5q-132 0 -215 -86l-115 114q132 135 330 135q191 0 325.5 -134.5t134.5 -325.5q0 -76 -43 -164l-84 -150l-395 -702h656v-164z" />
<glyph unicode="3" horiz-adv-x="676" d="M82 0v154q145 0 246.5 101.5t101.5 246.5q0 185 -151 286q151 108 151 289q0 145 -101.5 246.5t-246.5 101.5v154q220 -30 358 -153q154 -136 154 -349q0 -155 -88 -289q88 -130 88 -286q0 -212 -155 -348q-137 -120 -357 -154z" />
<glyph unicode="4" horiz-adv-x="1065" d="M82 446l596 1192v-1028h307v-164h-307v-446h-164v446h-432zM348 610h166v334z" />
<glyph unicode="5" horiz-adv-x="922" d="M57 94l115 115q83 -86 211 -86q126 0 211.5 85.5t85.5 211.5q0 74 -34 141q-79 156 -263 156h-301v880h682v-163h-518v-553h137q190 0 325.5 -135.5t135.5 -325.5t-135.5 -325.5t-325.5 -135.5q-193 0 -326 135z" />
<glyph unicode="6" horiz-adv-x="1331" d="M82 553q0 242 166 408l637 636h231l-465 -460q250 0 424 -167.5t174 -416.5q0 -241 -171 -412.5t-412 -171.5q-242 0 -413 171t-171 413zM246 553q0 -175 122.5 -297.5t297.5 -122.5q176 0 297.5 122.5t121.5 297.5q0 96 -47 194q-109 226 -372 226q-182 0 -301 -119.5 t-119 -300.5z" />
<glyph unicode="7" horiz-adv-x="1126" d="M82 0l739 1436h-737v163l985 -2l-823 -1597h-164z" />
<glyph unicode="8" horiz-adv-x="1024" d="M82 430q0 126 67 231t181 158q-114 53 -181 158t-67 231q0 179 125.5 304.5t304.5 125.5t304.5 -125.5t125.5 -304.5q0 -127 -66 -230.5t-180 -158.5q113 -54 179.5 -159t66.5 -230q0 -179 -125.5 -304.5t-304.5 -125.5t-304.5 125.5t-125.5 304.5zM246 430 q0 -111 77.5 -188.5t188.5 -77.5t188.5 77.5t77.5 188.5q0 115 -76 190.5t-190 75.5q-111 0 -188.5 -77.5t-77.5 -188.5zM246 1208q0 -109 78.5 -187.5t187.5 -78.5q111 0 188.5 77.5t77.5 188.5q0 115 -76 191t-190 76q-111 0 -188.5 -78t-77.5 -189z" />
<glyph unicode="9" horiz-adv-x="1331" d="M82 1044q0 242 171 413t413 171q241 0 412 -171.5t171 -412.5t-166 -407l-637 -637h-231l465 461q-250 0 -424 167t-174 416zM246 1044q0 -95 48 -194q109 -225 372 -225q120 0 224 62.5t156 168.5q39 80 39 188q0 175 -122 297.5t-297 122.5t-297.5 -122.5 t-122.5 -297.5z" />
<glyph unicode=":" horiz-adv-x="410" d="M82 123q0 53 35 88t88 35q54 0 88.5 -34.5t34.5 -88.5q0 -53 -35 -88t-88 -35q-52 0 -87.5 35.5t-35.5 87.5zM82 819q0 53 35 88t88 35q54 0 88.5 -34.5t34.5 -88.5q0 -53 -35 -88t-88 -35q-52 0 -87.5 35.5t-35.5 87.5z" />
<glyph unicode=";" horiz-adv-x="410" d="M20 -190l111 215q-49 35 -49 98q0 53 35 88t88 35q54 0 88.5 -34.5t34.5 -88.5q0 -32 -13 -57l-131 -256h-164zM82 817q0 53 35 88t88 35q54 0 88.5 -34.5t34.5 -88.5q0 -53 -35 -88t-88 -35q-52 0 -87.5 35.5t-35.5 87.5z" />
<glyph unicode="&#x3c;" horiz-adv-x="983" d="M82 514l819 424v-168l-502 -258l502 -258v-168z" />
<glyph unicode="=" horiz-adv-x="1024" d="M82 344v164h862v-164h-862zM82 645v164h862v-164h-862z" />
<glyph unicode="&#x3e;" horiz-adv-x="983" d="M82 86v168l502 258l-502 258v168l819 -424z" />
<glyph unicode="?" horiz-adv-x="963" d="M82 1503q132 135 330 135q191 0 325.5 -134.5t134.5 -325.5q0 -123 -61.5 -229.5t-168 -169t-230.5 -62.5q-61 0 -99.5 -36.5t-38.5 -92.5t39 -94.5t95 -38.5q60 0 96 39l114 -117q-89 -86 -210 -86q-122 0 -209.5 87.5t-87.5 209.5q0 124 88 208.5t213 84.5q68 0 125 26 q78 36 125 110t47 161q0 126 -85 211.5t-212 85.5q-132 0 -215 -86zM279 123q0 52 35 87.5t87 35.5q55 0 89 -34t34 -89q0 -54 -34.5 -88.5t-88.5 -34.5q-52 0 -87 35.5t-35 87.5z" />
<glyph unicode="@" horiz-adv-x="1843" d="M82 799q0 347 246.5 593t593.5 246q348 0 593.5 -245.5t245.5 -593.5q0 -347 -246 -593.5t-593 -246.5t-593.5 246.5t-246.5 593.5zM246 799q0 -209 100 -363q94 -145 248.5 -229t327.5 -84q295 0 487 203h-164v94q-148 -135 -348 -135q-213 0 -362.5 149.5t-149.5 362.5 t149.5 362.5t362.5 149.5q200 0 348 -138v41h164v-792h74q114 172 114 379q0 209 -100 363q-94 145 -248 229t-327 84q-209 0 -363 -100q-145 -94 -229 -248.5t-84 -327.5zM549 797q0 -145 101.5 -246.5t246.5 -101.5t246.5 101.5t101.5 246.5t-101.5 246.5t-246.5 101.5 q-144 0 -246 -102t-102 -246z" />
<glyph unicode="A" horiz-adv-x="1597" d="M-57 0q348 654 848 1638l856 -1638h-172l-250 487h-863l-251 -487h-168zM449 651h692l-348 670z" />
<glyph unicode="B" horiz-adv-x="840" d="M82 -2v1601q275 0 456 -115q216 -137 216 -397q0 -154 -88 -288q88 -131 88 -287q0 -143 -77 -260q-166 -252 -595 -254zM242 164q145 0 246.5 101.5t101.5 246.5q0 181 -152 287q152 104 152 288q0 144 -102 246.5t-246 102.5v-1272z" />
<glyph unicode="C" horiz-adv-x="1597" d="M82 799q0 347 246.5 593t593.5 246q336 0 583 -237l-116 -113q-194 187 -467 187q-194 0 -350 -92q-161 -94 -247 -264q-79 -157 -79 -320q0 -176 83 -330.5t229 -249.5q155 -100 364 -100q274 0 467 186l116 -112q-244 -238 -583 -238q-349 0 -594.5 247.5t-245.5 596.5 z" />
<glyph unicode="D" horiz-adv-x="963" d="M82 0v1597q330 0 564.5 -234t234.5 -564q0 -331 -234 -565t-565 -234zM246 184q209 58 340 228t131 387t-130.5 387t-340.5 227v-1229z" />
<glyph unicode="E" d="M82 0v1597h1024v-163h-860v-594h737v-164h-737v-512h860v-164h-1024z" />
<glyph unicode="F" d="M82 0v1597h1024v-163h-860v-594h737v-164h-737v-676h-164z" />
<glyph unicode="G" horiz-adv-x="1843" d="M82 799q0 347 246.5 593t593.5 246q336 0 581 -235l-114 -115q-194 187 -467 187q-173 0 -327.5 -84t-248.5 -229q-100 -154 -100 -363q0 -173 84 -327.5t229 -248.5q154 -100 363 -100q233 0 421 146t238 372h-422v158h602q0 -347 -246 -593.5t-593 -246.5t-593.5 246.5 t-246.5 593.5z" />
<glyph unicode="H" d="M82 0v1597h164v-757h696v757h164v-1597h-164v676h-696v-676h-164z" />
<glyph unicode="I" horiz-adv-x="328" d="M82 0v1597h164v-1597h-164z" />
<glyph unicode="J" horiz-adv-x="430" d="M-164 -451q145 0 246.5 102t101.5 247v1701h164v-1701q0 -213 -149.5 -362.5t-362.5 -149.5v163z" />
<glyph unicode="K" horiz-adv-x="819" d="M82 0v1597h164v-665l346 665h164l-416 -798l416 -799h-164l-346 666v-666h-164z" />
<glyph unicode="L" horiz-adv-x="1065" d="M82 0v1599h164v-1433h737v-164z" />
<glyph unicode="M" horiz-adv-x="1536" d="M82 0v1638l684 -1362l694 1362v-1638h-164v979l-532 -1020l-518 1006v-965h-164z" />
<glyph unicode="N" horiz-adv-x="840" d="M82 0v1638l520 -1036v995h164v-1638l-520 1006v-965h-164z" />
<glyph unicode="O" horiz-adv-x="1843" d="M82 799q0 347 246.5 593t593.5 246q348 0 593.5 -245.5t245.5 -593.5q0 -347 -246 -593.5t-593 -246.5t-593.5 246.5t-246.5 593.5zM246 799q0 -209 100 -363q94 -145 248 -229t328 -84q208 0 362 100q145 94 229 248t84 328q0 194 -93 352t-264 245q-156 79 -318 79 q-194 0 -351 -92q-160 -95 -246 -266q-79 -157 -79 -318z" />
<glyph unicode="P" horiz-adv-x="840" d="M82 -2v1601h164q211 0 359.5 -150.5t148.5 -361.5q0 -212 -150 -362t-362 -150l4 -577h-164zM242 739q144 0 246 102t102 246t-102 246.5t-246 102.5v-697z" />
<glyph unicode="Q" horiz-adv-x="1843" d="M82 799q0 347 246.5 593t593.5 246q348 0 593.5 -245.5t245.5 -593.5q0 -274 -164 -498l301 -301h-233l-178 178q-244 -219 -565 -219q-347 0 -593.5 246.5t-246.5 593.5zM246 799q0 -209 100 -363q94 -145 248.5 -229t327.5 -84q267 0 450 168l-325 325h235l199 -198 q116 171 116 381q0 194 -93 352t-264 245q-156 79 -318 79q-194 0 -351 -92q-160 -95 -246 -266q-79 -157 -79 -318z" />
<glyph unicode="R" horiz-adv-x="840" d="M82 0v1599h164q210 0 359 -150.5t149 -361.5q0 -168 -100 -302.5t-261 -186.5l307 -598h-163l-291 575v-575h-164zM242 739q144 0 246 102t102 246t-102 246.5t-246 102.5v-697z" />
<glyph unicode="S" horiz-adv-x="1085" d="M82 1178q0 190 135.5 325t325.5 135q200 0 329 -135l-114 -114q-83 86 -215 86q-125 0 -211 -86t-86 -211q0 -111 77 -201q82 -96 220 -96q123 0 230 -62t169 -169t62 -230q0 -190 -135.5 -325.5t-325.5 -135.5q-193 0 -326 135l115 115q83 -86 211 -86q126 0 211.5 85.5 t85.5 211.5q0 127 -85.5 212t-211.5 85q-93 0 -177 36q-128 55 -206 170.5t-78 254.5z" />
<glyph unicode="T" horiz-adv-x="1065" d="M82 1434v165l901 -2v-163h-369v-1436h-163v1436h-369z" />
<glyph unicode="U" d="M82 471v1126h164v-1126q0 -142 99 -245t241 -103q144 0 246 102t102 246v1126h164v-1126q0 -213 -149.5 -362.5t-362.5 -149.5q-210 0 -357 151t-147 361z" />
<glyph unicode="V" horiz-adv-x="1597" d="M-57 1597h168l682 -1321l682 1321h172l-856 -1638z" />
<glyph unicode="W" horiz-adv-x="2458" d="M-57 1597h168l682 -1321l426 826l426 -826l682 1321h172l-857 -1638l-423 819l-428 -819z" />
<glyph unicode="X" d="M82 0l410 799l-410 798h164l342 -665l346 665h164l-416 -798l416 -799h-164l-346 666l-342 -666h-164z" />
<glyph unicode="Y" d="M82 1597h164l342 -665l346 665h164l-430 -825v-772h-164v774z" />
<glyph unicode="Z" horiz-adv-x="1167" d="M82 0l741 1434h-739v163h995l-749 -1433h749v-164h-997z" />
<glyph unicode="[" horiz-adv-x="696" d="M82 -164v2069h534v-164h-370v-1741h370v-164h-534z" />
<glyph unicode="\" horiz-adv-x="1270" d="M0 1741h190l1088 -1884h-191z" />
<glyph unicode="]" horiz-adv-x="696" d="M82 0h371v1741h-371v164h534v-2069h-534v164z" />
<glyph unicode="^" horiz-adv-x="676" d="M92 1409l170 330h158l172 -330h-164l-86 166l-86 -166h-164z" />
<glyph unicode="_" horiz-adv-x="1024" d="M0 -408h1024v-163h-1024v163z" />
<glyph unicode="`" horiz-adv-x="492" d="M82 1741h168l172 -328h-172z" />
<glyph unicode="a" d="M82 471q0 213 149.5 362.5t362.5 149.5q200 0 348 -137v96h164v-942h-164v94q-148 -135 -348 -135q-213 0 -362.5 149.5t-149.5 362.5zM246 471q0 -145 101.5 -246.5t246.5 -101.5q144 0 246 102t102 246q0 145 -101.5 246.5t-246.5 101.5t-246.5 -101.5t-101.5 -246.5z " />
<glyph unicode="b" d="M82 0v1741h164v-895q147 137 348 137q213 0 362.5 -149.5t149.5 -362.5t-149.5 -362.5t-362.5 -149.5q-200 0 -348 135v-94h-164zM246 471q0 -145 101.5 -246.5t246.5 -101.5q144 0 246 102t102 246q0 145 -101.5 246.5t-246.5 101.5t-246.5 -101.5t-101.5 -246.5z" />
<glyph unicode="c" horiz-adv-x="1028" d="M82 471q0 213 149.5 362.5t362.5 149.5q200 0 348 -137l-117 -115q-98 88 -231 88q-145 0 -246.5 -101.5t-101.5 -246.5t101.5 -246.5t246.5 -101.5q133 0 231 88l117 -117q-148 -135 -348 -135q-213 0 -362.5 149.5t-149.5 362.5z" />
<glyph unicode="d" d="M82 471q0 213 149.5 362.5t362.5 149.5q200 0 348 -137v895h164v-1741h-164v94q-148 -135 -348 -135q-213 0 -362.5 149.5t-149.5 362.5zM246 471q0 -145 101.5 -246.5t246.5 -101.5q144 0 246 102t102 246q0 145 -101.5 246.5t-246.5 101.5t-246.5 -101.5t-101.5 -246.5 z" />
<glyph unicode="e" d="M82 471q0 213 149.5 362.5t362.5 149.5t362.5 -149.5t149.5 -362.5q0 -41 -6 -82h-844q29 -118 122.5 -192t215.5 -74q133 0 231 88l117 -117q-148 -135 -348 -135q-213 0 -362.5 149.5t-149.5 362.5zM256 553h676q-27 117 -122 191.5t-216 74.5q-122 0 -215.5 -74 t-122.5 -192z" />
<glyph unicode="f" horiz-adv-x="758" d="M82 778v164h164v328q0 213 149.5 362.5t362.5 149.5v-164q-145 0 -246.5 -101.5t-101.5 -246.5v-328h163v-164h-163v-778h-164v778h-164z" />
<glyph unicode="g" d="M82 471q0 213 149.5 362.5t362.5 149.5q200 0 348 -137v96h164v-1044q0 -213 -149.5 -362.5t-362.5 -149.5q-200 0 -348 135l116 117q99 -89 232 -89q144 0 246 102.5t102 246.5v196q-148 -135 -348 -135q-213 0 -362.5 149.5t-149.5 362.5zM246 471q0 -145 101.5 -246.5 t246.5 -101.5q144 0 246 102t102 246q0 145 -101.5 246.5t-246.5 101.5t-246.5 -101.5t-101.5 -246.5z" />
<glyph unicode="h" d="M82 0v1741h164v-895q147 137 348 137q213 0 362.5 -149.5t149.5 -362.5v-471h-164v471q0 145 -101.5 246.5t-246.5 101.5t-246.5 -101.5t-101.5 -246.5v-471h-164z" />
<glyph unicode="i" horiz-adv-x="328" d="M82 0v942h164v-942h-164zM82 1319q0 34 24 58t58 24t58 -24t24 -58t-24 -58t-58 -24t-58 24t-24 58z" />
<glyph unicode="j" horiz-adv-x="430" d="M-164 -451q145 0 246.5 102t101.5 247v1044h164v-1044q0 -213 -149.5 -362.5t-362.5 -149.5v163zM184 1516q0 35 23.5 58t58.5 23t58.5 -23t23.5 -58q0 -34 -24 -58t-58 -24t-58 24t-24 58z" />
<glyph unicode="k" horiz-adv-x="860" d="M82 0v1741h164v-1096l297 297h233l-416 -416l527 -526h-234l-407 408v-408h-164z" />
<glyph unicode="l" horiz-adv-x="328" d="M82 0v1741h164v-1741h-164z" />
<glyph unicode="m" horiz-adv-x="2068" d="M82 0v942h164v-96q147 137 348 137q283 0 432 -238q159 238 457 238q210 0 358 -151t148 -361v-471h-164v471q0 145 -101.5 246.5t-246.5 101.5q-97 0 -189 -51q-182 -101 -182 -303v-465h-164v471q0 145 -101.5 246.5t-246.5 101.5t-246.5 -101.5t-101.5 -246.5v-471 h-164z" />
<glyph unicode="n" d="M82 0v942h164v-96q147 137 348 137q213 0 362.5 -149.5t149.5 -362.5v-471h-164v471q0 145 -101.5 246.5t-246.5 101.5t-246.5 -101.5t-101.5 -246.5v-471h-164z" />
<glyph unicode="o" d="M82 471q0 213 149.5 362.5t362.5 149.5t362.5 -149.5t149.5 -362.5t-149.5 -362.5t-362.5 -149.5t-362.5 149.5t-149.5 362.5zM246 471q0 -145 101.5 -246.5t246.5 -101.5q144 0 246 102t102 246q0 145 -101.5 246.5t-246.5 101.5t-246.5 -101.5t-101.5 -246.5z" />
<glyph unicode="p" d="M82 -573v1515h164v-94q148 135 348 135q213 0 362.5 -149.5t149.5 -362.5t-149.5 -362.5t-362.5 -149.5q-201 0 -348 137v-669h-164zM246 471q0 -145 101.5 -246.5t246.5 -101.5q144 0 246 102t102 246q0 145 -101.5 246.5t-246.5 101.5t-246.5 -101.5t-101.5 -246.5z " />
<glyph unicode="q" d="M82 471q0 213 149.5 362.5t362.5 149.5q200 0 348 -135v94h164v-1515h-164v669q-148 -137 -348 -137q-213 0 -362.5 149.5t-149.5 362.5zM246 471q0 -145 101.5 -246.5t246.5 -101.5q144 0 246 102t102 246q0 145 -101.5 246.5t-246.5 101.5t-246.5 -101.5t-101.5 -246.5 z" />
<glyph unicode="r" horiz-adv-x="678" d="M82 0v942h164v-96q147 137 348 137v-164q-145 0 -246.5 -101.5t-101.5 -246.5v-471h-164z" />
<glyph unicode="s" horiz-adv-x="758" d="M82 682q0 117 90 207t207 90q120 0 213 -90l-115 -117q-38 43 -98 43q-56 0 -94.5 -38.5t-38.5 -94.5t38.5 -94.5t94.5 -38.5q80 0 149 -39q148 -84 148 -254q0 -122 -87.5 -209.5t-209.5 -87.5q-120 0 -209 86l115 117q34 -39 94 -39q56 0 94.5 38.5t38.5 94.5 q0 57 -37.5 93t-95.5 36q-122 0 -209.5 87.5t-87.5 209.5z" />
<glyph unicode="t" horiz-adv-x="655" d="M82 942v164h164v489h164v-489h163v-164h-163v-942h-164v942h-164z" />
<glyph unicode="u" d="M82 471v471h164v-471q0 -142 99 -245t241 -103q144 0 246 102t102 246v471h164v-471q0 -213 -149.5 -362.5t-362.5 -149.5q-210 0 -357 151t-147 361z" />
<glyph unicode="v" horiz-adv-x="1167" d="M82 942h164l342 -666l346 666h164l-512 -983z" />
<glyph unicode="w" horiz-adv-x="2007" d="M82 942h164l342 -666l346 666h164l319 -666l346 666h164l-512 -983l-401 821l-428 -821z" />
<glyph unicode="x" horiz-adv-x="1229" d="M-29 0l527 526l-416 416h233l297 -297l297 297h234l-416 -416l526 -526h-233l-408 408l-407 -408h-234z" />
<glyph unicode="y" d="M82 942h164l342 -666l346 666h164l-791 -1515h-164l361 690z" />
<glyph unicode="z" horiz-adv-x="901" d="M82 778v164h735l-471 -778h471v-164h-733l471 778h-473z" />
<glyph unicode="{" horiz-adv-x="778" d="M82 891l317 164v686q0 121 82.5 205t204.5 84v-164q-51 0 -87 -37t-36 -88v-768l-164 -84l164 -84v-805q0 -53 35 -89t88 -36v-164q-122 0 -204.5 83t-82.5 206v725z" />
<glyph unicode="|" horiz-adv-x="328" d="M82 -164v2069h164v-2069h-164z" />
<glyph unicode="}" horiz-adv-x="778" d="M82 -125q53 0 88 36t35 89v805l164 84l-164 84v768q0 52 -35.5 88.5t-87.5 36.5v164q122 0 204.5 -84t82.5 -205v-686l317 -164l-317 -166v-725q0 -122 -82.5 -205.5t-204.5 -83.5v164z" />
<glyph unicode="~" horiz-adv-x="1067" d="M82 1479q0 125 86 211t211 86q107 0 183.5 -63.5t119.5 -63.5q56 0 94.5 38.5t38.5 94.5h164q0 -125 -86 -211t-211 -86q-100 0 -180 63.5t-123 63.5q-56 0 -94.5 -38.5t-38.5 -94.5h-164z" />
<glyph unicode="&#xa1;" horiz-adv-x="328" d="M82 0v1139h164v-1139h-164zM82 1516q0 35 23.5 58t58.5 23t58.5 -23t23.5 -58q0 -34 -24 -58t-58 -24t-58 24t-24 58z" />
<glyph unicode="&#xa4;" horiz-adv-x="901" d="M86 801l117 117l110 -111q59 37 136 37q80 0 137 -39l112 113l115 -117l-111 -111q37 -58 37 -137q0 -61 -37 -135l109 -111l-115 -117l-108 109q-67 -35 -137 -35q-62 0 -138 35l-108 -109l-117 117l107 109q-33 50 -33 133q0 81 37 139zM326 553q0 -50 36.5 -86.5 t86.5 -36.5q52 0 88 36.5t36 88.5q0 50 -36 86.5t-86 36.5q-52 0 -88.5 -36.5t-36.5 -88.5z" />
<glyph unicode="&#xa6;" horiz-adv-x="328" d="M82 -164v766h164v-766h-164zM82 1139v766h164v-766h-164z" />
<glyph unicode="&#xa7;" horiz-adv-x="758" d="M84 674q0 125 74 198q-49 68 -49 187q0 117 102 198q95 76 215 76q112 0 207 -104l-123 -111q-41 53 -109 53q-48 0 -88.5 -38.5t-40.5 -85.5v-17q0 -27 23 -65q26 -44 102 -63q65 -16 88 -24q53 -17 80 -40q107 -89 107 -246q0 -84 -49 -146q-8 -9 -23 -28 q47 -79 47 -182q0 -112 -89.5 -193.5t-201.5 -81.5h-26q-115 0 -203 100l125 109q37 -47 104 -47q55 0 91 39t36 94q0 33 -12 57v9q-42 56 -111 63q-96 9 -165 68q-111 95 -111 221zM248 680q0 -80 71 -116q20 -10 72 -18t84 -24q35 35 35 84q0 126 -121 135q-59 5 -108 29 q-33 -36 -33 -90z" />
<glyph unicode="&#xa8;" horiz-adv-x="963" d="M82 1614q0 53 35 88t88 35q54 0 88.5 -34.5t34.5 -88.5q0 -53 -35 -88t-88 -35q-52 0 -87.5 35.5t-35.5 87.5zM631 1614q0 53 35 88t88 35q54 0 88.5 -34.5t34.5 -88.5q0 -53 -35 -88t-88 -35q-52 0 -87.5 35.5t-35.5 87.5z" />
<glyph unicode="&#xa9;" d="M82 1128q0 217 147.5 364.5t364.5 147.5q223 0 367.5 -144.5t144.5 -367.5q0 -291 -250 -440q-120 -72 -262 -72q-214 0 -363 149t-149 363zM164 1128q0 -178 126 -304t304 -126q183 0 306.5 123.5t123.5 306.5q0 186 -122.5 308.5t-307.5 122.5q-184 0 -307 -123.5 t-123 -307.5zM340 1128q0 109 73 182.5t183 73.5q102 0 172 -69l-57 -58q-45 46 -115 46q-74 0 -124 -50.5t-50 -124.5q0 -75 49.5 -124.5t124.5 -49.5q66 0 115 43l57 -59q-74 -68 -172 -68q-106 0 -181 76t-75 182z" />
<glyph unicode="&#xaa;" horiz-adv-x="1024" d="M70 1202q0 179 125.5 305.5t304.5 126.5q168 0 295 -116v81h137v-794h-137v80q-125 -115 -295 -115q-177 0 -303.5 127.5t-126.5 304.5zM82 473v164h862v-164h-862zM207 1202q0 -122 85.5 -207.5t207.5 -85.5q123 0 209 85t86 208q0 122 -86 207.5t-209 85.5 q-122 0 -207.5 -85.5t-85.5 -207.5z" />
<glyph unicode="&#xab;" horiz-adv-x="1536" d="M82 428l819 424v-168l-502 -258l502 -258v-168zM641 428l819 424v-168l-502 -258l502 -258v-168z" />
<glyph unicode="&#xac;" d="M82 473v164h1024v-490h-164v326h-860z" />
<glyph unicode="&#xad;" horiz-adv-x="1024" d="M82 473v164h862v-164h-862z" />
<glyph unicode="&#xae;" d="M82 1128q0 214 149 363t363 149q216 0 365 -148t149 -364q0 -213 -150.5 -362.5t-363.5 -149.5q-212 0 -362 150t-150 362zM166 1128q0 -179 124.5 -303.5t303.5 -124.5q180 0 305 124t125 304t-125 305.5t-305 125.5q-181 0 -304.5 -124.5t-123.5 -306.5zM498 860v471 h84v-49q69 70 172 70v-82q-74 0 -123 -50t-49 -124v-236h-84z" />
<glyph unicode="&#xb0;" horiz-adv-x="573" d="M82 1434q0 85 60 144.5t145 59.5q87 0 146 -58.5t59 -145.5q0 -85 -60 -145t-145 -60q-88 0 -146.5 58.5t-58.5 146.5zM164 1434q0 -50 36.5 -86.5t86.5 -36.5q54 0 88.5 34.5t34.5 88.5q0 53 -35 87.5t-88 34.5q-52 0 -87.5 -35t-35.5 -87z" />
<glyph unicode="&#xb4;" horiz-adv-x="492" d="M82 1413l172 328h168l-168 -328h-172z" />
<glyph unicode="&#xb7;" horiz-adv-x="410" d="M82 535q0 51 35.5 86.5t87.5 35.5q53 0 88 -34.5t35 -87.5t-35 -88t-88 -35q-52 0 -87.5 35.5t-35.5 87.5z" />
<glyph unicode="&#xb8;" horiz-adv-x="410" d="M20 -479l111 215q-49 35 -49 98q0 53 35 88t88 35q54 0 88.5 -34.5t34.5 -88.5q0 -32 -13 -57l-131 -256h-164z" />
<glyph unicode="&#xba;" horiz-adv-x="1024" d="M70 1206q0 178 125 303t303 125q179 0 304.5 -124.5t125.5 -303.5q0 -178 -126 -304t-304 -126t-303 125.5t-125 304.5zM82 473v164h862v-164h-862zM207 1206q0 -121 85.5 -207t205.5 -86q122 0 207.5 85.5t85.5 207.5q0 121 -86 206t-207 85q-122 0 -206.5 -84.5 t-84.5 -206.5z" />
<glyph unicode="&#xbb;" horiz-adv-x="1536" d="M84 0v168l502 258l-502 258v168l819 -424zM643 0v168l502 258l-502 258v168l819 -424z" />
<glyph unicode="&#xbf;" horiz-adv-x="963" d="M82 94l115 115q83 -86 215 -86q126 0 211.5 85.5t85.5 211.5q0 127 -85.5 212t-211 85t-213.5 84.5t-88 208.5q0 122 87.5 209.5t209.5 87.5q121 0 210 -86l-114 -117q-37 39 -96 39q-56 0 -95 -38.5t-39 -94.5q0 -55 39 -92t99 -37q125 0 231 -62t167.5 -169t61.5 -230 q0 -190 -135 -325.5t-325 -135.5q-198 0 -330 135zM279 1475q0 51 35.5 86.5t86.5 35.5q54 0 88.5 -34t34.5 -88t-34.5 -88.5t-88.5 -34.5q-52 0 -87 35.5t-35 87.5z" />
<glyph unicode="&#xc0;" horiz-adv-x="1597" d="M-57 0q348 654 848 1638l856 -1638h-172l-250 487h-863l-251 -487h-168zM449 651h692l-348 670zM627 2067h168l172 -328h-172z" />
<glyph unicode="&#xc1;" horiz-adv-x="1597" d="M-57 0q348 654 848 1638l856 -1638h-172l-250 487h-863l-251 -487h-168zM449 651h692l-348 670zM709 1739l172 328h168l-168 -328h-172z" />
<glyph unicode="&#xc2;" horiz-adv-x="1597" d="M-57 0q348 654 848 1638l856 -1638h-172l-250 487h-863l-251 -487h-168zM449 651h692l-348 670zM557 1741l170 330h158l172 -330h-164l-86 166l-86 -166h-164z" />
<glyph unicode="&#xc3;" horiz-adv-x="1597" d="M-57 0q348 654 848 1638l856 -1638h-172l-250 487h-863l-251 -487h-168zM397 1737q0 125 86 211t211 86q107 0 183.5 -63.5t119.5 -63.5q56 0 94.5 38.5t38.5 94.5h164q0 -125 -86 -211t-211 -86q-100 0 -180 63.5t-123 63.5q-56 0 -94.5 -38.5t-38.5 -94.5h-164z M449 651h692l-348 670z" />
<glyph unicode="&#xc4;" horiz-adv-x="1597" d="M-57 0q348 654 848 1638l856 -1638h-172l-250 487h-863l-251 -487h-168zM412 1860q0 53 35 88t88 35q54 0 88.5 -34.5t34.5 -88.5q0 -53 -35 -88t-88 -35q-52 0 -87.5 35.5t-35.5 87.5zM449 651h692l-348 670zM961 1860q0 53 35 88t88 35q54 0 88.5 -34.5t34.5 -88.5 q0 -53 -35 -88t-88 -35q-52 0 -87.5 35.5t-35.5 87.5z" />
<glyph unicode="&#xc5;" horiz-adv-x="1597" d="M-57 0q348 654 848 1638l856 -1638h-172l-250 487h-863l-251 -487h-168zM449 651h692l-348 670zM590 1907q0 85 60 145t145 60t145 -60t60 -145t-60 -145t-145 -60t-145 60t-60 145zM672 1907q0 -51 36 -87t87 -36q53 0 88 35t35 88q0 54 -34.5 88.5t-88.5 34.5 q-53 0 -88 -35t-35 -88z" />
<glyph unicode="&#xc6;" horiz-adv-x="2499" d="M-57 0q348 654 848 1638l20 -41h866l84 -163h-864l311 -594h736l84 -164h-736l269 -512h854l84 -164h-1024l-250 487h-863l-251 -487h-168zM449 651h692q-92 174 -348 670z" />
<glyph unicode="&#xc7;" horiz-adv-x="1577" d="M82 799q0 347 246.5 593t593.5 246q336 0 583 -237l-116 -113q-194 187 -467 187q-194 0 -350 -92q-161 -94 -247 -264q-79 -157 -79 -320q0 -176 83 -330.5t229 -249.5q155 -100 364 -100q274 0 467 186l116 -112q-244 -238 -583 -238q-349 0 -594.5 247.5t-245.5 596.5 zM735 -485l111 215q-49 35 -49 98q0 53 35 88t88 35q54 0 88.5 -34.5t34.5 -88.5q0 -32 -13 -57l-131 -256h-164z" />
<glyph unicode="&#xc8;" d="M82 0v1597h1024v-163h-860v-594h737v-164h-737v-512h860v-164h-1024zM340 2067h168l172 -328h-172z" />
<glyph unicode="&#xc9;" horiz-adv-x="1106" d="M82 0v1597h1024v-163h-860v-594h737v-164h-737v-512h860v-164h-1024zM420 1739l172 328h168l-168 -328h-172z" />
<glyph unicode="&#xca;" d="M82 0v1597h1024v-163h-860v-594h737v-164h-737v-512h860v-164h-1024zM338 1741l170 330h158l172 -330h-164l-86 166l-86 -166h-164z" />
<glyph unicode="&#xcb;" d="M82 0v1597h1024v-163h-860v-594h737v-164h-737v-512h860v-164h-1024zM205 1860q0 53 35 88t88 35q54 0 88.5 -34.5t34.5 -88.5q0 -53 -35 -88t-88 -35q-52 0 -87.5 35.5t-35.5 87.5zM754 1860q0 53 35 88t88 35q54 0 88.5 -34.5t34.5 -88.5q0 -53 -35 -88t-88 -35 q-52 0 -87.5 35.5t-35.5 87.5z" />
<glyph unicode="&#xcc;" horiz-adv-x="328" d="M-29 2067h168l172 -328h-172zM82 0v1597h164v-1597h-164z" />
<glyph unicode="&#xcd;" horiz-adv-x="328" d="M33 1739l172 328h168l-168 -328h-172zM82 0v1597h164v-1597h-164z" />
<glyph unicode="&#xce;" horiz-adv-x="328" d="M-74 1741l170 330h158l172 -330h-164l-86 166l-86 -166h-164zM82 0v1597h164v-1597h-164z" />
<glyph unicode="&#xcf;" horiz-adv-x="328" d="M-225 1860q0 53 35 88t88 35q54 0 88.5 -34.5t34.5 -88.5q0 -53 -35 -88t-88 -35q-52 0 -87.5 35.5t-35.5 87.5zM82 0v1597h164v-1597h-164zM324 1860q0 53 35 88t88 35q54 0 88.5 -34.5t34.5 -88.5q0 -53 -35 -88t-88 -35q-52 0 -87.5 35.5t-35.5 87.5z" />
<glyph unicode="&#xd1;" horiz-adv-x="840" d="M-43 1737q0 125 86 211t211 86q107 0 183.5 -63.5t119.5 -63.5q56 0 94.5 38.5t38.5 94.5h164q0 -125 -86 -211t-211 -86q-100 0 -180 63.5t-123 63.5q-56 0 -94.5 -38.5t-38.5 -94.5h-164zM82 0v1638l520 -1036v995h164v-1638l-520 1006v-965h-164z" />
<glyph unicode="&#xd2;" horiz-adv-x="1843" d="M82 799q0 347 246.5 593t593.5 246q348 0 593.5 -245.5t245.5 -593.5q0 -347 -246 -593.5t-593 -246.5t-593.5 246.5t-246.5 593.5zM246 799q0 -209 100 -363q94 -145 248 -229t328 -84q208 0 362 100q145 94 229 248t84 328q0 194 -93 352t-264 245q-156 79 -318 79 q-194 0 -351 -92q-160 -95 -246 -266q-79 -157 -79 -318zM709 2067h168l172 -328h-172z" />
<glyph unicode="&#xd3;" horiz-adv-x="1843" d="M82 799q0 347 246.5 593t593.5 246q348 0 593.5 -245.5t245.5 -593.5q0 -347 -246 -593.5t-593 -246.5t-593.5 246.5t-246.5 593.5zM246 799q0 -209 100 -363q94 -145 248 -229t328 -84q208 0 362 100q145 94 229 248t84 328q0 194 -93 352t-264 245q-156 79 -318 79 q-194 0 -351 -92q-160 -95 -246 -266q-79 -157 -79 -318zM782 1739l172 328h168l-168 -328h-172z" />
<glyph unicode="&#xd4;" horiz-adv-x="1843" d="M82 799q0 347 246.5 593t593.5 246q348 0 593.5 -245.5t245.5 -593.5q0 -347 -246 -593.5t-593 -246.5t-593.5 246.5t-246.5 593.5zM246 799q0 -209 100 -363q94 -145 248 -229t328 -84q208 0 362 100q145 94 229 248t84 328q0 194 -93 352t-264 245q-156 79 -318 79 q-194 0 -351 -92q-160 -95 -246 -266q-79 -157 -79 -318zM676 1741l170 330h158l172 -330h-164l-86 166l-86 -166h-164z" />
<glyph unicode="&#xd5;" horiz-adv-x="1843" d="M82 799q0 347 246.5 593t593.5 246q348 0 593.5 -245.5t245.5 -593.5q0 -347 -246 -593.5t-593 -246.5t-593.5 246.5t-246.5 593.5zM246 799q0 -209 100 -363q94 -145 248 -229t328 -84q208 0 362 100q145 94 229 248t84 328q0 194 -93 352t-264 245q-156 79 -318 79 q-194 0 -351 -92q-160 -95 -246 -266q-79 -157 -79 -318zM504 1737q0 125 86 211t211 86q107 0 183.5 -63.5t119.5 -63.5q56 0 94.5 38.5t38.5 94.5h164q0 -125 -86 -211t-211 -86q-100 0 -180 63.5t-123 63.5q-56 0 -94.5 -38.5t-38.5 -94.5h-164z" />
<glyph unicode="&#xd6;" horiz-adv-x="1843" d="M82 799q0 347 246.5 593t593.5 246q348 0 593.5 -245.5t245.5 -593.5q0 -347 -246 -593.5t-593 -246.5t-593.5 246.5t-246.5 593.5zM246 799q0 -209 100 -363q94 -145 248 -229t328 -84q208 0 362 100q145 94 229 248t84 328q0 194 -93 352t-264 245q-156 79 -318 79 q-194 0 -351 -92q-160 -95 -246 -266q-79 -157 -79 -318zM537 1860q0 53 35 88t88 35q54 0 88.5 -34.5t34.5 -88.5q0 -53 -35 -88t-88 -35q-52 0 -87.5 35.5t-35.5 87.5zM1086 1860q0 53 35 88t88 35q54 0 88.5 -34.5t34.5 -88.5q0 -53 -35 -88t-88 -35q-52 0 -87.5 35.5 t-35.5 87.5z" />
<glyph unicode="&#xd8;" horiz-adv-x="1843" d="M82 799q0 347 246.5 593t593.5 246q176 0 335 -69l37 69h191l-84 -151q171 -118 265.5 -299t94.5 -389q0 -347 -246 -593.5t-593 -246.5q-186 0 -357 80l-53 -82h-190l102 166q-162 119 -252 297t-90 379zM246 799q0 -336 258 -537l672 1163q-118 50 -254 50 q-209 0 -363 -100q-145 -94 -229 -248.5t-84 -327.5zM647 182q130 -59 275 -59q208 0 362 100q145 94 229 248.5t84 327.5q0 355 -276 547z" />
<glyph unicode="&#xd9;" d="M82 471v1126h164v-1126q0 -142 99 -245t241 -103q144 0 246 102t102 246v1126h164v-1126q0 -213 -149.5 -362.5t-362.5 -149.5q-210 0 -357 151t-147 361zM365 2067h168l172 -328h-172z" />
<glyph unicode="&#xda;" d="M82 471v1126h164v-1126q0 -142 99 -245t241 -103q144 0 246 102t102 246v1126h164v-1126q0 -213 -149.5 -362.5t-362.5 -149.5q-210 0 -357 151t-147 361zM420 1739l172 328h168l-168 -328h-172z" />
<glyph unicode="&#xdb;" d="M82 471v1126h164v-1126q0 -142 99 -245t241 -103q144 0 246 102t102 246v1126h164v-1126q0 -213 -149.5 -362.5t-362.5 -149.5q-210 0 -357 151t-147 361zM344 1741l170 330h158l172 -330h-164l-86 166l-86 -166h-164z" />
<glyph unicode="&#xdc;" d="M82 471v1126h164v-1126q0 -142 99 -245t241 -103q144 0 246 102t102 246v1126h164v-1126q0 -213 -149.5 -362.5t-362.5 -149.5q-210 0 -357 151t-147 361zM205 1860q0 53 35 88t88 35q54 0 88.5 -34.5t34.5 -88.5q0 -53 -35 -88t-88 -35q-52 0 -87.5 35.5t-35.5 87.5z M754 1860q0 53 35 88t88 35q54 0 88.5 -34.5t34.5 -88.5q0 -53 -35 -88t-88 -35q-52 0 -87.5 35.5t-35.5 87.5z" />
<glyph unicode="&#xdf;" d="M82 0v1597h164v-147q123 188 344 188q170 0 289.5 -119.5t119.5 -289.5q0 -196 -147 -316q118 -69 186 -187t68 -255q0 -213 -149.5 -362.5t-362.5 -149.5q-200 0 -348 135l116 117q99 -88 232 -88q144 0 246 102t102 246q0 145 -101.5 246.5t-246.5 101.5v164 q102 0 172 71.5t70 174.5t-71.5 174.5t-174.5 71.5q-99 0 -152 -54l-192 -194v-1227h-164z" />
<glyph unicode="&#xe0;" d="M82 471q0 213 149.5 362.5t362.5 149.5q200 0 348 -137v96h164v-942h-164v94q-148 -135 -348 -135q-213 0 -362.5 149.5t-149.5 362.5zM246 471q0 -145 101.5 -246.5t246.5 -101.5q144 0 246 102t102 246q0 145 -101.5 246.5t-246.5 101.5t-246.5 -101.5t-101.5 -246.5z M395 1600h168l172 -328h-172z" />
<glyph unicode="&#xe1;" d="M82 471q0 213 149.5 362.5t362.5 149.5q200 0 348 -137v96h164v-942h-164v94q-148 -135 -348 -135q-213 0 -362.5 149.5t-149.5 362.5zM246 471q0 -145 101.5 -246.5t246.5 -101.5q144 0 246 102t102 246q0 145 -101.5 246.5t-246.5 101.5t-246.5 -101.5t-101.5 -246.5z M481 1272l172 328h168l-168 -328h-172z" />
<glyph unicode="&#xe2;" d="M82 471q0 213 149.5 362.5t362.5 149.5q200 0 348 -137v96h164v-942h-164v94q-148 -135 -348 -135q-213 0 -362.5 149.5t-149.5 362.5zM246 471q0 -145 101.5 -246.5t246.5 -101.5q144 0 246 102t102 246q0 145 -101.5 246.5t-246.5 101.5t-246.5 -101.5t-101.5 -246.5z M338 1268l170 330h158l172 -330h-164l-86 166l-86 -166h-164z" />
<glyph unicode="&#xe3;" d="M82 471q0 213 149.5 362.5t362.5 149.5q200 0 348 -137v96h164v-942h-164v94q-148 -135 -348 -135q-213 0 -362.5 149.5t-149.5 362.5zM166 1295q0 125 86 211t211 86q107 0 183.5 -63.5t119.5 -63.5q56 0 94.5 38.5t38.5 94.5h164q0 -125 -86 -211t-211 -86 q-100 0 -180 63.5t-123 63.5q-56 0 -94.5 -38.5t-38.5 -94.5h-164zM246 471q0 -145 101.5 -246.5t246.5 -101.5q144 0 246 102t102 246q0 145 -101.5 246.5t-246.5 101.5t-246.5 -101.5t-101.5 -246.5z" />
<glyph unicode="&#xe4;" d="M82 471q0 213 149.5 362.5t362.5 149.5q200 0 348 -137v96h164v-942h-164v94q-148 -135 -348 -135q-213 0 -362.5 149.5t-149.5 362.5zM199 1473q0 53 35 88t88 35q54 0 88.5 -34.5t34.5 -88.5q0 -53 -35 -88t-88 -35q-52 0 -87.5 35.5t-35.5 87.5zM246 471 q0 -145 101.5 -246.5t246.5 -101.5q144 0 246 102t102 246q0 145 -101.5 246.5t-246.5 101.5t-246.5 -101.5t-101.5 -246.5zM748 1473q0 53 35 88t88 35q54 0 88.5 -34.5t34.5 -88.5q0 -53 -35 -88t-88 -35q-52 0 -87.5 35.5t-35.5 87.5z" />
<glyph unicode="&#xe5;" d="M82 471q0 213 149.5 362.5t362.5 149.5q200 0 348 -137v96h164v-942h-164v94q-148 -135 -348 -135q-213 0 -362.5 149.5t-149.5 362.5zM246 471q0 -145 101.5 -246.5t246.5 -101.5q144 0 246 102t102 246q0 145 -101.5 246.5t-246.5 101.5t-246.5 -101.5t-101.5 -246.5z M389 1434q0 85 60 145t145 60t145 -60t60 -145t-60 -145t-145 -60t-145 60t-60 145zM471 1434q0 -51 36 -87t87 -36q53 0 88 35t35 88q0 54 -34.5 88.5t-88.5 34.5q-53 0 -88 -35t-35 -88z" />
<glyph unicode="&#xe6;" horiz-adv-x="2048" d="M82 471q0 213 149.5 362.5t362.5 149.5q200 0 348 -137v139h164v-137q148 135 348 135q213 0 362.5 -149.5t149.5 -362.5q0 -41 -6 -82h-844q29 -118 122.5 -192t215.5 -74q131 0 232 88l116 -117q-148 -135 -348 -135q-201 0 -348 137v-137h-164v135 q-148 -135 -348 -135q-213 0 -362.5 149.5t-149.5 362.5zM246 471q0 -145 101.5 -246.5t246.5 -101.5q144 0 246 102t102 246q0 145 -101.5 246.5t-246.5 101.5t-246.5 -101.5t-101.5 -246.5zM1116 553h676q-27 117 -122 191.5t-216 74.5q-122 0 -215.5 -74t-122.5 -192z " />
<glyph unicode="&#xe7;" horiz-adv-x="1024" d="M82 471q0 213 149.5 362.5t362.5 149.5q200 0 348 -137l-117 -115q-98 88 -231 88q-145 0 -246.5 -101.5t-101.5 -246.5t101.5 -246.5t246.5 -101.5q133 0 231 88l117 -117q-148 -135 -348 -135q-213 0 -362.5 149.5t-149.5 362.5zM415 -479l111 215q-49 35 -49 98 q0 53 35 88t88 35q54 0 88.5 -34.5t34.5 -88.5q0 -32 -13 -57l-131 -256h-164z" />
<glyph unicode="&#xe8;" d="M82 471q0 213 149.5 362.5t362.5 149.5t362.5 -149.5t149.5 -362.5q0 -41 -6 -82h-844q29 -118 122.5 -192t215.5 -74q133 0 231 88l117 -117q-148 -135 -348 -135q-213 0 -362.5 149.5t-149.5 362.5zM256 553h676q-27 117 -122 191.5t-216 74.5q-122 0 -215.5 -74 t-122.5 -192zM383 1600h168l172 -328h-172z" />
<glyph unicode="&#xe9;" d="M82 471q0 213 149.5 362.5t362.5 149.5t362.5 -149.5t149.5 -362.5q0 -41 -6 -82h-844q29 -118 122.5 -192t215.5 -74q133 0 231 88l117 -117q-148 -135 -348 -135q-213 0 -362.5 149.5t-149.5 362.5zM256 553h676q-27 117 -122 191.5t-216 74.5q-122 0 -215.5 -74 t-122.5 -192zM463 1272l172 328h168l-168 -328h-172z" />
<glyph unicode="&#xea;" d="M82 471q0 213 149.5 362.5t362.5 149.5t362.5 -149.5t149.5 -362.5q0 -41 -6 -82h-844q29 -118 122.5 -192t215.5 -74q133 0 231 88l117 -117q-148 -135 -348 -135q-213 0 -362.5 149.5t-149.5 362.5zM256 553h676q-27 117 -122 191.5t-216 74.5q-122 0 -215.5 -74 t-122.5 -192zM344 1268l170 330h158l172 -330h-164l-86 166l-86 -166h-164z" />
<glyph unicode="&#xeb;" d="M82 471q0 213 149.5 362.5t362.5 149.5t362.5 -149.5t149.5 -362.5q0 -41 -6 -82h-844q29 -118 122.5 -192t215.5 -74q133 0 231 88l117 -117q-148 -135 -348 -135q-213 0 -362.5 149.5t-149.5 362.5zM205 1473q0 53 35 88t88 35q54 0 88.5 -34.5t34.5 -88.5 q0 -53 -35 -88t-88 -35q-52 0 -87.5 35.5t-35.5 87.5zM256 553h676q-27 117 -122 191.5t-216 74.5q-122 0 -215.5 -74t-122.5 -192zM754 1473q0 53 35 88t88 35q54 0 88.5 -34.5t34.5 -88.5q0 -53 -35 -88t-88 -35q-52 0 -87.5 35.5t-35.5 87.5z" />
<glyph unicode="&#xec;" horiz-adv-x="328" d="M-22 1600h168l172 -328h-172zM82 0v942h164v-942h-164z" />
<glyph unicode="&#xed;" horiz-adv-x="328" d="M8 1266l172 328h168l-168 -328h-172zM82 0v942h164v-942h-164z" />
<glyph unicode="&#xee;" horiz-adv-x="328" d="M-80 1268l170 330h158l172 -330h-164l-86 166l-86 -166h-164zM82 0v942h164v-942h-164z" />
<glyph unicode="&#xef;" horiz-adv-x="328" d="M-207 1473q0 53 35 88t88 35q54 0 88.5 -34.5t34.5 -88.5q0 -53 -35 -88t-88 -35q-52 0 -87.5 35.5t-35.5 87.5zM82 0v942h164v-942h-164zM342 1473q0 53 35 88t88 35q54 0 88.5 -34.5t34.5 -88.5q0 -53 -35 -88t-88 -35q-52 0 -87.5 35.5t-35.5 87.5z" />
<glyph unicode="&#xf1;" d="M82 0v942h164v-96q147 137 348 137q213 0 362.5 -149.5t149.5 -362.5v-471h-164v471q0 145 -101.5 246.5t-246.5 101.5t-246.5 -101.5t-101.5 -246.5v-471h-164zM148 1295q0 125 86 211t211 86q107 0 183.5 -63.5t119.5 -63.5q56 0 94.5 38.5t38.5 94.5h164 q0 -125 -86 -211t-211 -86q-100 0 -180 63.5t-123 63.5q-56 0 -94.5 -38.5t-38.5 -94.5h-164z" />
<glyph unicode="&#xf2;" d="M82 471q0 213 149.5 362.5t362.5 149.5t362.5 -149.5t149.5 -362.5t-149.5 -362.5t-362.5 -149.5t-362.5 149.5t-149.5 362.5zM246 471q0 -145 101.5 -246.5t246.5 -101.5q144 0 246 102t102 246q0 145 -101.5 246.5t-246.5 101.5t-246.5 -101.5t-101.5 -246.5zM401 1606 h168l172 -328h-172z" />
<glyph unicode="&#xf3;" d="M82 471q0 213 149.5 362.5t362.5 149.5t362.5 -149.5t149.5 -362.5t-149.5 -362.5t-362.5 -149.5t-362.5 149.5t-149.5 362.5zM246 471q0 -145 101.5 -246.5t246.5 -101.5q144 0 246 102t102 246q0 145 -101.5 246.5t-246.5 101.5t-246.5 -101.5t-101.5 -246.5zM481 1272 l172 328h168l-168 -328h-172z" />
<glyph unicode="&#xf4;" d="M82 471q0 213 149.5 362.5t362.5 149.5t362.5 -149.5t149.5 -362.5t-149.5 -362.5t-362.5 -149.5t-362.5 149.5t-149.5 362.5zM246 471q0 -145 101.5 -246.5t246.5 -101.5q144 0 246 102t102 246q0 145 -101.5 246.5t-246.5 101.5t-246.5 -101.5t-101.5 -246.5zM350 1268 l170 330h158l172 -330h-164l-86 166l-86 -166h-164z" />
<glyph unicode="&#xf5;" d="M82 471q0 213 149.5 362.5t362.5 149.5t362.5 -149.5t149.5 -362.5t-149.5 -362.5t-362.5 -149.5t-362.5 149.5t-149.5 362.5zM141 1295q0 125 86 211t211 86q107 0 183.5 -63.5t119.5 -63.5q56 0 94.5 38.5t38.5 94.5h164q0 -125 -86 -211t-211 -86q-100 0 -180 63.5 t-123 63.5q-56 0 -94.5 -38.5t-38.5 -94.5h-164zM246 471q0 -145 101.5 -246.5t246.5 -101.5q144 0 246 102t102 246q0 145 -101.5 246.5t-246.5 101.5t-246.5 -101.5t-101.5 -246.5z" />
<glyph unicode="&#xf6;" d="M82 471q0 213 149.5 362.5t362.5 149.5t362.5 -149.5t149.5 -362.5t-149.5 -362.5t-362.5 -149.5t-362.5 149.5t-149.5 362.5zM229 1473q0 53 35 88t88 35q54 0 88.5 -34.5t34.5 -88.5q0 -53 -35 -88t-88 -35q-52 0 -87.5 35.5t-35.5 87.5zM246 471q0 -145 101.5 -246.5 t246.5 -101.5q144 0 246 102t102 246q0 145 -101.5 246.5t-246.5 101.5t-246.5 -101.5t-101.5 -246.5zM778 1473q0 53 35 88t88 35q54 0 88.5 -34.5t34.5 -88.5q0 -53 -35 -88t-88 -35q-52 0 -87.5 35.5t-35.5 87.5z" />
<glyph unicode="&#xf8;" d="M82 471q0 213 149.5 362.5t362.5 149.5q95 0 176 -31l18 31h191l-66 -113q193 -150 193 -399q0 -213 -149.5 -362.5t-362.5 -149.5q-96 0 -186 35l-21 -35h-190l69 119q-184 152 -184 393zM246 471q0 -144 104 -248l336 584q-43 12 -92 12q-145 0 -246.5 -101.5 t-101.5 -246.5zM492 137q56 -14 102 -14q144 0 246 102t102 246q0 155 -113 256z" />
<glyph unicode="&#xf9;" d="M82 471v471h164v-471q0 -142 99 -245t241 -103q144 0 246 102t102 246v471h164v-471q0 -213 -149.5 -362.5t-362.5 -149.5q-210 0 -357 151t-147 361zM451 1643h168l172 -328h-172z" />
<glyph unicode="&#xfa;" d="M82 471v471h164v-471q0 -142 99 -245t241 -103q144 0 246 102t102 246v471h164v-471q0 -213 -149.5 -362.5t-362.5 -149.5q-210 0 -357 151t-147 361zM469 1272l172 328h168l-168 -328h-172z" />
<glyph unicode="&#xfb;" d="M82 471v471h164v-471q0 -142 99 -245t241 -103q144 0 246 102t102 246v471h164v-471q0 -213 -149.5 -362.5t-362.5 -149.5q-210 0 -357 151t-147 361zM344 1311l170 330h158l172 -330h-164l-86 166l-86 -166h-164z" />
<glyph unicode="&#xfc;" d="M82 471v471h164v-471q0 -142 99 -245t241 -103q144 0 246 102t102 246v471h164v-471q0 -213 -149.5 -362.5t-362.5 -149.5q-210 0 -357 151t-147 361zM193 1473q0 53 35 88t88 35q54 0 88.5 -34.5t34.5 -88.5q0 -53 -35 -88t-88 -35q-52 0 -87.5 35.5t-35.5 87.5z M742 1473q0 53 35 88t88 35q54 0 88.5 -34.5t34.5 -88.5q0 -53 -35 -88t-88 -35q-52 0 -87.5 35.5t-35.5 87.5z" />
<glyph unicode="&#xff;" d="M82 942h164l342 -666l346 666h164l-791 -1515h-164l361 690zM193 1473q0 53 35 88t88 35q54 0 88.5 -34.5t34.5 -88.5q0 -53 -35 -88t-88 -35q-52 0 -87.5 35.5t-35.5 87.5zM742 1473q0 53 35 88t88 35q54 0 88.5 -34.5t34.5 -88.5q0 -53 -35 -88t-88 -35 q-52 0 -87.5 35.5t-35.5 87.5z" />
<glyph unicode="&#x152;" horiz-adv-x="2621" d="M0 799q0 347 246.5 593t593.5 246q200 0 377 -90.5t299 -251.5v301h1024v-163h-861v-594h738v-164h-738v-512h861v-164h-1024v303q-118 -163 -296 -253.5t-380 -90.5q-347 0 -593.5 246.5t-246.5 593.5zM164 799q0 -209 100 -363q94 -145 248 -229t328 -84q209 0 363 100 q145 94 229 248t84 328q0 194 -92 351q-95 160 -266 246q-157 79 -318 79q-194 0 -351 -92q-160 -95 -246 -266q-79 -157 -79 -318z" />
<glyph unicode="&#x153;" horiz-adv-x="2048" d="M82 471q0 213 149.5 362.5t362.5 149.5q279 0 430 -233q70 109 185.5 171t244.5 62q213 0 362.5 -149.5t149.5 -362.5q0 -41 -6 -82h-844q29 -118 122.5 -192t215.5 -74q131 0 232 88l116 -117q-148 -135 -348 -135q-131 0 -245.5 62.5t-184.5 173.5 q-68 -111 -183.5 -173.5t-246.5 -62.5q-213 0 -362.5 149.5t-149.5 362.5zM246 471q0 -145 101.5 -246.5t246.5 -101.5q144 0 246 102t102 246q0 145 -101.5 246.5t-246.5 101.5t-246.5 -101.5t-101.5 -246.5zM1116 553h676q-27 117 -122 191.5t-216 74.5q-122 0 -215.5 -74 t-122.5 -192z" />
<glyph unicode="&#x178;" d="M82 1597h164l342 -665l346 665h164l-430 -825v-772h-164v774zM217 1860q0 51 35.5 86.5t87.5 35.5q54 0 88.5 -34t34.5 -88t-34.5 -88.5t-88.5 -34.5q-52 0 -87.5 35.5t-35.5 87.5zM766 1860q0 51 35.5 86.5t87.5 35.5q54 0 88.5 -34t34.5 -88t-34.5 -88.5t-88.5 -34.5 q-52 0 -87.5 35.5t-35.5 87.5z" />
<glyph unicode="&#x2c6;" horiz-adv-x="676" d="M92 1409l170 330h158l172 -330h-164l-86 166l-86 -166h-164z" />
<glyph unicode="&#x2dc;" horiz-adv-x="1065" d="M80 1479q0 125 86 211t211 86q107 0 183.5 -63.5t119.5 -63.5q56 0 94.5 38.5t38.5 94.5h164q0 -125 -86 -211t-211 -86q-100 0 -180 63.5t-123 63.5q-56 0 -94.5 -38.5t-38.5 -94.5h-164z" />
<glyph unicode="&#x2000;" horiz-adv-x="1056" />
<glyph unicode="&#x2001;" horiz-adv-x="2112" />
<glyph unicode="&#x2002;" horiz-adv-x="1056" />
<glyph unicode="&#x2003;" horiz-adv-x="2112" />
<glyph unicode="&#x2004;" horiz-adv-x="704" />
<glyph unicode="&#x2005;" horiz-adv-x="528" />
<glyph unicode="&#x2006;" horiz-adv-x="352" />
<glyph unicode="&#x2007;" horiz-adv-x="352" />
<glyph unicode="&#x2008;" horiz-adv-x="264" />
<glyph unicode="&#x2009;" horiz-adv-x="422" />
<glyph unicode="&#x200a;" horiz-adv-x="117" />
<glyph unicode="&#x2010;" horiz-adv-x="1024" d="M82 473v164h862v-164h-862z" />
<glyph unicode="&#x2011;" horiz-adv-x="1024" d="M82 473v164h862v-164h-862z" />
<glyph unicode="&#x2012;" horiz-adv-x="1024" d="M82 473v164h862v-164h-862z" />
<glyph unicode="&#x2013;" d="M82 473v164h1026v-164h-1026z" />
<glyph unicode="&#x2014;" horiz-adv-x="2212" d="M82 473v164h2050v-164h-2050z" />
<glyph unicode="&#x2018;" horiz-adv-x="410" d="M80 1659q0 54 34.5 88.5t88.5 34.5q52 0 87.5 -35.5t35.5 -87.5q0 -64 -50 -98l111 -215h-164l-131 256q-1 1 -1 3q-11 22 -11 54z" />
<glyph unicode="&#x2019;" horiz-adv-x="389" d="M20 1346l111 215q-49 35 -49 98q0 53 35 88t88 35q54 0 88.5 -34.5t34.5 -88.5q0 -32 -13 -57l-131 -256h-164z" />
<glyph unicode="&#x201a;" horiz-adv-x="410" d="M-82 -188l111 215q-49 35 -49 98q0 52 35 87.5t87 35.5q55 0 89 -34t34 -89q0 -34 -12 -57l-131 -256h-164z" />
<glyph unicode="&#x201c;" horiz-adv-x="778" d="M80 1659q0 54 34.5 88.5t88.5 34.5q52 0 87.5 -35.5t35.5 -87.5q0 -64 -50 -98l111 -215h-164l-131 256q-1 1 -1 3q-11 22 -11 54zM467 1659q0 54 34.5 88.5t88.5 34.5q52 0 87.5 -35.5t35.5 -87.5q0 -64 -50 -98l111 -215h-164l-131 256q-1 1 -1 3q-11 22 -11 54z" />
<glyph unicode="&#x201d;" horiz-adv-x="778" d="M0 1346l111 215q-50 35 -50 98q0 51 36 87t87 36q55 0 89 -34t34 -89q0 -34 -12 -57l-131 -256h-164zM387 1346l111 215q-49 35 -49 98q0 52 35 87.5t87 35.5q55 0 89 -34t34 -89q0 -34 -12 -57l-131 -256h-164z" />
<glyph unicode="&#x201e;" horiz-adv-x="778" d="M-82 -190l111 215q-49 35 -49 98q0 52 35 87.5t87 35.5q55 0 89 -34t34 -89q0 -34 -12 -57l-131 -256h-164zM305 -190l111 215q-49 35 -49 98q0 52 35 87.5t87 35.5q55 0 89 -34t34 -89q0 -34 -12 -57l-131 -256h-164z" />
<glyph unicode="&#x2022;" horiz-adv-x="737" d="M82 954q0 122 82 204.5t205 82.5q124 0 205 -81t81 -206q0 -123 -81.5 -204.5t-204.5 -81.5q-121 0 -204 82t-83 204z" />
<glyph unicode="&#x2026;" horiz-adv-x="1229" d="M82 123q0 53 35 88t88 35q54 0 88.5 -34.5t34.5 -88.5q0 -53 -35 -88t-88 -35q-52 0 -87.5 35.5t-35.5 87.5zM492 123q0 52 35 87.5t87 35.5q55 0 89 -34t34 -89q0 -54 -34.5 -88.5t-88.5 -34.5q-52 0 -87 35.5t-35 87.5zM901 123q0 53 35 88t88 35q55 0 89 -34t34 -89 q0 -54 -34.5 -88.5t-88.5 -34.5q-52 0 -87.5 35.5t-35.5 87.5z" />
<glyph unicode="&#x202f;" horiz-adv-x="422" />
<glyph unicode="&#x2039;" horiz-adv-x="983" d="M82 428l819 424v-168l-502 -258l502 -258v-168z" />
<glyph unicode="&#x203a;" horiz-adv-x="983" d="M82 0v168l502 258l-502 258v168l819 -424z" />
<glyph unicode="&#x205f;" horiz-adv-x="528" />
<glyph unicode="&#x2122;" horiz-adv-x="1270" d="M0 1516v83h451v-83h-183v-717h-82l-2 717h-184zM492 799v819l342 -680l346 680v-819h-84v489l-265 -510l-256 504v-483h-83z" />
<glyph unicode="&#x25fc;" horiz-adv-x="940" d="M0 0v940h940v-940h-940z" />
</font>
</defs>
</svg>
