<?xml version="1.0" standalone="no"?>
<!DOCTYPE svg PUBLIC "-//W3C//DTD SVG 1.1//EN" "http://www.w3.org/Graphics/SVG/1.1/DTD/svg11.dtd" >
<svg xmlns="http://www.w3.org/2000/svg" xmlns:xlink="http://www.w3.org/1999/xlink" version="1.1">
<metadata></metadata>
<defs>
<font id="bn_emulatorregular" horiz-adv-x="1380" >
<font-face units-per-em="2048" ascent="1638" descent="-410" />
<missing-glyph horiz-adv-x="1024" />
<glyph horiz-adv-x="0" />
<glyph unicode="&#xd;" horiz-adv-x="1024" />
<glyph unicode=" "  horiz-adv-x="1024" />
<glyph unicode="&#x09;" horiz-adv-x="1024" />
<glyph unicode="&#xa0;" horiz-adv-x="1024" />
<glyph unicode="!" horiz-adv-x="526" d="M98 102v125q0 43 31 73t72 30h125q43 0 72.5 -30t29.5 -73v-125q0 -43 -29.5 -72.5t-72.5 -29.5h-125q-41 0 -72 29.5t-31 72.5zM98 512v944q0 43 31 73t72 30h125q43 0 72.5 -30t29.5 -73v-944q0 -43 -29.5 -72.5t-72.5 -29.5h-125q-41 0 -72 29.5t-31 72.5z" />
<glyph unicode="&#x22;" horiz-adv-x="962" d="M111 1331v125q0 43 30.5 73t71.5 30h125q43 0 72.5 -30t29.5 -73v-125q0 -43 -29.5 -72.5t-72.5 -29.5h-125q-41 0 -71.5 29.5t-30.5 72.5zM520 1331v125q0 43 31 73t72 30h125q43 0 72.5 -30t29.5 -73v-125q0 -43 -29.5 -72.5t-72.5 -29.5h-125q-41 0 -72 29.5t-31 72.5 z" />
<glyph unicode="#" horiz-adv-x="1718" d="M80 385q0 109 53 133q25 12 152 12q0 12 -2 39v39q0 43 10 70q-12 27 -12 74q0 102 12 131q-8 18 -8 137q-141 0 -170 22q-35 29 -35 162q0 109 53 133q25 12 152 13q0 147 25.5 178t164.5 31q104 0 129 -58q10 -25 10 -151q12 0 37 2h39q41 0 68 -11q27 12 73 13 q102 0 132 -13q18 8 141 9q0 147 25.5 178t164.5 31q104 0 129 -58q10 -25 11 -151q141 0 170 -23q35 -29 34 -162q0 -109 -53 -133q-24 -12 -151 -12q0 -12 2 -37v-35q0 -41 -11 -65q12 -29 13 -76q0 -102 -13 -129q8 -20 11 -49q2 -18 0 -49q-2 -41 -2 -50q141 0 170 -22 q35 -29 34 -162q0 -109 -53 -133q-25 -12 -151 -12q0 -137 -23 -166q-29 -35 -156 -35q-113 0 -137 47q-14 27 -14 154q-12 0 -37 -2h-37q-43 0 -67 10q-29 -12 -76 -12q-102 0 -129 12q-20 -8 -144 -8q0 -137 -22 -166q-29 -35 -156 -35q-113 0 -137 47q-14 27 -14 154 q-141 0 -170 22q-35 29 -35 162zM285 201h22q43 0 73 29.5t30 72.5v27h-23q-43 0 -72.5 -30t-29.5 -73v-26zM285 512q0 -43 29.5 -72.5t72.5 -29.5h23v18q0 43 -30 72.5t-73 29.5h-22v-18zM285 1020h22q43 0 73 29.5t30 72.5v27h-23q-43 0 -72.5 -29.5t-29.5 -72.5v-27z M285 1331q0 -43 29.5 -72.5t72.5 -29.5h23v18q0 43 -30 73t-73 30h-22v-19zM410 330h79v80h-79v-80zM410 1149h79v80h-79v-80zM489 303q0 -43 30 -72.5t73 -29.5h22v26q0 43 -29.5 73t-72.5 30h-23v-27zM489 410h23q43 0 72.5 29.5t29.5 72.5v18h-22q-43 0 -73 -29.5 t-30 -72.5v-18zM489 1122q0 -43 30 -72.5t73 -29.5h22v27q0 43 -29.5 72.5t-72.5 29.5h-23v-27zM489 1229h23q43 0 72.5 29.5t29.5 72.5v19h-22q-43 0 -73 -30t-30 -73v-18zM606 678q8 -20 10 -49q2 -18 0 -49q-2 -39 -2 -50q12 0 37 2h37q43 0 70 -10q18 8 37 8h129 q18 0 39 -8q18 8 45 10q18 2 49 0q37 -2 47 -2q0 12 -2 39v39q0 43 10 70q-8 18 -8 37v129q0 18 8 39q-8 18 -8 137q-12 0 -37 -2h-37q-43 0 -67 10q-20 -8 -39 -8h-129q-18 0 -37 8q-20 -8 -47 -10q-18 -2 -49 0q-37 2 -48 2q0 -12 2 -37v-35q0 -41 -10 -65q8 -20 8 -39 v-129q0 -18 -8 -37zM1104 201h22q43 0 73 29.5t30 72.5v27h-23q-43 0 -72.5 -30t-29.5 -73v-26zM1104 512q0 -43 29.5 -72.5t72.5 -29.5h23v18q0 43 -30 72.5t-73 29.5h-22v-18zM1104 1020h22q43 0 73 29.5t30 72.5v27h-23q-43 0 -72.5 -29.5t-29.5 -72.5v-27zM1104 1331 q0 -43 29.5 -72.5t72.5 -29.5h23v18q0 43 -30 73t-73 30h-22v-19zM1229 330h80v80h-80v-80zM1229 1149h80v80h-80v-80zM1309 303q0 -43 29.5 -72.5t72.5 -29.5h23v26q0 43 -30 73t-73 30h-22v-27zM1309 410h22q43 0 73 29.5t30 72.5v18h-23q-43 0 -72.5 -29.5t-29.5 -72.5 v-18zM1309 1122q0 -43 29.5 -72.5t72.5 -29.5h23v27q0 43 -30 72.5t-73 29.5h-22v-27zM1309 1229h22q43 0 73 29.5t30 72.5v19h-23q-43 0 -72.5 -30t-29.5 -73v-18z" />
<glyph unicode="$" horiz-adv-x="1308" d="M78 1225q0 80 37 104.5t170 24.5q0 147 28.5 176t175.5 29v55q-2 150 103 149h125q76 0 96 -71q6 -27 6 -133q147 0 176 -29t29 -176q143 0 172 -23q33 -29 33 -162q0 -145 -103 -145h-125q-76 0 -94 72q-8 27 -8 133q-147 0 -176 28.5t-29 176.5h-80q0 -147 -28.5 -176 t-175.5 -29v-285h387q168 0 194 -22q33 -29 33 -183q162 0 190 -47q16 -29 17 -207v-182q-6 -61 -46 -79.5t-161 -18.5q0 -147 -28.5 -176t-176.5 -29l2 -55q2 -150 -104 -150h-125q-76 0 -94 72q-8 27 -9 133q-147 0 -175.5 28.5t-28.5 176.5q-141 0 -170 22 q-35 29 -35 162q0 145 102 146h125q76 0 96 -72q6 -27 7 -133q147 0 175.5 -29t28.5 -176h80q0 147 29 176t176 29q0 23 2 71v71v71q-2 49 -2 71h-387q-166 0 -196.5 26t-30.5 179q-160 0 -189 45q-16 27 -16 205q0 10 2 18q0 27 -2 76q-2 43 -2 62z" />
<glyph unicode="%" horiz-adv-x="1273" d="M61 152q0 129 39 157q29 20 168 21v307q0 76 72 94q27 8 133 8q0 147 27.5 176t177.5 29v307q0 76 72 95q27 8 133 8l-2 55q-2 150 104 150h125q102 0 102 -152q0 -129 -38 -158q-29 -20 -166 -20v-307q0 -76 -72 -95q-29 -8 -133 -8q0 -147 -29 -176t-176 -29v-307 q0 -76 -72 -94q-29 -8 -133 -8v-55q2 -150 -102 -150h-125q-104 0 -105 152zM63 1331v125q0 43 30 73t73 30h125q41 0 71.5 -30t30.5 -73v-125q0 -43 -30.5 -72.5t-71.5 -29.5h-125q-43 0 -73 29.5t-30 72.5zM883 102v125q0 43 29.5 73t72.5 30h125q41 0 71.5 -30t30.5 -73 v-125q0 -43 -30.5 -72.5t-71.5 -29.5h-125q-43 0 -72.5 29.5t-29.5 72.5z" />
<glyph unicode="&#x26;" horiz-adv-x="1316" d="M84 375v262q0 76 72 94q27 8 133 8v80q-137 0 -164 19q-41 29 -41 151v262q0 76 72 95q27 8 133 8v55q-2 150 102 150h535q76 0 94 -72q8 -27 8 -133q137 0 164 -19q41 -29 41 -151v-262q0 -43 -29.5 -73t-73.5 -30h-124q-80 0 -99 82q-6 25 -6 146v182h-487v-285h307 q76 0 94 -72q8 -27 8 -133q147 0 176 -28.5t29 -175.5q143 0 170 -23q35 -29 35 -162q0 -109 -53 -133q-25 -12 -152 -12v-55q2 -150 -102 -150h-535q-76 0 -94 72q-8 27 -8 133q-137 0 -164 18q-41 29 -41 152zM414 330h489v80q-147 0 -176 28.5t-29 175.5h-284v-284z" />
<glyph unicode="'" horiz-adv-x="552" d="M111 1331v125q0 43 30.5 73t71.5 30h125q43 0 72.5 -30t29.5 -73v-125q0 -43 -29.5 -72.5t-72.5 -29.5h-125q-41 0 -71.5 29.5t-30.5 72.5z" />
<glyph unicode="(" horiz-adv-x="874" d="M66 375v876q0 76 71 95q29 8 133 8v55q-2 150 103 150h329q104 0 105 -152q0 -84 -12 -117q-23 -61 -93 -61h-307v-899h307q104 0 105 -152q0 -84 -12 -117q-23 -61 -93 -61h-329q-76 0 -94 72q-8 27 -9 133q-135 0 -164 18q-41 29 -40 152z" />
<glyph unicode=")" horiz-adv-x="919" d="M88 178q0 152 105 152h307v899h-307q-70 0 -93 61q-12 33 -12 117q0 152 105 152h329q76 0 96 -72q6 -27 7 -133h55q150 2 149 -103v-876q0 -123 -38 -152q-29 -18 -166 -18l2 -55q0 -150 -105 -150h-329q-70 0 -93 61q-12 33 -12 117z" />
<glyph unicode="*" horiz-adv-x="1304" d="M78 922v125q0 76 72 94q27 8 133 8q0 147 28.5 176t175.5 29v55q-2 150 103 150h125q76 0 96 -72q6 -27 6 -133q147 0 176 -29t29 -176h55q150 2 150 -102v-125q0 -76 -72 -95q-27 -8 -133 -8q0 -147 -28.5 -176t-176.5 -29v-55q2 -150 -102 -149h-125q-76 0 -94 71 q-8 27 -9 133q-147 0 -175.5 29t-28.5 176h-56q-150 -2 -149 103zM408 944h79v80h-79v-80zM612 739h80v80h-80v-80zM612 1149h80v80h-80v-80zM817 944h80v80h-80v-80z" />
<glyph unicode="+" horiz-adv-x="1284" d="M68 512v125q0 80 84 98q18 4 143 4q35 0 41 -2q102 2 143 2q0 49 2 146q-6 12 -6 106q0 160 107 160h125q82 0 98 -84q4 -18 4 -143v-185q35 0 141 -2q12 6 107 6q160 0 160 -106v-125q0 -80 -84 -98q-18 -4 -144 -4q-35 0 -39 2q-94 -2 -141 -2v-142q2 -4 2 -12v-12 q-2 -10 -2 -15q0 -125 -4 -143q-16 -84 -98 -84h-125q-80 0 -99 84q-4 18 -4 143v181q-49 0 -143 2q-14 -6 -109 -6q-160 0 -159 106zM479 410h21q43 0 72.5 29.5t29.5 72.5v25h-20q-41 0 -72 -30t-31 -73v-24zM479 719q0 -43 31 -73t72 -30h20v21q0 43 -29.5 72.5 t-72.5 29.5h-21v-20zM602 537h80v79h-80v-79zM682 512q0 -43 30.5 -72.5t71.5 -29.5h25v24q0 43 -29.5 73t-72.5 30h-25v-25zM682 616h25q43 0 72.5 30t29.5 73v20h-25q-41 0 -71.5 -29.5t-30.5 -72.5v-21z" />
<glyph unicode="," horiz-adv-x="755" d="M111 23q0 76 71 94q27 8 133 8v55q-2 150 103 150h125q41 0 71.5 -30t30.5 -73v-125q0 -76 -72 -94q-27 -8 -133 -8v-55q2 -150 -102 -150h-125q-43 0 -72.5 30t-29.5 73v125z" />
<glyph unicode="-" d="M115 512v125q0 43 30.5 72.5t71.5 29.5h944q43 0 73 -29.5t30 -72.5v-125q0 -43 -30 -72.5t-73 -29.5h-944q-41 0 -71.5 29.5t-30.5 72.5z" />
<glyph unicode="." horiz-adv-x="555" d="M113 102v125q0 43 30.5 73t71.5 30h125q43 0 72.5 -30t29.5 -73v-125q0 -43 -29.5 -72.5t-72.5 -29.5h-125q-41 0 -71.5 29.5t-30.5 72.5z" />
<glyph unicode="/" horiz-adv-x="1236" d="M43 152q0 129 39 157q29 20 168 21v307q0 76 72 94q27 8 133 8q0 147 27.5 176t176.5 29v307q0 76 72 95q27 8 133 8l-2 55q-2 150 105 150h125q104 0 104 -152q0 -129 -41 -158q-29 -20 -166 -20v-307q0 -76 -71 -95q-27 -8 -134 -8q0 -147 -28.5 -176t-175.5 -29v-307 q0 -76 -72 -94q-27 -8 -133 -8v-55q2 -150 -103 -150h-125q-104 0 -104 152z" />
<glyph unicode="0" horiz-adv-x="1333" d="M90 918q0 55 2 167v166q0 76 72 95q27 8 133 8v55q-2 150 102 150h535q76 0 96 -72q6 -27 6 -133q143 0 172 -23q33 -29 33 -162q0 -109 2 -323v-324q0 -164 -2 -215q-4 -104 -149 -102h-56v-55q2 -150 -102 -150h-535q-76 0 -94 72q-8 27 -8 133q-141 0 -170 22 q-35 29 -35 162v264q-2 176 -2 265zM422 330h489v899h-489v-899z" />
<glyph unicode="1" horiz-adv-x="731" d="M98 1413q0 145 103 146h125q76 0 94 -72q8 -27 8 -133q135 0 164 -19q41 -29 41 -151v-1082q0 -43 -31 -72.5t-72 -29.5h-124q-80 0 -99 82q-4 20 -4 145v1002q-143 0 -174 25.5t-31 158.5z" />
<glyph unicode="2" horiz-adv-x="1312" d="M80 1407q0 152 104 152h740q76 0 96 -72q6 -27 6 -133h55q150 2 150 -103v-182v-156q-6 -57 -47 -75.5t-158 -18.5l2 -55q0 -150 -104 -150h-512v-284h489v55q-2 150 103 150h124q103 -1 103 -146q0 -133 -31 -158.5t-174 -25.5l2 -55q0 -150 -104 -150h-535 q-76 0 -94 72q-8 27 -8 133h-56q-150 -2 -149 102v262q0 123 41 152q29 18 164 18v56q-2 150 102 149h512v285h-592q-156 0 -184 16q-45 29 -45 162z" />
<glyph unicode="3" horiz-adv-x="1329" d="M90 152q0 84 12 116q20 61 91 62h716v291h-512q-102 0 -102 151q0 84 12 117q20 61 90 61h512v285h-716q-102 0 -103 151q0 84 12 117q20 61 91 62h739q76 0 96 -72q6 -27 6 -133q137 0 166 -19q39 -29 39 -151q0 -88 -4 -96q4 -119 4 -166q0 -76 -72 -94q-27 -8 -133 -9 v-80q141 0 170 -26q35 -33 35 -178v-234q0 -76 -72 -94q-27 -8 -133 -8l2 -55q2 -150 -104 -150h-739q-102 0 -103 152z" />
<glyph unicode="4" horiz-adv-x="1247" d="M90 989v467q0 43 30 73t73 30h124q80 0 99 -82q6 -27 6 -146l-2 -170v-30.5v-92.5q2 -66 2 -94h405q2 82 0 512q0 43 30 73t73 30h125q104 0 104 -156v-481q0 -76 -74 -97q-27 -6 -133 -6v-80q139 0 166 -20q37 -29 37 -156v-461q0 -43 -29.5 -72.5t-70.5 -29.5h-125 q-82 0 -101 82q-4 25 -4 145v387h-428q-76 0 -96 72q-6 27 -6 133q-137 0 -166 19q-39 29 -39 151z" />
<glyph unicode="5" horiz-adv-x="1280" d="M66 389q0 145 102 146h125q76 0 94 -72q8 -27 8 -133h490v284h-512q-78 0 -97 72q-6 27 -6 133q-154 0 -182 35q-23 27 -22 178v219q0 76 71 95q27 8 133 8l-2 55q-2 150 105 150h739q102 0 102 -152q0 -133 -45 -162q-29 -16 -182 -16h-592v-285h512q76 0 94 -72 q8 -27 9 -133q135 0 164 -18q41 -29 40 -152v-262q0 -76 -71 -94q-29 -8 -133 -8v-55q2 -150 -103 -150h-534q-78 0 -97 72q-6 27 -6 133q-143 0 -173.5 25.5t-30.5 158.5z" />
<glyph unicode="6" horiz-adv-x="1302" d="M76 395v244q0 76 71 96q27 6 134 6v80q-143 0 -174 26.5t-31 162.5v243q0 76 71 97q27 6 134 6v55q-2 150 102 150h535q104 0 104 -150q0 -180 -72 -180h-544v-285h512q76 0 96 -72q6 -27 6 -133q143 0 174 -25.5t31 -162.5v-244q0 -76 -72 -94q-27 -8 -133 -8l2 -55 q2 -150 -104 -150h-535q-76 0 -94 72q-8 27 -8 133q-143 0 -174 26.5t-31 161.5zM406 332h489v284h-489v-284z" />
<glyph unicode="7" horiz-adv-x="1118" d="M86 1407q0 152 104 152h535q76 0 94 -72q8 -27 8 -133h56q150 2 149 -103v-225q0 -147 -27.5 -177t-177.5 -30v-80h56q150 2 149 -102v-244q2 -162 2 -241q0 -152 -104 -152h-125q-43 0 -73 29.5t-30 72.5v512h-55q-90 -2 -119.5 27t-29.5 119q0 133 32 162q29 23 172 22 v285h-512q-70 0 -92 61q-12 33 -12 117z" />
<glyph unicode="8" horiz-adv-x="1327" d="M90 414v231q0 76 72 94q27 8 133 9v79q-143 0 -174 27t-31 162v244q0 76 72 94q27 8 133 8l-2 55q-2 150 104 150h535q76 0 94 -72q8 -27 8 -133q143 0 174 -26.5t31 -161.5v-244q0 -76 -72 -94q-29 -8 -133 -9v-79q150 0 177.5 -29t27.5 -174v-238q0 -76 -72 -94 q-29 -8 -133 -8v-55q2 -150 -102 -150h-535q-76 0 -96 72q-6 27 -6 133q-152 0 -180 33q-25 27 -25 176zM420 330h489v293h-489v-293zM420 952h489v285h-489v-285z" />
<glyph unicode="9" horiz-adv-x="1327" d="M90 1008v243q0 76 72 95q27 8 133 8l-2 55q-2 150 104 150h535q76 0 94 -72q8 -27 8 -133q143 0 174 -27t31 -162v-243q0 -76 -72 -95q-27 -8 -133 -8v-80q143 0 174 -26.5t31 -161.5v-244q0 -76 -72 -94q-27 -8 -133 -8v-55q2 -150 -102 -150h-535q-104 0 -104 150 q0 180 72 180h544v284h-512q-76 0 -96 72q-6 27 -6 133q-143 0 -174 26.5t-31 162.5zM418 1016q2 -49 2 -72h489v72q2 46 2 71q0 23 -2 70v72h-489q0 -23 -2 -72v-70.5v-70.5z" />
<glyph unicode=":" horiz-adv-x="473" d="M72 102v125q0 43 30.5 73t71.5 30h125q43 0 72.5 -30t29.5 -73v-125q0 -43 -29.5 -72.5t-72.5 -29.5h-125q-41 0 -71.5 29.5t-30.5 72.5zM72 1331v125q0 43 30.5 73t71.5 30h125q43 0 72.5 -30t29.5 -73v-125q0 -43 -29.5 -72.5t-72.5 -29.5h-125q-41 0 -71.5 29.5 t-30.5 72.5z" />
<glyph unicode=";" horiz-adv-x="649" d="M57 23q0 76 72 94q27 8 133 8v55q-2 150 103 150h124q43 0 73 -30t30 -73v-125q0 -76 -72 -94q-27 -8 -133 -8l2 -55q0 -150 -104 -150h-125q-41 0 -72 30t-31 73v125zM262 1331v125q0 43 31 73t72 30h124q43 0 73 -30t30 -73v-125q0 -43 -30 -72.5t-73 -29.5h-124 q-41 0 -72 29.5t-31 72.5z" />
<glyph unicode="&#x3c;" horiz-adv-x="1083" d="M70 717v125q0 76 71 94q27 8 133 8q0 147 29 176t176 29v55q-2 150 103 150h329q41 0 72 -30t31 -73v-125q0 -43 -31 -72.5t-72 -29.5h-307q0 -147 -28.5 -176t-176.5 -29v-80q147 0 176 -28.5t29 -175.5h307q41 0 72 -30t31 -73v-125q0 -43 -31 -72.5t-72 -29.5h-329 q-76 0 -97 71q-6 27 -6 134q-147 0 -176 28.5t-29 175.5h-55q-150 -2 -149 103z" />
<glyph unicode="=" horiz-adv-x="1366" d="M109 512v125q0 43 29.5 72.5t72.5 29.5h944q43 0 72.5 -29.5t29.5 -72.5v-125q0 -43 -30.5 -72.5t-71.5 -29.5h-944q-43 0 -72.5 29.5t-29.5 72.5zM109 922v125q0 43 29.5 72.5t72.5 29.5h944q43 0 72.5 -29.5t29.5 -72.5v-125q0 -43 -30.5 -73t-71.5 -30h-944 q-43 0 -72.5 30t-29.5 73z" />
<glyph unicode="&#x3e;" horiz-adv-x="1097" d="M78 307v125q0 43 29.5 73t72.5 30h307q0 147 28 175.5t177 28.5v80q-150 0 -177.5 29t-27.5 176h-307q-43 0 -72.5 29.5t-29.5 72.5v125q0 43 29.5 73t72.5 30h330q76 0 94 -72q8 -27 8 -133q147 0 176 -28.5t29 -176.5h53q152 2 152 -102v-125q0 -76 -74 -94 q-27 -8 -131 -9q0 -147 -28.5 -175.5t-176.5 -28.5v-56q2 -150 -102 -149h-330q-43 0 -72.5 29.5t-29.5 72.5z" />
<glyph unicode="?" horiz-adv-x="1214" d="M33 102v125q0 43 30.5 73t71.5 30h125q43 0 72.5 -30t29.5 -73v-125q0 -43 -29.5 -72.5t-72.5 -29.5h-125q-41 0 -71.5 29.5t-30.5 72.5zM33 512v125q0 76 71 94q27 8 134 8v56q-2 150 102 149h512v285h-490l3 -55q2 -150 -105 -150h-125q-41 0 -71.5 29.5t-30.5 72.5 v125q0 76 71 95q27 8 134 8v55q-2 150 102 150h534q76 0 97 -72q6 -27 6 -133h55q150 2 150 -103v-329q0 -76 -72 -95q-27 -8 -133 -8l2 -55q2 -150 -105 -150h-512l3 -55q2 -150 -105 -149h-125q-41 0 -71.5 29.5t-30.5 72.5z" />
<glyph unicode="@" horiz-adv-x="2150" d="M92 -35v1286q0 76 72 95q27 8 133 8q0 137 18 164q27 41 150 41h1288q76 0 94 -72q8 -27 8 -133q135 0 164 -19q41 -29 41 -151v-877q0 -76 -73 -94q-27 -8 -132 -8q0 -143 -24 -170q-29 -35 -162 -35q-109 0 -133 53q-10 25 -10 152h-80q0 -143 -25 -170 q-29 -35 -161 -35q-84 0 -80 -2q-18 -4 -68 2h-303q-78 0 -96 72q-6 27 -6 133q-137 0 -166 18q-39 29 -39 152v467q0 76 71 94q27 8 134 8q0 137 18 164q27 41 149 41h469q76 0 95 -72q8 -27 8 -133q156 0 182 -37q23 -27 23 -190v-387h80v899h-1309v-1309h921 q102 0 103 -151q0 -109 -21 -140q-27 -41 -131 -41l-895 2q-78 0 -96 72q-6 27 -6 133q-137 0 -166 19q-39 29 -39 151zM829 819l2 -489h490v489h-492z" />
<glyph unicode="A" horiz-adv-x="1339" d="M96 152q0 80 2 241v244q0 76 72 94q27 8 133 8v80q-135 0 -164 19q-41 29 -41 151v262q0 76 72 95q27 8 133 8v55v6q0 144 103 144h530q76 0 94 -72q8 -27 8 -133q135 0 164 -19q41 -29 41 -151v-262q0 -76 -72 -95q-27 -8 -133 -8v-80q135 0 164 -18q41 -29 41 -152 v-467q0 -43 -30.5 -72.5t-71.5 -29.5h-125q-82 0 -98 82q-4 20 -5 145v387h-485v-512q0 -43 -29.5 -72.5t-72.5 -29.5h-125q-104 0 -105 152zM428 944l483 4l2 281h-485v-285z" />
<glyph unicode="B" horiz-adv-x="1331" d="M90 152q0 53 2 159v162q0 197 14 223q27 43 191 43v80q-135 0 -164 19q-41 27 -41 149v469q0 43 31 73t72 30h739q76 0 96 -72q6 -27 6 -133q143 0 174 -27t31 -162v-243q0 -37 -32.5 -70t-69.5 -33h-103v-80q143 0 174 -26.5t31 -161.5v-244q0 -76 -72 -94 q-27 -8 -133 -8v-55v-6q0 -144 -102 -144h-739q-104 0 -105 152zM422 346h485l2 285h-487v-285zM424 944l483 4l2 281h-485v-285z" />
<glyph unicode="C" horiz-adv-x="1251" d="M51 375v876q0 76 72 95q27 8 133 8l-2 55v6q0 144 104 144h535q76 0 94 -72q8 -27 8 -133q141 0 170 -23q35 -29 35 -162q0 -145 -102 -145h-125q-76 0 -96 72q-6 27 -7 133h-489v-899h489l-2 55v5q0 145 105 145h125q104 0 104 -152q0 -129 -41 -158q-29 -20 -166 -20 v-55v-6q0 -144 -102 -144h-535q-76 0 -96 72q-6 27 -6 133q-137 0 -166 18q-39 29 -39 152z" />
<glyph unicode="D" horiz-adv-x="1335" d="M92 152v1032q0 240 2 272q8 102 103 103h739q76 0 96 -72q6 -29 6 -133q143 0 172 -23q33 -29 33 -162v-862q0 -76 -72 -94q-29 -8 -133 -8v-55v-6q0 -144 -102 -144h-739q-104 0 -105 152zM424 330h489v899h-489v-899z" />
<glyph unicode="E" horiz-adv-x="1056" d="M51 340q0 49 2 148.5t2 148.5q0 76 72 94q27 8 133 8v80q-125 0 -151 10q-57 25 -58 125q0 49 2 148.5t2 148.5q0 76 72 95q27 8 133 8v55v6q0 144 102 144h535q104 0 104 -152q0 -133 -45 -162q-29 -16 -184 -16h-387v-285q143 0 170 -22q35 -29 35 -162 q0 -109 -53 -133q-25 -12 -152 -13v-284h387q147 0 172 -11q57 -23 57 -141q0 -84 -12 -117q-22 -61 -92 -61h-535q-76 0 -94 72q-8 27 -8 133q-125 0 -151 10q-57 25 -58 125z" />
<glyph unicode="F" horiz-adv-x="1009" d="M31 152v376q0 152 27.5 181.5t179.5 29.5v80q-160 0 -191 47q-16 29 -16 207q0 207 14 234q27 47 193 47v55v6q0 144 102 144h534q104 0 105 -152q0 -84 -12 -117q-23 -61 -93 -61h-512v-285q143 0 173 -22q32 -28 32 -154v-8q0 -109 -53 -133q-25 -12 -152 -13v-512 q0 -43 -29.5 -72.5t-72.5 -29.5h-125q-104 0 -104 152z" />
<glyph unicode="G" horiz-adv-x="1075" d="M61 389v647q0 162 2 215q6 103 147 103h3h55v55v6q0 144 103 144h534q104 0 105 -152q0 -84 -13 -117q-23 -61 -92 -61h-512v-899h285v143q0 10 -2 47t-2 58q0 161 105 161h1h125q104 0 105 -151v-377q0 -104 -6 -135q-21 -76 -99 -76h-534q-76 0 -95 72q-8 27 -8 133 q-141 0 -174 25.5t-33 158.5z" />
<glyph unicode="H" horiz-adv-x="1339" d="M96 152v241q2 162 2 244q0 76 72 94q27 8 133 8v80q-137 0 -166 19q-39 29 -39 151v467q0 43 30 73t73 30h125q80 0 98 -82q6 -25 6 -146v-387h481v512q0 43 31 73t72 30h125q104 0 104 -152v-242q-2 -162 -2 -240.5t-72 -97.5q-27 -8 -133 -8v-80q137 0 166 -18 q39 -29 39 -152v-467q0 -43 -29.5 -72.5t-72.5 -29.5h-123q-80 0 -98 82q-6 25 -7 145v387h-483v-512q0 -43 -30.5 -72.5t-71.5 -29.5h-125q-104 0 -105 152z" />
<glyph unicode="I" horiz-adv-x="534" d="M100 152l2 1304q0 43 31 73t72 30h125q104 0 104 -152l-2 -1305q0 -43 -29.5 -72.5t-72.5 -29.5h-125q-104 0 -105 152z" />
<glyph unicode="J" horiz-adv-x="1343" d="M96 389q0 145 103 146h125q76 0 96 -72q6 -27 6 -133h489v1126q0 43 31 73t72 30h125q104 0 104 -152l-2 -1100q0 -76 -71 -94q-28 -8 -134 -8l2 -55v-6q0 -144 -104 -144h-535q-76 0 -94 72q-8 27 -8 133q-141 0 -170 22q-35 29 -35 162z" />
<glyph unicode="K" horiz-adv-x="1318" d="M86 637q0 76 72 94q29 8 133 8v80q-135 0 -164 19q-41 27 -41 151v467q0 43 30.5 73t71.5 30h125q82 0 101 -82q4 -25 4 -146v-387h278q0 147 29 176t176 29v143q0 10 -2 47t-2 60q0 160 107 160h124q80 0 99 -82q6 -25 6 -146q0 -10 2 -31v-30q0 -178 -23 -209 q-28 -37 -186 -37q0 -145 -27.5 -175t-173.5 -30v-80q145 0 173 -29.5t28 -174.5q143 0 172 -23q35 -29 35 -162v-117q0 -123 -4 -147q-20 -86 -101 -86h-124q-80 0 -97 82q-2 10 -4 145l-2 183q-147 0 -176 28.5t-29 175.5q-23 0 -68.5 2t-68.5 2q-25 0 -72 -2t-71 -2v-512 q0 -43 -30 -72.5t-73 -29.5h-125q-100 0 -100 152z" />
<glyph unicode="L" horiz-adv-x="1171" d="M10 375v1081q0 43 30 73t73 30h125q80 0 98 -82q6 -25 6 -146v-1001h715q104 0 104 -152q0 -84 -12 -117q-22 -61 -92 -61h-740q-76 0 -96 72q-6 27 -6 133q-137 0 -164 18q-41 29 -41 152z" />
<glyph unicode="M" horiz-adv-x="1755" d="M100 152v1099q0 76 72 95q27 8 133 8q0 160 45 190q29 16 209 17q205 0 232 -15q49 -27 49 -192h80q0 160 45 190q29 16 209 17q205 0 231 -15q49 -27 49 -192q135 0 164 -19q41 -29 41 -151v-1082q0 -104 -152 -104q-137 0 -166 49q-12 25 -12 180v1002h-285v-70v-852 q0 -104 -151 -104q-137 0 -166 49q-12 25 -12 180v797h-285v-1127q0 -104 -151 -104q-109 0 -140 20q-39 29 -39 134z" />
<glyph unicode="N" horiz-adv-x="1347" d="M98 152l2 831q0 217 2 268q4 78 70 97q25 6 133 6l-2 55q0 150 105 150h534q76 0 94 -72q8 -27 8 -133q135 0 164 -19q41 -27 41 -147v-1086q0 -43 -30.5 -72.5t-71.5 -29.5h-125q-80 0 -98 82q-4 20 -4 145v1002h-490v-1127q0 -43 -30.5 -72.5t-71.5 -29.5h-125 q-104 0 -105 152z" />
<glyph unicode="O" horiz-adv-x="1333" d="M92 389v529q0 55 2 167v166q0 76 72 95q27 8 131 8v55v6q0 144 102 144h535q76 0 96 -72q6 -27 6 -133q143 0 172 -23q33 -29 33 -162v-647q0 -164 -2 -215q-4 -102 -142 -102h-5h-56v-55v-6q0 -144 -102 -144h-535q-76 0 -94 72q-8 27 -8 133q-141 0 -170 22 q-35 29 -35 162zM422 330h489v899h-489v-899z" />
<glyph unicode="P" horiz-adv-x="1222" d="M35 152q0 80 2 241v244q0 76 72 94q27 8 133 8v80q-135 0 -164 19q-41 29 -41 151v262q0 76 72 95q27 8 133 8v55v6q0 144 102 144h535q76 0 96 -72q6 -27 6 -133q137 0 166 -19q39 -29 39 -151v-262q0 -76 -72 -95q-27 -8 -133 -8l2 -55v-6q0 -144 -104 -144h-512v-512 q0 -43 -30 -72.5t-73 -29.5h-125q-104 0 -104 152zM367 944h489v285h-489v-285z" />
<glyph unicode="Q" horiz-adv-x="1335" d="M94 375v876q0 76 72 95q27 8 133 8l-2 55v6q0 144 104 144h535q76 0 94 -72q8 -27 8 -133q145 0 162 -8q41 -20 41 -142v-897q0 -76 -72 -94q-27 -8 -131 -8q0 -147 -28.5 -176t-175.5 -29v-55v-6q0 -144 -103 -144h-125q-76 0 -96 72q-6 27 -6 133q-147 0 -176 28.5 t-29 176.5q-137 0 -166 18q-39 29 -39 152zM420 1229l2 -899h82l-2 55v6q0 144 104 144h125q76 0 94 -72q8 -27 9 -133h79v899h-493z" />
<glyph unicode="R" horiz-adv-x="1318" d="M82 1221q0 82 37 107.5t172 25.5v55v6q0 144 102 144h535q76 0 96 -72q6 -27 6 -133q137 0 164 -19q41 -27 41 -149q0 -150 -2 -154q2 -31 2 -110q0 -76 -72 -95q-27 -8 -133 -8q0 -147 -28.5 -176t-176.5 -29v-79q147 0 176 -29t29 -176q143 0 170 -23q35 -29 35 -162 q0 -145 -102 -145h-125q-76 0 -95 72q-8 27 -8 133q-147 0 -176 28.5t-29 176.5q-147 0 -175.5 28.5t-28.5 175.5h-80v-512q0 -43 -30 -72.5t-73 -29.5h-125q-104 0 -104 152q0 80 2 241v244q0 76 72 94q27 8 133 8v80q-162 0 -191 45q-16 27 -16 205q0 10 2 18q0 25 -2 74 q-2 41 -2 60zM412 965h489v284h-489v-284z" />
<glyph unicode="S" horiz-adv-x="1308" d="M80 389q0 145 102 146h125q76 0 94 -72q8 -27 9 -133h489v71q2 47 2 72q0 23 -2 70v71h-512q-76 0 -96 72q-6 27 -6 133q-143 0 -174 26.5t-31 162.5v243q0 76 72 95q27 8 133 8v55v6q0 144 102 144h535q76 0 94 -72q8 -27 8 -133q141 0 170 -23q35 -29 35 -162 q0 -145 -103 -145h-125q-76 0 -96 72q-6 27 -6 133h-489v-285h512q76 0 94 -72q8 -27 8 -133q139 0 168 -20q37 -29 37 -158v-254q0 -76 -72 -94q-27 -8 -133 -8v-55v-6q0 -144 -102 -144h-535q-76 0 -96 72q-6 27 -6 133q-143 0 -174 25.5t-31 158.5z" />
<glyph unicode="T" horiz-adv-x="1251" d="M49 1380q0 84 12 117q23 61 93 62h329q76 0 95 -72q8 -27 8 -133h80l2 55q2 150 100 150h330q104 0 104 -152q0 -84 -12 -117q-23 -61 -92 -61h-307v-1127q0 -43 -31 -72.5t-72 -29.5h-125q-80 0 -98 82q-4 20 -4 145v1002h-27h-280q-104 0 -105 151z" />
<glyph unicode="U" horiz-adv-x="1339" d="M96 375v1081q0 43 31 73t72 30h125q82 0 98 -82q4 -20 4 -146v-1001h485v1126q0 43 30 73t73 30h125q104 0 104 -152l-2 -1100q0 -76 -72 -94q-27 -8 -133 -8v-55v-6q0 -144 -102 -144h-531q-76 0 -94 72q-8 27 -8 133q-135 0 -164 18q-41 29 -41 152z" />
<glyph unicode="V" horiz-adv-x="1320" d="M86 575v881q0 43 29.5 73t72.5 30h125q80 0 97 -82q6 -20 6 -146v-796q147 0 176 -29t29 -176h79q0 147 28 176t177 29v921q0 43 30 73t73 30h125q102 0 102 -152v-895q0 -76 -74 -94q-27 -8 -131 -8q0 -147 -28.5 -176t-176.5 -29v-55v-6q0 -144 -102 -144h-125 q-78 0 -96 72q-6 27 -6 133q-150 0 -177.5 28.5t-27.5 176.5q-137 0 -164 18q-41 27 -41 147z" />
<glyph unicode="W" horiz-adv-x="1751" d="M96 307q0 -102 146 -102h6h53q0 -160 47 -191q29 -16 209 -16q6 0 12 2q27 0 70 -2t61 -2q72 0 103 27q35 35 35 127l-2 55h79q0 -156 37 -185q29 -20 191 -20h205q104 0 104 144v6l-2 55q137 0 166 18q39 29 39 152v1081q0 104 -150 105q-109 0 -139 -21 q-41 -29 -41 -133v-1077h-283v211l-2 710q0 104 -149 105q-109 0 -139 -21q-41 -29 -41 -133v-872h-285v1126q0 104 -150 105q-109 0 -139 -21q-41 -29 -41 -133v-1100z" />
<glyph unicode="X" horiz-adv-x="1693" d="M66 152q0 129 40 157q29 20 166 21q0 147 29 176t176 29q0 147 29 175.5t176 28.5v80q-147 0 -176 29t-29 176q-147 0 -176 28.5t-29 176.5q-141 0 -170 22q-34 28 -34 155v7q0 88 29.5 118t121.5 30q129 0 158 -41q20 -26 20 -136v-30q147 0 176 -29t29 -176 q147 0 176 -28.5t29 -176.5h80q0 147 28.5 176t176.5 29q0 147 28.5 176t175.5 29q0 141 26 173t159 32q90 0 118.5 -30t28.5 -122q0 -129 -39 -158q-31 -20 -168 -20q0 -147 -28.5 -176t-175.5 -29q0 -147 -29 -176t-176 -29v-80q147 0 176 -28.5t29 -175.5 q147 0 175.5 -29t28.5 -176q141 0 170 -23q35 -29 35 -162q0 -88 -29.5 -117.5t-121.5 -29.5q-129 0 -158 41q-20 29 -21 166q-147 0 -175.5 28.5t-28.5 176.5q-147 0 -176 28.5t-29 175.5h-80q0 -147 -28.5 -175.5t-176.5 -28.5q0 -147 -28.5 -176t-176.5 -29 q0 -141 -22 -170q-29 -35 -160 -35q-90 0 -119.5 29.5t-29.5 122.5z" />
<glyph unicode="Y" horiz-adv-x="1280" d="M68 1004v452q0 43 29.5 73t72.5 30h125q80 0 96 -82q6 -20 6 -146v-387q147 0 176 -28.5t29 -176.5h74q0 147 28.5 176t176.5 29v512q0 43 30.5 73t71.5 30h125q104 0 104 -152v-242q-2 -162 -2 -240.5t-71 -97.5q-27 -8 -133 -8q0 -147 -29 -176t-176 -29v-512 q0 -43 -30 -72.5t-73 -29.5h-125q-80 0 -98 82q-4 20 -4 145v387q-143 0 -171 30t-28 175q-143 0 -173.5 25.5t-30.5 159.5z" />
<glyph unicode="Z" horiz-adv-x="1314" d="M82 420v125q0 139 29.5 166.5t175.5 27.5v56v6q0 143 101 143h1h512v285h-489l2 -55v-5q0 -145 -105 -145h-125q-102 0 -102 145q0 133 35 162q29 23 170 23v55v6q0 144 102 144h535q76 0 96 -72q6 -27 6 -133h55h9q86 0 118 -35q27 -29 27 -102q0 -16 -2 -59.5t-2 -70.5 q0 -172 0 -167q-4 -59 -45 -80t-160 -21l2 -55v-6q0 -144 -104 -144h-512v-284h489v55v6q0 144 103 144h124q102 0 103 -146q0 -133 -31 -158.5t-174 -25.5l2 -55v-6q0 -144 -104 -144h-535q-76 0 -94 72q-8 27 -8 133h-56h-8q-106 0 -129 51q-12 25 -12 164z" />
<glyph unicode="[" horiz-adv-x="874" d="M66 152l2 1304q0 43 30.5 73t71.5 30h535q104 0 104 -152q0 -84 -12 -117q-23 -61 -92 -61h-308v-899h308q104 0 104 -152q0 -84 -12 -117q-22 -61 -92 -61h-535q-104 0 -104 152z" />
<glyph unicode="\" horiz-adv-x="1259" d="M53 1407q0 152 105 152h125q76 0 94 -72q8 -27 8 -133h55q150 2 150 -103v-307q147 0 176 -28.5t29 -176.5h55q150 2 149 -102v-307h56q102 2 131 -39q20 -30 20 -139q0 -152 -104 -152h-125q-76 0 -96 72q-6 27 -7 133h-55q-150 -2 -149 102v307q-147 0 -176 29t-29 176 h-55q-150 -2 -150 103v307h-55q-104 -2 -131 39q-20 31 -21 139z" />
<glyph unicode="]" horiz-adv-x="923" d="M90 178q0 152 105 152h307v899h-307q-70 0 -93 61q-12 33 -12 117q0 152 105 152h534q41 0 71.5 -30t30.5 -73l3 -1304q0 -152 -105 -152h-534q-70 0 -93 61q-12 33 -12 117z" />
<glyph unicode="^" horiz-adv-x="1333" d="M92 922v125q0 76 72 94q27 8 133 8q0 147 28.5 176t176.5 29v55q-2 150 102 150h125q76 0 94 -72q8 -27 8 -133q147 0 176 -29t29 -176h56q150 2 149 -102v-125q0 -43 -30.5 -73t-71.5 -30h-125q-76 0 -96 72q-6 27 -7 133q-147 0 -175.5 28.5t-28.5 176.5h-80 q0 -147 -29 -176t-176 -29v-55q2 -150 -103 -150h-124q-43 0 -73 30t-30 73z" />
<glyph unicode="_" horiz-adv-x="1374" d="M113 102v125q0 43 30.5 73t71.5 30h944q43 0 73 -30t30 -73v-125q0 -43 -30 -72.5t-73 -29.5h-944q-41 0 -71.5 29.5t-30.5 72.5z" />
<glyph unicode="`" horiz-adv-x="552" d="M111 1331v125q0 43 30.5 73t71.5 30h125q43 0 72.5 -30t29.5 -73v-125q0 -43 -29.5 -72.5t-72.5 -29.5h-125q-41 0 -71.5 29.5t-30.5 72.5z" />
<glyph unicode="a" horiz-adv-x="1486" d="M66 375v672q0 76 71 94q29 8 133 8q0 137 21 164q27 41 149 41h467q76 0 97 -72q6 -27 6 -133q156 0 184 -37q20 -27 20 -190v-592q143 0 172 -23q33 -29 33 -162q0 -90 -29.5 -118.5t-119.5 -28.5q-131 0 -160 41q-20 27 -20 166h-80q0 -137 -19 -164q-27 -41 -149 -41 h-469q-76 0 -94 72q-8 27 -9 133q-135 0 -164 18q-40 28 -40 146v6zM395 330h490v694h-490v-694z" />
<glyph unicode="b" horiz-adv-x="1230" d="M41 375v262q0 76 72 94q27 8 133 8v80q-135 0 -164 19q-41 29 -41 151v467q0 43 30.5 73t71.5 30h125q80 0 101 -82q4 -25 4 -146v-387h385q168 0 197.5 -25.5t29.5 -179.5q143 0 174 -26.5t31 -161.5v-244q0 -76 -72 -94q-27 -8 -133 -8v-55v-6q0 -144 -102 -144h-535 q-76 0 -94 72q-8 27 -8 133q-135 0 -164 18q-41 29 -41 152zM371 330h491v284h-491v-284z" />
<glyph unicode="c" horiz-adv-x="1263" d="M57 375v672q0 76 72 94q27 8 133 8l-2 55v5q0 145 105 145h534q76 0 94 -72q8 -27 8 -133q141 0 170 -23q35 -29 35 -161q0 -145 -102 -146h-125q-78 0 -96 72q-6 27 -6 133h-490v-694h490l-3 55v5q0 145 105 145h125q102 0 102 -152q0 -129 -39 -158q-29 -20 -166 -20 v-55v-6q0 -144 -102 -144h-534q-78 0 -97 72q-6 27 -6 133q-137 0 -166 18q-39 29 -39 152z" />
<glyph unicode="d" horiz-adv-x="1320" d="M82 342q0 16 2 60t2 71q0 170 0 166q4 59 45 79.5t160 20.5v56v8q0 110 55 131q23 10 172 10h385l-2 459q0 156 107 156h125q41 0 71.5 -30t30.5 -73v-467q0 -123 -41 -151q-29 -18 -164 -19v-80h55h6q144 0 144 -102v-262q0 -123 -41 -152q-29 -18 -164 -18v-55v-6 q0 -144 -102 -144h-535q-76 0 -96 72q-6 27 -6 133h-55h-9q-86 0 -118 35q-27 29 -27 102zM414 330h491v284h-491v-284z" />
<glyph unicode="e" horiz-adv-x="1298" d="M76 389q0 109 51 133q27 12 154 13v79q-143 0 -174 27t-31 162v244q0 76 71 94q27 8 134 8l-2 55v6q0 144 104 144h535q76 0 94 -72q8 -27 8 -133q143 0 174 -26.5t31 -161.5v-244q0 -76 -72 -94q-29 -8 -133 -9v-55v-6q0 -143 -101 -143h-1h-512v-80h512q104 0 104 -152 q0 -84 -12 -117q-23 -61 -92 -61h-535q-76 0 -96 72q-6 27 -6 133q-143 0 -174 25.5t-31 158.5zM406 739h489v285h-489v-285z" />
<glyph unicode="f" horiz-adv-x="991" d="M20 152q0 80 3 241v244q0 76 71 94q27 8 133 8v80q-143 0 -173.5 26.5t-30.5 162.5v79v164q0 76 71 95q27 8 133 8v55v6q0 144 103 144h534q104 0 105 -152q0 -84 -13 -117q-23 -61 -92 -61h-512v-285q143 0 172 -22q33 -29 33 -162q0 -109 -51 -133q-27 -12 -154 -13 v-512q0 -43 -29.5 -72.5t-72.5 -29.5h-125q-104 0 -105 152z" />
<glyph unicode="g" horiz-adv-x="1331" d="M90 184q0 145 103 146h124q76 0 97 -72q6 -27 6 -133h489v285h-512q-76 0 -94 71q-8 27 -8 133q-143 0 -174 27t-31 162v244q0 76 72 94q29 8 133 8v55v6q0 144 102 144h535q76 0 96 -72q6 -27 6 -133q143 0 174 -26.5t31 -161.5v-244q0 -76 -72 -94q-27 -8 -133 -9v-79 q143 0 174 -27t31 -162v-244q0 -76 -72 -94q-27 -8 -133 -8l2 -55v-6q0 -144 -104 -144h-535q-76 0 -94 72q-8 27 -8 133q-141 0 -170 23q-35 29 -35 161zM418 883q0 -25 2 -72v-72h489q0 23 2 72v70.5v70.5q-2 49 -2 72h-489v-72q-2 -47 -2 -69z" />
<glyph unicode="h" horiz-adv-x="1062" d="M59 152v241.5v243.5q0 76 72 94q29 8 133 8v80q-137 0 -166 21q-37 29 -37 155v461q0 43 30 73t71 30h125q82 0 100 -82q4 -25 4 -146v-387h141h175q59 -8 75.5 -47t16.5 -158q137 0 166 -18q39 -29 39 -152v-467q0 -43 -30 -72.5t-73 -29.5h-125q-104 0 -104 150 q0 45 2 124q2 88 2 123v31v92q-2 63 -2 94h-285v-512q0 -43 -29.5 -72.5t-72.5 -29.5h-125q-102 0 -103 152z" />
<glyph unicode="i" horiz-adv-x="524" d="M98 102v945q0 43 30 72.5t73 29.5h125q41 0 71.5 -29.5t30.5 -72.5v-945q0 -43 -30.5 -72.5t-71.5 -29.5h-125q-43 0 -73 29.5t-30 72.5zM98 1331v125q0 43 30 73t73 30h125q41 0 71.5 -30t30.5 -73v-125q0 -43 -30.5 -72.5t-71.5 -29.5h-125q-43 0 -73 29.5t-30 72.5z " />
<glyph unicode="j" horiz-adv-x="1124" d="M90 184q0 145 103 146h124q76 0 97 -72q8 -29 8 -133h283v922q0 43 29.5 72.5t72.5 29.5h125q104 0 104 -152l-2 -895q0 -76 -71 -94q-28 -8 -134 -8v-55v-6q0 -144 -102 -144h-330q-76 0 -96 72q-6 27 -6 133q-143 0 -174 25.5t-31 158.5zM705 1331v125q0 43 29.5 73 t72.5 30h125q41 0 71.5 -30t30.5 -73v-125q0 -43 -30.5 -72.5t-71.5 -29.5h-125q-43 0 -72.5 29.5t-29.5 72.5z" />
<glyph unicode="k" horiz-adv-x="1067" d="M59 152v139q2 94 2 141q0 76 72 94q27 8 133 9v79q-135 0 -164 19q-41 27 -41 149v674q0 43 30 73t73 30h125q80 0 100 -82q6 -27 6 -146v-387h76q0 147 28.5 176t176.5 29l-2 55q0 150 104 150h125q104 0 105 -152q0 -129 -41 -158q-29 -20 -166 -20q0 -147 -29 -176 t-176 -29v-284q147 0 176 -29t29 -176q141 0 170 -23q35 -29 35 -162q-1 -145 -103 -145h-125q-76 0 -96 72q-6 27 -6 133q-147 0 -176 28.5t-29 176.5h-80v-142q0 -12 2 -49t2 -57q0 -162 -106 -162h-125q-104 0 -105 152z" />
<glyph unicode="l" horiz-adv-x="524" d="M96 152v1304q0 43 31 73t72 30h125q106 0 106 -156l-2 -1301q0 -43 -29.5 -72.5t-72.5 -29.5h-127q-102 0 -103 152z" />
<glyph unicode="m" horiz-adv-x="1753" d="M96 152l2 895q0 76 72 94q27 8 133 8q0 160 47 190q27 16 207 17q207 0 234 -15q47 -27 47 -192h80q0 156 36 184q27 20 191 21q6 0 16 3t15 3q29 0 87 -3t87 -3q76 0 94 -72q8 -27 8 -133q135 0 164 -19q41 -29 41 -151v-877q0 -104 -152 -104q-137 0 -164 49 q-14 25 -14 180v797h-285v-70v-647q0 -104 -151 -104q-137 0 -164 49q-14 25 -14 180v592h-285v-922q0 -104 -152 -104q-109 0 -139 20q-41 29 -41 134z" />
<glyph unicode="n" horiz-adv-x="1345" d="M96 152v679q0 162 2 216q6 102 145 102h5h55v55v6q0 144 103 144h534q76 0 96 -72q6 -27 6 -133q137 0 164 -19q41 -27 41 -149v-879q0 -43 -29.5 -72.5t-72.5 -29.5h-125q-80 0 -98 82q-4 20 -4 145v797h-490v-922q0 -43 -29.5 -72.5t-72.5 -29.5h-125q-102 0 -105 152z " />
<glyph unicode="o" horiz-adv-x="1331" d="M88 766q0 47 2 139v142q0 76 72 94q27 8 133 8v55v6q0 144 102 144h535q76 0 96 -72q6 -27 6 -133q143 0 172 -23q33 -29 33 -161q0 -84 2 -248v-248v-164q-6 -59 -46 -79.5t-161 -20.5l2 -55v-6q0 -144 -104 -144h-535q-76 0 -94 72q-8 27 -8 133q-141 0 -170 22 q-35 29 -35 162v189q-2 125 -2 188zM420 330h489v694h-489v-694z" />
<glyph unicode="p" horiz-adv-x="1243" d="M47 -258l2 690q0 76 72 94q27 8 133 9v79q-137 0 -166 19q-39 29 -39 151v263q0 76 72 94q27 8 133 8l-2 55v6q0 144 104 144h535q76 0 94 -72q8 -27 8 -133q135 0 164 -19q41 -29 41 -151v-262q0 -76 -74 -94q-27 -8 -131 -9v-55v-6q0 -143 -101 -143h-1h-512v-717 q0 -43 -31 -73t-72 -30h-124q-104 0 -105 152zM379 739h489v285h-489v-285z" />
<glyph unicode="q" horiz-adv-x="1320" d="M86 717v262q0 123 39 151q29 18 166 19l-2 55v6q0 144 104 144h535q76 0 94 -72q8 -27 8 -133h55h6q144 0 144 -102v-263q0 -123 -41 -151q-29 -18 -164 -19v-79h55h6q144 0 144 -103v-690q0 -152 -102 -152h-125q-43 0 -73 30t-30 73v717h-512q-76 0 -96 71 q-6 27 -6 133h-55h-6q-144 0 -144 103zM416 739h489v285h-489v-285z" />
<glyph unicode="r" horiz-adv-x="1204" d="M27 152l2 895q0 76 71 94q27 8 133 8l-2 55v5q0 145 105 145h534q76 0 95 -72q8 -27 8 -133q141 0 170 -23q35 -29 35 -161q-1 -146 -103 -146h-125q-76 0 -96 72q-6 27 -6 133h-490v-922q0 -43 -30.5 -72.5t-71.5 -29.5h-125q-104 0 -104 152z" />
<glyph unicode="s" horiz-adv-x="1300" d="M76 152q0 133 45 161q29 16 184 17h592v80h-512q-76 0 -96 71q-6 27 -6 133q-137 0 -166 19q-39 29 -39 151v263q0 76 72 94q27 8 133 8l-2 55v6q0 144 104 144h535q76 0 94 -72q8 -27 8 -133q141 0 170 -23q35 -29 35 -161q0 -145 -103 -146h-125q-76 0 -96 72 q-6 27 -6 133h-489v-285h512q76 0 94 -71q8 -27 8 -133q141 0 170 -23q35 -29 35 -162q0 -109 -53 -133q-27 -12 -152 -12v-55v-6q0 -144 -102 -144h-740q-104 0 -104 152z" />
<glyph unicode="t" horiz-adv-x="1005" d="M29 375v262q0 76 71 94q29 8 133 8v80q-135 0 -163 19q-41 29 -41 151v467q0 43 30.5 73t71.5 30h125q82 0 98 -82q4 -20 4 -146v-387q143 0 172 -22q33 -29 33 -162q0 -109 -51 -133q-27 -12 -154 -13v-284h512q104 0 105 -152q0 -84 -12 -117q-23 -61 -93 -61h-534 q-76 0 -94 72q-8 27 -9 133q-135 0 -163 18q-41 29 -41 152z" />
<glyph unicode="u" horiz-adv-x="1497" d="M72 375v876q0 104 151 105q137 0 164 -49q14 -25 14 -181l2 -794l488 -2v921q0 104 151 105q137 0 164 -49q14 -25 15 -181v-796q143 0 172 -23q32 -28 32 -154v-8q0 -90 -29.5 -118.5t-119.5 -28.5q-131 0 -160 41q-20 27 -20 166h-80q0 -137 -19 -164q-27 -41 -149 -41 h-469q-76 0 -94 72q-8 27 -9 133q-135 0 -163 18q-41 29 -41 152z" />
<glyph unicode="v" horiz-adv-x="1314" d="M82 575v676q0 43 30.5 73t71.5 30h125q80 0 99 -82q4 -20 4 -146v-591q147 0 175.5 -29t28.5 -176h80q0 147 29 176t176 29v716q0 43 31 73t72 30h124q104 0 105 -152l-2 -690q0 -76 -72 -94q-27 -8 -133 -8q0 -147 -28.5 -176t-176.5 -29v-55v-6q0 -144 -102 -144h-125 q-76 0 -94 72q-8 27 -8 133q-147 0 -176 28.5t-29 176.5q-135 0 -164 18q-41 27 -41 147z" />
<glyph unicode="w" horiz-adv-x="1748" d="M94 1202q0 104 43 133q29 20 139 21q150 0 150 -105v-921h285l-2 667q0 104 43 133q29 20 139 21q150 0 149 -104l2 -553q0 -152 -2 -164h285l-2 872q0 104 43 133q29 20 139 21q150 0 150 -105v-876q0 -123 -39 -152q-29 -18 -166 -18v-55v-6q0 -144 -102 -144 q-47 0 -164 -4q-4 -2 -8 -2q-6 0 -16.5 3t-16.5 3q-164 0 -191 20q-37 29 -37 185h-79v-55v-9q0 -85 -35 -118q-29 -27 -101 -27q-18 0 -61 2t-70 2q-6 -2 -14 -2q-178 0 -207 16q-47 31 -47 191h-55h-6q-144 0 -144 102z" />
<glyph unicode="x" horiz-adv-x="1499" d="M70 152q0 129 41 157q29 20 165 21q0 147 29 176t176 29q0 23 2 71v70.5v71.5q-2 49 -2 71q-147 0 -176 29t-29 176q-141 0 -170 23q-34 28 -34 154v7q0 90 29.5 119t121.5 29q129 0 158 -41q20 -27 20 -166q147 0 176 -28.5t29 -176.5h285q0 147 28.5 176t176.5 29 q0 141 25.5 173t158.5 32q90 0 118.5 -30t28.5 -122q0 -129 -38 -158q-29 -20 -168 -20q0 -147 -29 -176t-176 -29v-284q147 0 176 -29t29 -176q143 0 172 -23q32 -28 32 -154v-8q0 -90 -29.5 -118.5t-119.5 -28.5q-131 0 -160 41q-20 27 -20 166q-147 0 -176 28.5 t-29 176.5h-285q0 -147 -28.5 -176t-176.5 -29q0 -141 -22 -170q-29 -35 -162 -35q-88 0 -117.5 29.5t-29.5 122.5z" />
<glyph unicode="y" horiz-adv-x="1335" d="M92 184q0 145 103 146h124q76 0 97 -72q6 -27 6 -133l491 -2l-2 287h-512q-76 0 -94 71q-8 27 -8 133q-135 0 -164 19q-41 29 -41 151v467q0 43 31 73t72 30h124q82 0 101 -82q4 -25 4 -146v-387h487v512q0 43 31 73t72 30h125q104 0 104 -152v-241q-2 -162 -2 -241 t-72 -97q-27 -8 -133 -9v-79q143 0 174 -27t31 -162v-244q0 -76 -72 -94q-27 -8 -133 -8l2 -55v-6q0 -144 -104 -144h-535q-76 0 -94 72q-8 27 -8 133q-141 0 -170 23q-35 29 -35 161z" />
<glyph unicode="z" horiz-adv-x="1316" d="M84 350q0 133 33 162q29 23 172 23l-2 55v6q0 144 103 143h1h512v285h-489v-55v-6q0 -144 -103 -144h-125q-102 0 -102 146q0 133 33 161q29 23 172 23l-2 55v6q0 144 104 144h535q76 0 94 -72q8 -27 8 -133h53h6q146 0 146 -102v-263q0 -123 -41 -151q-29 -18 -164 -19 v-55v-6q0 -143 -101 -143h-1h-512v-80h592q156 0 182 -17q45 -28 45 -161q0 -152 -103 -152h-739q-78 0 -96 72q-6 27 -6 133h-56h-12q-79 1 -107 27q-30 28 -30 118z" />
<glyph unicode="{" horiz-adv-x="1073" d="M63 799q0 109 54 133q27 12 151 12v307q0 76 72 95q27 8 133 8v55q-2 150 102 150h330q104 0 105 -152q0 -84 -13 -117q-23 -61 -92 -61h-307v-307q0 -76 -72 -95q-27 -8 -133 -8v-80q143 0 172 -22q33 -29 33 -162v-225h307q104 0 105 -152q0 -84 -13 -117 q-22 -61 -92 -61h-330q-76 0 -94 72q-8 27 -8 133q-141 0 -170 22q-35 29 -35 162v225q-141 0 -170 23q-35 29 -35 162z" />
<glyph unicode="|" horiz-adv-x="544" d="M106 -53l3 1714q0 43 29.5 72.5t72.5 29.5h125q102 0 102 -151v-1714q0 -43 -30.5 -73t-71.5 -30h-125q-104 0 -105 152z" />
<glyph unicode="}" horiz-adv-x="1081" d="M68 178q0 152 104 152h307v225q0 133 35 162q29 23 170 22v80h-55q-150 -2 -150 103v307h-307q-70 0 -92 61q-12 33 -12 117q0 152 104 152h330q76 0 96 -72q6 -27 6 -133h55q150 2 150 -103v-307h55q90 2 120 -26.5t30 -118.5q0 -133 -31 -159t-174 -26v-225 q0 -133 -30.5 -158.5t-174.5 -25.5l2 -55q0 -150 -104 -150h-330q-70 0 -92 61q-12 33 -12 117z" />
<glyph unicode="&#xad;" d="M115 512v125q0 43 30.5 72.5t71.5 29.5h944q43 0 73 -29.5t30 -72.5v-125q0 -43 -30 -72.5t-73 -29.5h-944q-41 0 -71.5 29.5t-30.5 72.5z" />
<glyph unicode="&#x2000;" horiz-adv-x="881" />
<glyph unicode="&#x2001;" horiz-adv-x="1763" />
<glyph unicode="&#x2002;" horiz-adv-x="881" />
<glyph unicode="&#x2003;" horiz-adv-x="1763" />
<glyph unicode="&#x2004;" horiz-adv-x="587" />
<glyph unicode="&#x2005;" horiz-adv-x="440" />
<glyph unicode="&#x2006;" horiz-adv-x="293" />
<glyph unicode="&#x2007;" horiz-adv-x="293" />
<glyph unicode="&#x2008;" horiz-adv-x="220" />
<glyph unicode="&#x2009;" horiz-adv-x="352" />
<glyph unicode="&#x200a;" horiz-adv-x="97" />
<glyph unicode="&#x2010;" d="M115 512v125q0 43 30.5 72.5t71.5 29.5h944q43 0 73 -29.5t30 -72.5v-125q0 -43 -30 -72.5t-73 -29.5h-944q-41 0 -71.5 29.5t-30.5 72.5z" />
<glyph unicode="&#x2011;" d="M115 512v125q0 43 30.5 72.5t71.5 29.5h944q43 0 73 -29.5t30 -72.5v-125q0 -43 -30 -72.5t-73 -29.5h-944q-41 0 -71.5 29.5t-30.5 72.5z" />
<glyph unicode="&#x2012;" d="M115 512v125q0 43 30.5 72.5t71.5 29.5h944q43 0 73 -29.5t30 -72.5v-125q0 -43 -30 -72.5t-73 -29.5h-944q-41 0 -71.5 29.5t-30.5 72.5z" />
<glyph unicode="&#x2013;" horiz-adv-x="1255" d="M115 512v125q0 43 27 72.5t64 29.5h841q39 0 65.5 -29.5t26.5 -72.5v-125q0 -43 -26.5 -72.5t-65.5 -29.5h-841q-37 0 -64 29.5t-27 72.5z" />
<glyph unicode="&#x2014;" horiz-adv-x="2279" d="M115 512v125q0 43 54.5 72.5t127.5 29.5h1682q77 0 130.5 -29.5t53.5 -72.5v-125q0 -43 -53.5 -72.5t-130.5 -29.5h-1682q-73 0 -127.5 29.5t-54.5 72.5z" />
<glyph unicode="&#x202f;" horiz-adv-x="352" />
<glyph unicode="&#x205f;" horiz-adv-x="440" />
<glyph unicode="&#x25fc;" horiz-adv-x="1351" d="M0 0v1352h1352v-1352h-1352z" />
</font>
</defs>
</svg>
