<?xml version="1.0" encoding="utf-8"?>
<!-- Generator: Adobe Illustrator 17.1.0, SVG Export Plug-In . SVG Version: 6.00 Build 0)  -->
<!DOCTYPE svg PUBLIC "-//W3C//DTD SVG 1.1//EN" "http://www.w3.org/Graphics/SVG/1.1/DTD/svg11.dtd">
<svg version="1.1" id="Layer_1" xmlns="http://www.w3.org/2000/svg" xmlns:xlink="http://www.w3.org/1999/xlink" x="0px" y="0px"
	 viewBox="0 0 32.8 27.6" enable-background="new 0 0 32.8 27.6" xml:space="preserve">
<g id="fgwSzi.tif_1_">
	<g>
		<path fill="#808080" d="M31.2,25.7c-0.2-0.3-0.3-0.6-0.5-0.9c-0.8-1.8-2-3.3-3.6-4.6c-1.3-1-2.7-1.8-4.3-2.3
			c-0.8-0.2-1.5-0.3-2.3-0.5c-0.3-0.1-0.6-0.1-1-0.1c-0.4-0.1-0.5,0.1-0.5,0.4c0,1.3,0,2.6,0,3.8c0,4.1,0.2,3.5-2.3,2.1
			C16.4,23.5,0.8,13.7,0.8,13.3C0.8,13,15.4,3.1,16.1,2.7c3.4-2.1,3-2.5,3,1.3c0.1,4.4,0.1,3.3,0.1,4.4c0,0.3,0.1,0.4,0.4,0.4
			c1.2,0,2.4,0.3,3.5,0.6c2.1,0.7,3.9,1.8,5.4,3.4c1.3,1.3,2.2,2.9,2.8,4.6c0.6,1.8,0.8,3.6,0.6,5.5c-0.1,0.9-0.4,1.8-0.5,2.7
			C31.3,25.7,31.3,25.7,31.2,25.7z"/>
	</g>
</g>
</svg>
